<svg width="20" height="21" viewBox="0 0 20 21" fill="none" xmlns="http://www.w3.org/2000/svg">
<g clip-path="url(#clip0_16_9560)">
<g clip-path="url(#clip1_16_9560)">
<mask id="mask0_16_9560" style="mask-type:luminance" maskUnits="userSpaceOnUse" x="0" y="1" width="20" height="20">
<path d="M20 1.28516H0V20.1307H20V1.28516Z" fill="white"/>
</mask>
<g mask="url(#mask0_16_9560)">
<path d="M7.77184 2.19434C6.91729 2.19434 6.19002 2.67616 5.8082 3.38525C5.55366 3.30343 5.29002 3.25798 5.0082 3.25798C3.48093 3.25798 2.24457 4.49434 2.24457 6.02161C2.24457 6.73979 2.52638 7.37616 2.97184 7.86707C1.77184 8.32161 0.908203 9.46707 0.908203 10.8307C0.908203 12.0762 1.62638 13.1398 2.67184 13.658C2.4082 14.0762 2.25366 14.5762 2.25366 15.1035C2.25366 16.6307 3.49002 17.8671 5.01729 17.8671C5.25366 17.8671 5.47184 17.8307 5.69002 17.7762C6.0082 18.6307 6.81729 19.2398 7.77184 19.2398C9.0082 19.2398 9.99911 18.2398 9.99911 17.0126V4.42161C9.99911 3.18525 8.99911 2.19434 7.77184 2.19434Z" stroke="#79B910" stroke-width="2" stroke-linecap="round" stroke-linejoin="round"/>
<path d="M12.2273 2.19434C13.0818 2.19434 13.8091 2.67616 14.1909 3.38525C14.4455 3.30343 14.7091 3.25798 14.9909 3.25798C16.5182 3.25798 17.7545 4.49434 17.7545 6.02161C17.7545 6.73979 17.4727 7.37616 17.0273 7.86707C18.2273 8.32161 19.0909 9.46707 19.0909 10.8307C19.0909 12.0762 18.3727 13.1398 17.3273 13.658C17.5909 14.0762 17.7455 14.5762 17.7455 15.1035C17.7455 16.6307 16.5091 17.8671 14.9818 17.8671C14.7455 17.8671 14.5273 17.8307 14.3091 17.7762C13.9909 18.6307 13.1818 19.2398 12.2273 19.2398C10.9909 19.2398 10 18.2398 10 17.0126V4.42161C10 3.18525 11 2.19434 12.2273 2.19434Z" stroke="#79B910" stroke-width="2" stroke-linecap="round" stroke-linejoin="round"/>
<path d="M5.76367 14.2306C6.51822 13.8943 6.86367 12.9761 6.81822 12.1579C6.77276 11.3397 6.42731 10.5579 6.15458 9.78512C5.88185 9.01239 5.66367 8.15785 5.90004 7.36694" stroke="#79B910" stroke-width="2" stroke-linecap="round" stroke-linejoin="round"/>
<path d="M13.7733 14.2306C13.0188 13.8943 12.6733 12.9761 12.7188 12.1579C12.7643 11.3397 13.1097 10.5579 13.3824 9.78512C13.6552 9.01239 13.8733 8.15785 13.637 7.36694" stroke="#79B910" stroke-width="2" stroke-linecap="round" stroke-linejoin="round"/>
</g>
</g>
</g>
<defs>
<clipPath id="clip0_16_9560">
<rect width="20" height="20" fill="white" transform="translate(0 0.785156)"/>
</clipPath>
<clipPath id="clip1_16_9560">
<rect width="20" height="19" fill="white" transform="translate(0 1.28516)"/>
</clipPath>
</defs>
</svg>
