<svg width="16" height="16" viewBox="0 0 16 16" fill="none" xmlns="http://www.w3.org/2000/svg">
<path fill-rule="evenodd" clip-rule="evenodd" d="M14.6398 0.552734H1.24874C0.790177 0.55297 0.418579 0.92492 0.418579 1.38359V14.7747C0.418814 15.2332 0.790765 15.6048 1.24942 15.6048H8.4591V9.78388H6.50409V7.5055H8.4591V5.82875C8.4591 3.8843 9.64618 2.82595 11.3807 2.82595C12.2114 2.82595 12.9254 2.88786 13.1335 2.91553V4.94782H11.9374C10.9937 4.94782 10.811 5.39627 10.811 6.05442V7.5055H13.0673L12.7733 9.78388H10.811V15.6048H14.6398C15.0986 15.6048 15.4707 15.2331 15.4707 14.7743V1.38289C15.4704 0.924362 15.0985 0.552734 14.6398 0.552734Z" fill="white"/>
</svg>
