<svg width="20" height="21" viewBox="0 0 20 21" fill="none" xmlns="http://www.w3.org/2000/svg">
<g clip-path="url(#clip0_16_9513)">
<g clip-path="url(#clip1_16_9513)">
<mask id="mask0_16_9513" style="mask-type:luminance" maskUnits="userSpaceOnUse" x="1" y="0" width="18" height="21">
<path d="M18.5 0.785156H1.5V20.7852H18.5V0.785156Z" fill="white"/>
</mask>
<g mask="url(#mask0_16_9513)">
<path d="M7.53548 19.8762C7.53548 19.8762 3.05069 18.6762 2.58638 13.7489C2.12207 8.82161 6.91289 5.29434 6.91289 5.29434C6.91289 5.29434 7.22946 7.95798 9.19222 8.55798C9.19222 8.55798 6.98675 5.15798 11.3133 1.69434C11.3133 1.69434 11.7776 4.42161 13.4765 6.22161C15.1755 8.02161 18.3517 11.4126 17.191 14.6126C16.0302 17.8126 12.4002 19.8762 12.4002 19.8762C12.9383 16.2126 9.9942 15.1489 9.9942 15.1489C9.9942 15.1489 6.59631 16.4853 7.52493 19.8762H7.53548Z" stroke="#79B910" stroke-width="2" stroke-linecap="round" stroke-linejoin="round"/>
</g>
</g>
</g>
<defs>
<clipPath id="clip0_16_9513">
<rect width="20" height="20" fill="white" transform="translate(0 0.785156)"/>
</clipPath>
<clipPath id="clip1_16_9513">
<rect width="17" height="20" fill="white" transform="translate(1.5 0.785156)"/>
</clipPath>
</defs>
</svg>
