<svg width="395" height="51" viewBox="0 0 395 51" fill="none" xmlns="http://www.w3.org/2000/svg">
<g clip-path="url(#clip0_6_2843)">
<path d="M13.6364 14.3341V5.42496C13.6364 4.40669 13.6364 3.89754 13.4382 3.50861C13.2639 3.1665 12.9858 2.88835 12.6437 2.71404C12.2548 2.51587 11.7456 2.51587 10.7273 2.51587H3.81821C2.79994 2.51587 2.29079 2.51587 1.90186 2.71404C1.55975 2.88835 1.2816 3.1665 1.10729 3.50861C0.909119 3.89754 0.909119 4.40669 0.909119 5.42496V11.425C0.909119 12.4432 0.909119 12.9524 1.10729 13.3413C1.2816 13.6834 1.55975 13.9616 1.90186 14.1359C2.29079 14.3341 2.79994 14.3341 3.81821 14.3341H13.6364ZM13.6364 14.3341H17.6364C18.1456 14.3341 18.4001 14.3341 18.5946 14.235C18.7657 14.1478 18.9047 14.0088 18.9918 13.8377C19.0909 13.6432 19.0909 13.3887 19.0909 12.8795V10.3911C19.0909 10.1688 19.0909 10.0576 19.0658 9.95296C19.0436 9.86014 19.0068 9.77151 18.9569 9.69014C18.9008 9.59841 18.8221 9.51978 18.6649 9.3626L16.7897 7.48735C16.6325 7.33012 16.5538 7.25151 16.4621 7.19529C16.3808 7.14544 16.2921 7.10871 16.1993 7.08644C16.0947 7.06132 15.9835 7.06132 15.7612 7.06132H13.6364M7.27275 16.6068C7.27275 17.862 6.25522 18.8795 5.00003 18.8795C3.74484 18.8795 2.7273 17.862 2.7273 16.6068C2.7273 15.3516 3.74484 14.3341 5.00003 14.3341C6.25522 14.3341 7.27275 15.3516 7.27275 16.6068ZM17.2728 16.6068C17.2728 17.862 16.2552 18.8795 15 18.8795C13.7448 18.8795 12.7273 17.862 12.7273 16.6068C12.7273 15.3516 13.7448 14.3341 15 14.3341C16.2552 14.3341 17.2728 15.3516 17.2728 16.6068Z" stroke="white" stroke-width="1.36364" stroke-linecap="round" stroke-linejoin="round"/>
<path d="M13.6364 14.3341V5.42496C13.6364 4.40669 13.6364 3.89754 13.4382 3.50861C13.2639 3.1665 12.9858 2.88835 12.6437 2.71404C12.2548 2.51587 11.7456 2.51587 10.7273 2.51587H3.81821C2.79994 2.51587 2.29079 2.51587 1.90186 2.71404C1.55975 2.88835 1.2816 3.1665 1.10729 3.50861C0.909119 3.89754 0.909119 4.40669 0.909119 5.42496V11.425C0.909119 12.4432 0.909119 12.9524 1.10729 13.3413C1.2816 13.6834 1.55975 13.9616 1.90186 14.1359C2.29079 14.3341 2.79994 14.3341 3.81821 14.3341H13.6364ZM13.6364 14.3341H17.6364C18.1456 14.3341 18.4001 14.3341 18.5946 14.235C18.7657 14.1478 18.9047 14.0088 18.9918 13.8377C19.0909 13.6432 19.0909 13.3887 19.0909 12.8795V10.3911C19.0909 10.1688 19.0909 10.0576 19.0658 9.95296C19.0436 9.86014 19.0068 9.77151 18.9569 9.69014C18.9008 9.59841 18.8221 9.51978 18.6649 9.3626L16.7897 7.48735C16.6325 7.33012 16.5538 7.25151 16.4621 7.19529C16.3808 7.14544 16.2921 7.10871 16.1993 7.08644C16.0947 7.06132 15.9835 7.06132 15.7612 7.06132H13.6364M7.27275 16.6068C7.27275 17.862 6.25522 18.8795 5.00003 18.8795C3.74484 18.8795 2.7273 17.862 2.7273 16.6068C2.7273 15.3516 3.74484 14.3341 5.00003 14.3341C6.25522 14.3341 7.27275 15.3516 7.27275 16.6068ZM17.2728 16.6068C17.2728 17.862 16.2552 18.8795 15 18.8795C13.7448 18.8795 12.7273 17.862 12.7273 16.6068C12.7273 15.3516 13.7448 14.3341 15 14.3341C16.2552 14.3341 17.2728 15.3516 17.2728 16.6068Z" stroke="black" stroke-opacity="0.6" stroke-width="1.36364" stroke-linecap="round" stroke-linejoin="round"/>
</g>
<path d="M41.384 4.62951V5.87751H37.364V8.30151H41.144V9.56151H37.364V13.1975H35.912V4.62951H41.384ZM45.8386 8.58951C46.1666 8.58951 46.4386 8.55751 46.6546 8.49351C46.8706 8.42151 47.0386 8.32551 47.1586 8.20551C47.2866 8.07751 47.3746 7.92551 47.4226 7.74951C47.4786 7.57351 47.5066 7.37751 47.5066 7.16151C47.5066 6.96151 47.4746 6.78151 47.4106 6.62151C47.3546 6.45351 47.2546 6.31351 47.1106 6.20151C46.9746 6.08151 46.7906 5.98951 46.5586 5.92551C46.3266 5.86151 46.0386 5.82951 45.6946 5.82951H44.2306V8.58951H45.8386ZM45.7306 4.62951C46.3786 4.62951 46.9106 4.70551 47.3266 4.85751C47.7506 5.00951 48.0826 5.20951 48.3226 5.45751C48.5706 5.69751 48.7426 5.96551 48.8386 6.26151C48.9346 6.55751 48.9826 6.84951 48.9826 7.13751C48.9826 7.69751 48.8706 8.16551 48.6466 8.54151C48.4306 8.91751 48.0786 9.22151 47.5906 9.45351L49.3666 13.1975H47.7826L46.2466 9.78951C46.1746 9.79751 46.0986 9.80551 46.0186 9.81351C45.9386 9.81351 45.8546 9.81351 45.7666 9.81351H44.2306V13.1975H42.8026V4.62951H45.7306ZM50.5136 4.62951H56.2136V5.87751H51.9656V8.15751H55.9736V9.41751H51.9656V11.9495H56.4416L56.2736 13.1975H50.5136V4.62951ZM57.8261 4.62951H63.5261V5.87751H59.2781V8.15751H63.2861V9.41751H59.2781V11.9495H63.7541L63.5861 13.1975H57.8261V4.62951ZM68.6295 10.5815C68.6935 11.1415 68.8935 11.5495 69.2295 11.8055C69.5735 12.0615 70.0815 12.1895 70.7535 12.1895C71.0815 12.1895 71.3575 12.1535 71.5815 12.0815C71.8055 12.0095 71.9855 11.9135 72.1215 11.7935C72.2575 11.6735 72.3535 11.5335 72.4095 11.3735C72.4655 11.2055 72.4935 11.0295 72.4935 10.8455C72.4935 10.7095 72.4735 10.5775 72.4335 10.4495C72.3935 10.3135 72.3215 10.1895 72.2175 10.0775C72.1135 9.96551 71.9735 9.86951 71.7975 9.78951C71.6215 9.70151 71.3975 9.63351 71.1255 9.58551L70.0335 9.38151C69.6015 9.30151 69.2175 9.20151 68.8815 9.08151C68.5455 8.96151 68.2615 8.80551 68.0295 8.61351C67.8055 8.41351 67.6335 8.17351 67.5135 7.89351C67.4015 7.60551 67.3455 7.25751 67.3455 6.84951C67.3455 6.44151 67.4255 6.08551 67.5855 5.78151C67.7535 5.47751 67.9815 5.22551 68.2695 5.02551C68.5575 4.81751 68.8975 4.66551 69.2895 4.56951C69.6895 4.46551 70.1215 4.41351 70.5855 4.41351C71.1775 4.41351 71.6735 4.48151 72.0735 4.61751C72.4735 4.75351 72.7975 4.93351 73.0455 5.15751C73.2935 5.37351 73.4815 5.62551 73.6095 5.91351C73.7375 6.20151 73.8255 6.50151 73.8735 6.81351L72.5055 7.02951C72.3935 6.54951 72.1975 6.19351 71.9175 5.96151C71.6455 5.72951 71.2095 5.61351 70.6095 5.61351C70.2655 5.61351 69.9775 5.64551 69.7455 5.70951C69.5215 5.76551 69.3375 5.84951 69.1935 5.96151C69.0575 6.06551 68.9575 6.18951 68.8935 6.33351C68.8375 6.46951 68.8095 6.61351 68.8095 6.76551C68.8095 7.14151 68.9095 7.42151 69.1095 7.60551C69.3175 7.78951 69.6775 7.93351 70.1895 8.03751L71.3775 8.26551C72.2815 8.43351 72.9455 8.72151 73.3695 9.12951C73.7935 9.52951 74.0055 10.1095 74.0055 10.8695C74.0055 11.2295 73.9375 11.5655 73.8015 11.8775C73.6735 12.1815 73.4735 12.4495 73.2015 12.6815C72.9295 12.9055 72.5895 13.0815 72.1815 13.2095C71.7815 13.3455 71.3135 13.4135 70.7775 13.4135C69.6815 13.4135 68.8215 13.1855 68.1975 12.7295C67.5735 12.2655 67.2295 11.5495 67.1655 10.5815H68.6295ZM75.4042 4.62951H76.8562V8.09751H80.7082V4.62951H82.1602V13.1975H80.7082V9.44151H76.8562V13.1975H75.4042V4.62951ZM83.9823 4.62951H85.4343V13.1975H83.9823V4.62951ZM87.2518 4.62951H90.2158C90.8638 4.62951 91.3958 4.70151 91.8118 4.84551C92.2358 4.98951 92.5678 5.18151 92.8078 5.42151C93.0478 5.66151 93.2158 5.94151 93.3118 6.26151C93.4078 6.57351 93.4558 6.90151 93.4558 7.24551C93.4558 7.61351 93.4078 7.96551 93.3118 8.30151C93.2158 8.63751 93.0438 8.93351 92.7958 9.18951C92.5558 9.43751 92.2278 9.63751 91.8118 9.78951C91.3958 9.93351 90.8718 10.0055 90.2398 10.0055H88.6798V13.1975H87.2518V4.62951ZM90.2038 8.79351C90.5718 8.79351 90.8718 8.75751 91.1038 8.68551C91.3438 8.61351 91.5318 8.51351 91.6678 8.38551C91.8038 8.24951 91.8958 8.08951 91.9438 7.90551C91.9998 7.72151 92.0278 7.51351 92.0278 7.28151C92.0278 7.04151 91.9998 6.83351 91.9438 6.65751C91.8878 6.47351 91.7878 6.32151 91.6438 6.20151C91.5078 6.08151 91.3198 5.98951 91.0798 5.92551C90.8478 5.86151 90.5518 5.82951 90.1918 5.82951H88.6798V8.79351H90.2038ZM94.8456 4.62951H97.8096C98.4576 4.62951 98.9896 4.70151 99.4056 4.84551C99.8296 4.98951 100.162 5.18151 100.402 5.42151C100.642 5.66151 100.81 5.94151 100.906 6.26151C101.002 6.57351 101.05 6.90151 101.05 7.24551C101.05 7.61351 101.002 7.96551 100.906 8.30151C100.81 8.63751 100.638 8.93351 100.39 9.18951C100.15 9.43751 99.8216 9.63751 99.4056 9.78951C98.9896 9.93351 98.4656 10.0055 97.8336 10.0055H96.2736V13.1975H94.8456V4.62951ZM97.7976 8.79351C98.1656 8.79351 98.4656 8.75751 98.6976 8.68551C98.9376 8.61351 99.1256 8.51351 99.2616 8.38551C99.3976 8.24951 99.4896 8.08951 99.5376 7.90551C99.5936 7.72151 99.6216 7.51351 99.6216 7.28151C99.6216 7.04151 99.5936 6.83351 99.5376 6.65751C99.4816 6.47351 99.3816 6.32151 99.2376 6.20151C99.1016 6.08151 98.9136 5.98951 98.6736 5.92551C98.4416 5.86151 98.1456 5.82951 97.7856 5.82951H96.2736V8.79351H97.7976ZM102.439 4.62951H103.891V13.1975H102.439V4.62951ZM105.709 4.62951H107.053L110.989 10.8215V4.62951H112.405V13.1975H111.061L107.113 7.02951V13.1975H105.709V4.62951ZM121.32 8.64951V12.1775C120.88 12.5855 120.36 12.8935 119.76 13.1015C119.16 13.3095 118.556 13.4135 117.948 13.4135C117.284 13.4135 116.7 13.3095 116.196 13.1015C115.7 12.8855 115.284 12.5855 114.948 12.2015C114.612 11.8095 114.36 11.3375 114.192 10.7855C114.024 10.2335 113.94 9.61351 113.94 8.92551C113.94 8.22951 114.032 7.60551 114.216 7.05351C114.4 6.49351 114.66 6.01751 114.996 5.62551C115.332 5.23351 115.74 4.93351 116.22 4.72551C116.7 4.51751 117.236 4.41351 117.828 4.41351C118.348 4.41351 118.8 4.48151 119.184 4.61751C119.576 4.74551 119.904 4.92551 120.168 5.15751C120.44 5.38951 120.656 5.66151 120.816 5.97351C120.984 6.27751 121.104 6.60551 121.176 6.95751L119.748 7.16151C119.684 6.92151 119.604 6.70951 119.508 6.52551C119.42 6.33351 119.3 6.17351 119.148 6.04551C119.004 5.91751 118.824 5.82151 118.608 5.75751C118.392 5.68551 118.132 5.64951 117.828 5.64951C117.428 5.64951 117.076 5.72951 116.772 5.88951C116.476 6.04151 116.228 6.26151 116.028 6.54951C115.828 6.83751 115.68 7.18151 115.584 7.58151C115.488 7.98151 115.44 8.42551 115.44 8.91351C115.44 9.41751 115.488 9.86951 115.584 10.2695C115.68 10.6695 115.832 11.0135 116.04 11.3015C116.248 11.5815 116.508 11.7975 116.82 11.9495C117.14 12.1015 117.524 12.1775 117.972 12.1775C118.372 12.1775 118.732 12.1375 119.052 12.0575C119.372 11.9695 119.68 11.8215 119.976 11.6135V9.87351H118.08V8.64951H121.32ZM129.281 13.4135C128.665 13.4135 128.109 13.3135 127.613 13.1135C127.125 12.9055 126.705 12.6095 126.353 12.2255C126.001 11.8415 125.729 11.3735 125.537 10.8215C125.353 10.2615 125.261 9.62951 125.261 8.92551C125.261 8.22151 125.357 7.58951 125.549 7.02951C125.741 6.46951 126.013 5.99751 126.365 5.61351C126.717 5.22151 127.141 4.92551 127.637 4.72551C128.133 4.51751 128.681 4.41351 129.281 4.41351C129.889 4.41351 130.441 4.51751 130.937 4.72551C131.433 4.92551 131.853 5.21751 132.197 5.60151C132.541 5.98551 132.805 6.45751 132.989 7.01751C133.181 7.56951 133.277 8.19751 133.277 8.90151C133.277 9.61351 133.185 10.2495 133.001 10.8095C132.817 11.3615 132.553 11.8335 132.209 12.2255C131.865 12.6095 131.445 12.9055 130.949 13.1135C130.461 13.3135 129.905 13.4135 129.281 13.4135ZM129.269 12.1655C130.093 12.1655 130.717 11.8775 131.141 11.3015C131.565 10.7175 131.777 9.92151 131.777 8.91351C131.777 8.40951 131.721 7.95751 131.609 7.55751C131.505 7.15751 131.349 6.81751 131.141 6.53751C130.933 6.25751 130.673 6.04151 130.361 5.88951C130.049 5.73751 129.685 5.66151 129.269 5.66151C128.853 5.66151 128.489 5.73751 128.177 5.88951C127.865 6.04151 127.601 6.25751 127.385 6.53751C127.177 6.81751 127.021 7.15751 126.917 7.55751C126.813 7.95751 126.761 8.40951 126.761 8.91351C126.761 9.92151 126.969 10.7175 127.385 11.3015C127.809 11.8775 128.437 12.1655 129.269 12.1655ZM134.818 4.62951H136.162L140.098 10.8215V4.62951H141.514V13.1975H140.17L136.222 7.02951V13.1975H134.818V4.62951ZM147.318 4.62951V9.76551C147.318 10.5735 147.462 11.1775 147.75 11.5775C148.046 11.9695 148.542 12.1655 149.238 12.1655C149.926 12.1655 150.41 11.9695 150.69 11.5775C150.978 11.1775 151.122 10.5735 151.122 9.76551V4.62951H152.574V9.76551C152.574 10.4295 152.494 10.9935 152.334 11.4575C152.174 11.9135 151.946 12.2895 151.65 12.5855C151.354 12.8735 151.002 13.0815 150.594 13.2095C150.186 13.3455 149.73 13.4135 149.226 13.4135C148.13 13.4135 147.298 13.1215 146.73 12.5375C146.162 11.9455 145.878 11.0095 145.878 9.72951V4.62951H147.318ZM154.944 11.5295V13.1975H153.492V11.5295H154.944ZM157.34 10.5815C157.404 11.1415 157.604 11.5495 157.94 11.8055C158.284 12.0615 158.792 12.1895 159.464 12.1895C159.792 12.1895 160.068 12.1535 160.292 12.0815C160.516 12.0095 160.696 11.9135 160.832 11.7935C160.968 11.6735 161.064 11.5335 161.12 11.3735C161.176 11.2055 161.204 11.0295 161.204 10.8455C161.204 10.7095 161.184 10.5775 161.144 10.4495C161.104 10.3135 161.032 10.1895 160.928 10.0775C160.824 9.96551 160.684 9.86951 160.508 9.78951C160.332 9.70151 160.108 9.63351 159.836 9.58551L158.744 9.38151C158.312 9.30151 157.928 9.20151 157.592 9.08151C157.256 8.96151 156.972 8.80551 156.74 8.61351C156.516 8.41351 156.344 8.17351 156.224 7.89351C156.112 7.60551 156.056 7.25751 156.056 6.84951C156.056 6.44151 156.136 6.08551 156.296 5.78151C156.464 5.47751 156.692 5.22551 156.98 5.02551C157.268 4.81751 157.608 4.66551 158 4.56951C158.4 4.46551 158.832 4.41351 159.296 4.41351C159.888 4.41351 160.384 4.48151 160.784 4.61751C161.184 4.75351 161.508 4.93351 161.756 5.15751C162.004 5.37351 162.192 5.62551 162.32 5.91351C162.448 6.20151 162.536 6.50151 162.584 6.81351L161.216 7.02951C161.104 6.54951 160.908 6.19351 160.628 5.96151C160.356 5.72951 159.92 5.61351 159.32 5.61351C158.976 5.61351 158.688 5.64551 158.456 5.70951C158.232 5.76551 158.048 5.84951 157.904 5.96151C157.768 6.06551 157.668 6.18951 157.604 6.33351C157.548 6.46951 157.52 6.61351 157.52 6.76551C157.52 7.14151 157.62 7.42151 157.82 7.60551C158.028 7.78951 158.388 7.93351 158.9 8.03751L160.088 8.26551C160.992 8.43351 161.656 8.72151 162.08 9.12951C162.504 9.52951 162.716 10.1095 162.716 10.8695C162.716 11.2295 162.648 11.5655 162.512 11.8775C162.384 12.1815 162.184 12.4495 161.912 12.6815C161.64 12.9055 161.3 13.0815 160.892 13.2095C160.492 13.3455 160.024 13.4135 159.488 13.4135C158.392 13.4135 157.532 13.1855 156.908 12.7295C156.284 12.2655 155.94 11.5495 155.876 10.5815H157.34ZM165.315 11.5295V13.1975H163.863V11.5295H165.315ZM173.296 13.4135C172.68 13.4135 172.124 13.3135 171.628 13.1135C171.14 12.9055 170.72 12.6095 170.368 12.2255C170.016 11.8415 169.744 11.3735 169.552 10.8215C169.368 10.2615 169.276 9.62951 169.276 8.92551C169.276 8.22151 169.372 7.58951 169.564 7.02951C169.756 6.46951 170.028 5.99751 170.38 5.61351C170.732 5.22151 171.156 4.92551 171.652 4.72551C172.148 4.51751 172.696 4.41351 173.296 4.41351C173.904 4.41351 174.456 4.51751 174.952 4.72551C175.448 4.92551 175.868 5.21751 176.212 5.60151C176.556 5.98551 176.82 6.45751 177.004 7.01751C177.196 7.56951 177.292 8.19751 177.292 8.90151C177.292 9.61351 177.2 10.2495 177.016 10.8095C176.832 11.3615 176.568 11.8335 176.224 12.2255C175.88 12.6095 175.46 12.9055 174.964 13.1135C174.476 13.3135 173.92 13.4135 173.296 13.4135ZM173.284 12.1655C174.108 12.1655 174.732 11.8775 175.156 11.3015C175.58 10.7175 175.792 9.92151 175.792 8.91351C175.792 8.40951 175.736 7.95751 175.624 7.55751C175.52 7.15751 175.364 6.81751 175.156 6.53751C174.948 6.25751 174.688 6.04151 174.376 5.88951C174.064 5.73751 173.7 5.66151 173.284 5.66151C172.868 5.66151 172.504 5.73751 172.192 5.88951C171.88 6.04151 171.616 6.25751 171.4 6.53751C171.192 6.81751 171.036 7.15751 170.932 7.55751C170.828 7.95751 170.776 8.40951 170.776 8.91351C170.776 9.92151 170.984 10.7175 171.4 11.3015C171.824 11.8775 172.452 12.1655 173.284 12.1655ZM181.87 8.58951C182.198 8.58951 182.47 8.55751 182.686 8.49351C182.902 8.42151 183.07 8.32551 183.19 8.20551C183.318 8.07751 183.406 7.92551 183.454 7.74951C183.51 7.57351 183.538 7.37751 183.538 7.16151C183.538 6.96151 183.506 6.78151 183.442 6.62151C183.386 6.45351 183.286 6.31351 183.142 6.20151C183.006 6.08151 182.822 5.98951 182.59 5.92551C182.358 5.86151 182.07 5.82951 181.726 5.82951H180.262V8.58951H181.87ZM181.762 4.62951C182.41 4.62951 182.942 4.70551 183.358 4.85751C183.782 5.00951 184.114 5.20951 184.354 5.45751C184.602 5.69751 184.774 5.96551 184.87 6.26151C184.966 6.55751 185.014 6.84951 185.014 7.13751C185.014 7.69751 184.902 8.16551 184.678 8.54151C184.462 8.91751 184.11 9.22151 183.622 9.45351L185.398 13.1975H183.814L182.278 9.78951C182.206 9.79751 182.13 9.80551 182.05 9.81351C181.97 9.81351 181.886 9.81351 181.798 9.81351H180.262V13.1975H178.834V4.62951H181.762ZM189.401 11.9615C189.905 11.9615 190.333 11.8895 190.685 11.7455C191.045 11.6015 191.337 11.3935 191.561 11.1215C191.793 10.8495 191.961 10.5255 192.065 10.1495C192.169 9.77351 192.221 9.34951 192.221 8.87751C192.221 7.93351 192.021 7.19751 191.621 6.66951C191.221 6.13351 190.565 5.86551 189.653 5.86551H187.997V11.9615H189.401ZM189.641 4.62951C190.273 4.62951 190.841 4.71751 191.345 4.89351C191.849 5.06151 192.277 5.32151 192.629 5.67351C192.981 6.02551 193.249 6.46951 193.433 7.00551C193.625 7.53351 193.721 8.15351 193.721 8.86551C193.721 9.57751 193.621 10.2055 193.421 10.7495C193.221 11.2855 192.933 11.7375 192.557 12.1055C192.181 12.4655 191.721 12.7375 191.177 12.9215C190.641 13.1055 190.033 13.1975 189.353 13.1975H186.545V4.62951H189.641ZM195.252 4.62951H200.952V5.87751H196.704V8.15751H200.712V9.41751H196.704V11.9495H201.18L201.012 13.1975H195.252V4.62951ZM205.6 8.58951C205.928 8.58951 206.2 8.55751 206.416 8.49351C206.632 8.42151 206.8 8.32551 206.92 8.20551C207.048 8.07751 207.136 7.92551 207.184 7.74951C207.24 7.57351 207.268 7.37751 207.268 7.16151C207.268 6.96151 207.236 6.78151 207.172 6.62151C207.116 6.45351 207.016 6.31351 206.872 6.20151C206.736 6.08151 206.552 5.98951 206.32 5.92551C206.088 5.86151 205.8 5.82951 205.456 5.82951H203.992V8.58951H205.6ZM205.492 4.62951C206.14 4.62951 206.672 4.70551 207.088 4.85751C207.512 5.00951 207.844 5.20951 208.084 5.45751C208.332 5.69751 208.504 5.96551 208.6 6.26151C208.696 6.55751 208.744 6.84951 208.744 7.13751C208.744 7.69751 208.632 8.16551 208.408 8.54151C208.192 8.91751 207.84 9.22151 207.352 9.45351L209.128 13.1975H207.544L206.008 9.78951C205.936 9.79751 205.86 9.80551 205.78 9.81351C205.7 9.81351 205.616 9.81351 205.528 9.81351H203.992V13.1975H202.564V4.62951H205.492ZM211.223 10.5815C211.287 11.1415 211.487 11.5495 211.823 11.8055C212.167 12.0615 212.675 12.1895 213.347 12.1895C213.675 12.1895 213.951 12.1535 214.175 12.0815C214.399 12.0095 214.579 11.9135 214.715 11.7935C214.851 11.6735 214.947 11.5335 215.003 11.3735C215.059 11.2055 215.087 11.0295 215.087 10.8455C215.087 10.7095 215.067 10.5775 215.027 10.4495C214.987 10.3135 214.915 10.1895 214.811 10.0775C214.707 9.96551 214.567 9.86951 214.391 9.78951C214.215 9.70151 213.991 9.63351 213.719 9.58551L212.627 9.38151C212.195 9.30151 211.811 9.20151 211.475 9.08151C211.139 8.96151 210.855 8.80551 210.623 8.61351C210.399 8.41351 210.227 8.17351 210.107 7.89351C209.995 7.60551 209.939 7.25751 209.939 6.84951C209.939 6.44151 210.019 6.08551 210.179 5.78151C210.347 5.47751 210.575 5.22551 210.863 5.02551C211.151 4.81751 211.491 4.66551 211.883 4.56951C212.283 4.46551 212.715 4.41351 213.179 4.41351C213.771 4.41351 214.267 4.48151 214.667 4.61751C215.067 4.75351 215.391 4.93351 215.639 5.15751C215.887 5.37351 216.075 5.62551 216.203 5.91351C216.331 6.20151 216.419 6.50151 216.467 6.81351L215.099 7.02951C214.987 6.54951 214.791 6.19351 214.511 5.96151C214.239 5.72951 213.803 5.61351 213.203 5.61351C212.859 5.61351 212.571 5.64551 212.339 5.70951C212.115 5.76551 211.931 5.84951 211.787 5.96151C211.651 6.06551 211.551 6.18951 211.487 6.33351C211.431 6.46951 211.403 6.61351 211.403 6.76551C211.403 7.14151 211.503 7.42151 211.703 7.60551C211.911 7.78951 212.271 7.93351 212.783 8.03751L213.971 8.26551C214.875 8.43351 215.539 8.72151 215.963 9.12951C216.387 9.52951 216.599 10.1095 216.599 10.8695C216.599 11.2295 216.531 11.5655 216.395 11.8775C216.267 12.1815 216.067 12.4495 215.795 12.6815C215.523 12.9055 215.183 13.0815 214.775 13.2095C214.375 13.3455 213.907 13.4135 213.371 13.4135C212.275 13.4135 211.415 13.1855 210.791 12.7295C210.167 12.2655 209.823 11.5495 209.759 10.5815H211.223ZM224.402 13.4135C223.786 13.4135 223.23 13.3135 222.734 13.1135C222.246 12.9055 221.826 12.6095 221.474 12.2255C221.122 11.8415 220.85 11.3735 220.658 10.8215C220.474 10.2615 220.382 9.62951 220.382 8.92551C220.382 8.22151 220.478 7.58951 220.67 7.02951C220.862 6.46951 221.134 5.99751 221.486 5.61351C221.838 5.22151 222.262 4.92551 222.758 4.72551C223.254 4.51751 223.802 4.41351 224.402 4.41351C225.01 4.41351 225.562 4.51751 226.058 4.72551C226.554 4.92551 226.974 5.21751 227.318 5.60151C227.662 5.98551 227.926 6.45751 228.11 7.01751C228.302 7.56951 228.398 8.19751 228.398 8.90151C228.398 9.61351 228.306 10.2495 228.122 10.8095C227.938 11.3615 227.674 11.8335 227.33 12.2255C226.986 12.6095 226.566 12.9055 226.07 13.1135C225.582 13.3135 225.026 13.4135 224.402 13.4135ZM224.39 12.1655C225.214 12.1655 225.838 11.8775 226.262 11.3015C226.686 10.7175 226.898 9.92151 226.898 8.91351C226.898 8.40951 226.842 7.95751 226.73 7.55751C226.626 7.15751 226.47 6.81751 226.262 6.53751C226.054 6.25751 225.794 6.04151 225.482 5.88951C225.17 5.73751 224.806 5.66151 224.39 5.66151C223.974 5.66151 223.61 5.73751 223.298 5.88951C222.986 6.04151 222.722 6.25751 222.506 6.53751C222.298 6.81751 222.142 7.15751 222.038 7.55751C221.934 7.95751 221.882 8.40951 221.882 8.91351C221.882 9.92151 222.09 10.7175 222.506 11.3015C222.93 11.8775 223.558 12.1655 224.39 12.1655ZM230.252 4.62951L232.604 11.2295L234.992 4.62951H236.54L233.288 13.1975H231.896L228.632 4.62951H230.252ZM237.592 4.62951H243.292V5.87751H239.044V8.15751H243.052V9.41751H239.044V11.9495H243.52L243.352 13.1975H237.592V4.62951ZM247.94 8.58951C248.268 8.58951 248.54 8.55751 248.756 8.49351C248.972 8.42151 249.14 8.32551 249.26 8.20551C249.388 8.07751 249.476 7.92551 249.524 7.74951C249.58 7.57351 249.608 7.37751 249.608 7.16151C249.608 6.96151 249.576 6.78151 249.512 6.62151C249.456 6.45351 249.356 6.31351 249.212 6.20151C249.076 6.08151 248.892 5.98951 248.66 5.92551C248.428 5.86151 248.14 5.82951 247.796 5.82951H246.332V8.58951H247.94ZM247.832 4.62951C248.48 4.62951 249.012 4.70551 249.428 4.85751C249.852 5.00951 250.184 5.20951 250.424 5.45751C250.672 5.69751 250.844 5.96551 250.94 6.26151C251.036 6.55751 251.084 6.84951 251.084 7.13751C251.084 7.69751 250.972 8.16551 250.748 8.54151C250.532 8.91751 250.18 9.22151 249.692 9.45351L251.468 13.1975H249.884L248.348 9.78951C248.276 9.79751 248.2 9.80551 248.12 9.81351C248.04 9.81351 247.956 9.81351 247.868 9.81351H246.332V13.1975H244.904V4.62951H247.832ZM257.531 5.76951C257.091 5.81751 256.771 5.94951 256.571 6.16551C256.379 6.37351 256.283 6.59751 256.283 6.83751V7.02951C256.299 7.36551 256.395 7.62951 256.571 7.82151C256.755 8.00551 257.075 8.14151 257.531 8.22951V5.76951ZM258.251 12.2735C258.707 12.2335 259.031 12.0975 259.223 11.8655C259.423 11.6335 259.523 11.3335 259.523 10.9655C259.523 10.8375 259.503 10.7095 259.463 10.5815C259.431 10.4455 259.367 10.3215 259.271 10.2095C259.175 10.0895 259.043 9.98551 258.875 9.89751C258.715 9.80951 258.507 9.74151 258.251 9.69351V12.2735ZM257.531 13.3775C257.059 13.3455 256.655 13.2575 256.319 13.1135C255.983 12.9695 255.703 12.7855 255.479 12.5615C255.255 12.3295 255.087 12.0615 254.975 11.7575C254.863 11.4455 254.799 11.1015 254.783 10.7255H256.127C256.167 11.2215 256.299 11.5895 256.523 11.8295C256.755 12.0615 257.091 12.2055 257.531 12.2615V9.56151C257.115 9.48951 256.747 9.39751 256.427 9.28551C256.115 9.16551 255.851 9.00951 255.635 8.81751C255.419 8.62551 255.251 8.39351 255.131 8.12151C255.011 7.84951 254.947 7.52551 254.939 7.14951C254.939 7.07751 254.939 7.00551 254.939 6.93351C254.947 6.86151 254.955 6.78951 254.963 6.71751C255.027 6.16551 255.275 5.70551 255.707 5.33751C256.147 4.96951 256.755 4.75751 257.531 4.70151V3.65751H258.251V4.70151C258.731 4.74151 259.127 4.83751 259.439 4.98951C259.759 5.14151 260.015 5.32551 260.207 5.54151C260.399 5.75751 260.539 5.99751 260.627 6.26151C260.723 6.51751 260.791 6.76951 260.831 7.01751L259.535 7.20951C259.439 6.77751 259.299 6.44551 259.115 6.21351C258.939 5.97351 258.651 5.82951 258.251 5.78151V8.37351L258.539 8.42151C259.339 8.57351 259.935 8.84551 260.327 9.23751C260.719 9.62151 260.915 10.1855 260.915 10.9295C260.915 11.2415 260.859 11.5415 260.747 11.8295C260.643 12.1095 260.483 12.3615 260.267 12.5855C260.051 12.8095 259.775 12.9935 259.439 13.1375C259.103 13.2815 258.707 13.3655 258.251 13.3895V14.5895H257.531V13.3775ZM265.089 12.2975C265.553 12.2975 265.933 12.1575 266.229 11.8775C266.525 11.5895 266.673 11.1615 266.673 10.5935C266.673 10.1055 266.557 9.70951 266.325 9.40551C266.101 9.09351 265.721 8.93751 265.185 8.93751C264.953 8.93751 264.737 8.97351 264.537 9.04551C264.337 9.10951 264.161 9.21351 264.009 9.35751C263.865 9.50151 263.753 9.68151 263.673 9.89751C263.593 10.1055 263.565 10.3535 263.589 10.6415C263.589 10.8575 263.621 11.0655 263.685 11.2655C263.749 11.4655 263.841 11.6415 263.961 11.7935C264.089 11.9455 264.245 12.0695 264.429 12.1655C264.613 12.2535 264.833 12.2975 265.089 12.2975ZM266.589 6.74151C266.533 6.60551 266.477 6.48951 266.421 6.39351C266.373 6.29751 266.313 6.21751 266.241 6.15351C266.169 6.08151 266.085 6.02551 265.989 5.98551C265.893 5.93751 265.777 5.90151 265.641 5.87751C265.481 5.84551 265.293 5.84151 265.077 5.86551C264.565 5.90551 264.177 6.16951 263.913 6.65751C263.649 7.14551 263.501 7.83751 263.469 8.73351C263.717 8.42951 264.005 8.20551 264.333 8.06151C264.669 7.91751 265.053 7.84151 265.485 7.83351C265.909 7.83351 266.277 7.89751 266.589 8.02551C266.909 8.15351 267.173 8.33751 267.381 8.57751C267.589 8.81751 267.745 9.10551 267.849 9.44151C267.953 9.77751 268.005 10.1535 268.005 10.5695C268.005 11.0335 267.929 11.4455 267.777 11.8055C267.625 12.1575 267.417 12.4535 267.153 12.6935C266.889 12.9335 266.581 13.1135 266.229 13.2335C265.877 13.3535 265.497 13.4135 265.089 13.4135C264.489 13.4135 263.997 13.2975 263.613 13.0655C263.237 12.8335 262.937 12.5335 262.713 12.1655C262.497 11.7975 262.345 11.3895 262.257 10.9415C262.177 10.4855 262.137 10.0375 262.137 9.59751C262.137 8.67751 262.221 7.90551 262.389 7.28151C262.557 6.64951 262.785 6.14151 263.073 5.75751C263.361 5.37351 263.697 5.09751 264.081 4.92951C264.473 4.76151 264.889 4.67751 265.329 4.67751C266.121 4.67751 266.713 4.84151 267.105 5.16951C267.505 5.49751 267.769 6.00151 267.897 6.68151L266.637 6.86151L266.589 6.74151ZM272.118 12.2135C272.43 12.2135 272.69 12.1415 272.898 11.9975C273.114 11.8455 273.286 11.6335 273.414 11.3615C273.55 11.0895 273.646 10.7575 273.702 10.3655C273.766 9.97351 273.798 9.53351 273.798 9.04551C273.798 8.56551 273.766 8.12951 273.702 7.73751C273.646 7.34551 273.55 7.01351 273.414 6.74151C273.286 6.46151 273.114 6.24951 272.898 6.10551C272.69 5.95351 272.43 5.87751 272.118 5.87751C271.806 5.87751 271.542 5.95351 271.326 6.10551C271.118 6.25751 270.95 6.47351 270.822 6.75351C270.694 7.02551 270.602 7.35751 270.546 7.74951C270.49 8.13351 270.462 8.56551 270.462 9.04551C270.462 10.0695 270.586 10.8535 270.834 11.3975C271.09 11.9415 271.518 12.2135 272.118 12.2135ZM272.106 13.4135C271.626 13.4135 271.194 13.3295 270.81 13.1615C270.434 12.9935 270.114 12.7335 269.85 12.3815C269.586 12.0215 269.382 11.5655 269.238 11.0135C269.102 10.4615 269.034 9.80551 269.034 9.04551C269.034 7.58151 269.302 6.48951 269.838 5.76951C270.382 5.04151 271.154 4.67751 272.154 4.67751C273.122 4.67751 273.874 5.03351 274.41 5.74551C274.954 6.44951 275.226 7.54951 275.226 9.04551C275.226 9.80551 275.154 10.4615 275.01 11.0135C274.874 11.5575 274.67 12.0095 274.398 12.3695C274.134 12.7215 273.806 12.9855 273.414 13.1615C273.03 13.3295 272.594 13.4135 272.106 13.4135Z" fill="white"/>
<path d="M41.384 4.62951V5.87751H37.364V8.30151H41.144V9.56151H37.364V13.1975H35.912V4.62951H41.384ZM45.8386 8.58951C46.1666 8.58951 46.4386 8.55751 46.6546 8.49351C46.8706 8.42151 47.0386 8.32551 47.1586 8.20551C47.2866 8.07751 47.3746 7.92551 47.4226 7.74951C47.4786 7.57351 47.5066 7.37751 47.5066 7.16151C47.5066 6.96151 47.4746 6.78151 47.4106 6.62151C47.3546 6.45351 47.2546 6.31351 47.1106 6.20151C46.9746 6.08151 46.7906 5.98951 46.5586 5.92551C46.3266 5.86151 46.0386 5.82951 45.6946 5.82951H44.2306V8.58951H45.8386ZM45.7306 4.62951C46.3786 4.62951 46.9106 4.70551 47.3266 4.85751C47.7506 5.00951 48.0826 5.20951 48.3226 5.45751C48.5706 5.69751 48.7426 5.96551 48.8386 6.26151C48.9346 6.55751 48.9826 6.84951 48.9826 7.13751C48.9826 7.69751 48.8706 8.16551 48.6466 8.54151C48.4306 8.91751 48.0786 9.22151 47.5906 9.45351L49.3666 13.1975H47.7826L46.2466 9.78951C46.1746 9.79751 46.0986 9.80551 46.0186 9.81351C45.9386 9.81351 45.8546 9.81351 45.7666 9.81351H44.2306V13.1975H42.8026V4.62951H45.7306ZM50.5136 4.62951H56.2136V5.87751H51.9656V8.15751H55.9736V9.41751H51.9656V11.9495H56.4416L56.2736 13.1975H50.5136V4.62951ZM57.8261 4.62951H63.5261V5.87751H59.2781V8.15751H63.2861V9.41751H59.2781V11.9495H63.7541L63.5861 13.1975H57.8261V4.62951ZM68.6295 10.5815C68.6935 11.1415 68.8935 11.5495 69.2295 11.8055C69.5735 12.0615 70.0815 12.1895 70.7535 12.1895C71.0815 12.1895 71.3575 12.1535 71.5815 12.0815C71.8055 12.0095 71.9855 11.9135 72.1215 11.7935C72.2575 11.6735 72.3535 11.5335 72.4095 11.3735C72.4655 11.2055 72.4935 11.0295 72.4935 10.8455C72.4935 10.7095 72.4735 10.5775 72.4335 10.4495C72.3935 10.3135 72.3215 10.1895 72.2175 10.0775C72.1135 9.96551 71.9735 9.86951 71.7975 9.78951C71.6215 9.70151 71.3975 9.63351 71.1255 9.58551L70.0335 9.38151C69.6015 9.30151 69.2175 9.20151 68.8815 9.08151C68.5455 8.96151 68.2615 8.80551 68.0295 8.61351C67.8055 8.41351 67.6335 8.17351 67.5135 7.89351C67.4015 7.60551 67.3455 7.25751 67.3455 6.84951C67.3455 6.44151 67.4255 6.08551 67.5855 5.78151C67.7535 5.47751 67.9815 5.22551 68.2695 5.02551C68.5575 4.81751 68.8975 4.66551 69.2895 4.56951C69.6895 4.46551 70.1215 4.41351 70.5855 4.41351C71.1775 4.41351 71.6735 4.48151 72.0735 4.61751C72.4735 4.75351 72.7975 4.93351 73.0455 5.15751C73.2935 5.37351 73.4815 5.62551 73.6095 5.91351C73.7375 6.20151 73.8255 6.50151 73.8735 6.81351L72.5055 7.02951C72.3935 6.54951 72.1975 6.19351 71.9175 5.96151C71.6455 5.72951 71.2095 5.61351 70.6095 5.61351C70.2655 5.61351 69.9775 5.64551 69.7455 5.70951C69.5215 5.76551 69.3375 5.84951 69.1935 5.96151C69.0575 6.06551 68.9575 6.18951 68.8935 6.33351C68.8375 6.46951 68.8095 6.61351 68.8095 6.76551C68.8095 7.14151 68.9095 7.42151 69.1095 7.60551C69.3175 7.78951 69.6775 7.93351 70.1895 8.03751L71.3775 8.26551C72.2815 8.43351 72.9455 8.72151 73.3695 9.12951C73.7935 9.52951 74.0055 10.1095 74.0055 10.8695C74.0055 11.2295 73.9375 11.5655 73.8015 11.8775C73.6735 12.1815 73.4735 12.4495 73.2015 12.6815C72.9295 12.9055 72.5895 13.0815 72.1815 13.2095C71.7815 13.3455 71.3135 13.4135 70.7775 13.4135C69.6815 13.4135 68.8215 13.1855 68.1975 12.7295C67.5735 12.2655 67.2295 11.5495 67.1655 10.5815H68.6295ZM75.4042 4.62951H76.8562V8.09751H80.7082V4.62951H82.1602V13.1975H80.7082V9.44151H76.8562V13.1975H75.4042V4.62951ZM83.9823 4.62951H85.4343V13.1975H83.9823V4.62951ZM87.2518 4.62951H90.2158C90.8638 4.62951 91.3958 4.70151 91.8118 4.84551C92.2358 4.98951 92.5678 5.18151 92.8078 5.42151C93.0478 5.66151 93.2158 5.94151 93.3118 6.26151C93.4078 6.57351 93.4558 6.90151 93.4558 7.24551C93.4558 7.61351 93.4078 7.96551 93.3118 8.30151C93.2158 8.63751 93.0438 8.93351 92.7958 9.18951C92.5558 9.43751 92.2278 9.63751 91.8118 9.78951C91.3958 9.93351 90.8718 10.0055 90.2398 10.0055H88.6798V13.1975H87.2518V4.62951ZM90.2038 8.79351C90.5718 8.79351 90.8718 8.75751 91.1038 8.68551C91.3438 8.61351 91.5318 8.51351 91.6678 8.38551C91.8038 8.24951 91.8958 8.08951 91.9438 7.90551C91.9998 7.72151 92.0278 7.51351 92.0278 7.28151C92.0278 7.04151 91.9998 6.83351 91.9438 6.65751C91.8878 6.47351 91.7878 6.32151 91.6438 6.20151C91.5078 6.08151 91.3198 5.98951 91.0798 5.92551C90.8478 5.86151 90.5518 5.82951 90.1918 5.82951H88.6798V8.79351H90.2038ZM94.8456 4.62951H97.8096C98.4576 4.62951 98.9896 4.70151 99.4056 4.84551C99.8296 4.98951 100.162 5.18151 100.402 5.42151C100.642 5.66151 100.81 5.94151 100.906 6.26151C101.002 6.57351 101.05 6.90151 101.05 7.24551C101.05 7.61351 101.002 7.96551 100.906 8.30151C100.81 8.63751 100.638 8.93351 100.39 9.18951C100.15 9.43751 99.8216 9.63751 99.4056 9.78951C98.9896 9.93351 98.4656 10.0055 97.8336 10.0055H96.2736V13.1975H94.8456V4.62951ZM97.7976 8.79351C98.1656 8.79351 98.4656 8.75751 98.6976 8.68551C98.9376 8.61351 99.1256 8.51351 99.2616 8.38551C99.3976 8.24951 99.4896 8.08951 99.5376 7.90551C99.5936 7.72151 99.6216 7.51351 99.6216 7.28151C99.6216 7.04151 99.5936 6.83351 99.5376 6.65751C99.4816 6.47351 99.3816 6.32151 99.2376 6.20151C99.1016 6.08151 98.9136 5.98951 98.6736 5.92551C98.4416 5.86151 98.1456 5.82951 97.7856 5.82951H96.2736V8.79351H97.7976ZM102.439 4.62951H103.891V13.1975H102.439V4.62951ZM105.709 4.62951H107.053L110.989 10.8215V4.62951H112.405V13.1975H111.061L107.113 7.02951V13.1975H105.709V4.62951ZM121.32 8.64951V12.1775C120.88 12.5855 120.36 12.8935 119.76 13.1015C119.16 13.3095 118.556 13.4135 117.948 13.4135C117.284 13.4135 116.7 13.3095 116.196 13.1015C115.7 12.8855 115.284 12.5855 114.948 12.2015C114.612 11.8095 114.36 11.3375 114.192 10.7855C114.024 10.2335 113.94 9.61351 113.94 8.92551C113.94 8.22951 114.032 7.60551 114.216 7.05351C114.4 6.49351 114.66 6.01751 114.996 5.62551C115.332 5.23351 115.74 4.93351 116.22 4.72551C116.7 4.51751 117.236 4.41351 117.828 4.41351C118.348 4.41351 118.8 4.48151 119.184 4.61751C119.576 4.74551 119.904 4.92551 120.168 5.15751C120.44 5.38951 120.656 5.66151 120.816 5.97351C120.984 6.27751 121.104 6.60551 121.176 6.95751L119.748 7.16151C119.684 6.92151 119.604 6.70951 119.508 6.52551C119.42 6.33351 119.3 6.17351 119.148 6.04551C119.004 5.91751 118.824 5.82151 118.608 5.75751C118.392 5.68551 118.132 5.64951 117.828 5.64951C117.428 5.64951 117.076 5.72951 116.772 5.88951C116.476 6.04151 116.228 6.26151 116.028 6.54951C115.828 6.83751 115.68 7.18151 115.584 7.58151C115.488 7.98151 115.44 8.42551 115.44 8.91351C115.44 9.41751 115.488 9.86951 115.584 10.2695C115.68 10.6695 115.832 11.0135 116.04 11.3015C116.248 11.5815 116.508 11.7975 116.82 11.9495C117.14 12.1015 117.524 12.1775 117.972 12.1775C118.372 12.1775 118.732 12.1375 119.052 12.0575C119.372 11.9695 119.68 11.8215 119.976 11.6135V9.87351H118.08V8.64951H121.32ZM129.281 13.4135C128.665 13.4135 128.109 13.3135 127.613 13.1135C127.125 12.9055 126.705 12.6095 126.353 12.2255C126.001 11.8415 125.729 11.3735 125.537 10.8215C125.353 10.2615 125.261 9.62951 125.261 8.92551C125.261 8.22151 125.357 7.58951 125.549 7.02951C125.741 6.46951 126.013 5.99751 126.365 5.61351C126.717 5.22151 127.141 4.92551 127.637 4.72551C128.133 4.51751 128.681 4.41351 129.281 4.41351C129.889 4.41351 130.441 4.51751 130.937 4.72551C131.433 4.92551 131.853 5.21751 132.197 5.60151C132.541 5.98551 132.805 6.45751 132.989 7.01751C133.181 7.56951 133.277 8.19751 133.277 8.90151C133.277 9.61351 133.185 10.2495 133.001 10.8095C132.817 11.3615 132.553 11.8335 132.209 12.2255C131.865 12.6095 131.445 12.9055 130.949 13.1135C130.461 13.3135 129.905 13.4135 129.281 13.4135ZM129.269 12.1655C130.093 12.1655 130.717 11.8775 131.141 11.3015C131.565 10.7175 131.777 9.92151 131.777 8.91351C131.777 8.40951 131.721 7.95751 131.609 7.55751C131.505 7.15751 131.349 6.81751 131.141 6.53751C130.933 6.25751 130.673 6.04151 130.361 5.88951C130.049 5.73751 129.685 5.66151 129.269 5.66151C128.853 5.66151 128.489 5.73751 128.177 5.88951C127.865 6.04151 127.601 6.25751 127.385 6.53751C127.177 6.81751 127.021 7.15751 126.917 7.55751C126.813 7.95751 126.761 8.40951 126.761 8.91351C126.761 9.92151 126.969 10.7175 127.385 11.3015C127.809 11.8775 128.437 12.1655 129.269 12.1655ZM134.818 4.62951H136.162L140.098 10.8215V4.62951H141.514V13.1975H140.17L136.222 7.02951V13.1975H134.818V4.62951ZM147.318 4.62951V9.76551C147.318 10.5735 147.462 11.1775 147.75 11.5775C148.046 11.9695 148.542 12.1655 149.238 12.1655C149.926 12.1655 150.41 11.9695 150.69 11.5775C150.978 11.1775 151.122 10.5735 151.122 9.76551V4.62951H152.574V9.76551C152.574 10.4295 152.494 10.9935 152.334 11.4575C152.174 11.9135 151.946 12.2895 151.65 12.5855C151.354 12.8735 151.002 13.0815 150.594 13.2095C150.186 13.3455 149.73 13.4135 149.226 13.4135C148.13 13.4135 147.298 13.1215 146.73 12.5375C146.162 11.9455 145.878 11.0095 145.878 9.72951V4.62951H147.318ZM154.944 11.5295V13.1975H153.492V11.5295H154.944ZM157.34 10.5815C157.404 11.1415 157.604 11.5495 157.94 11.8055C158.284 12.0615 158.792 12.1895 159.464 12.1895C159.792 12.1895 160.068 12.1535 160.292 12.0815C160.516 12.0095 160.696 11.9135 160.832 11.7935C160.968 11.6735 161.064 11.5335 161.12 11.3735C161.176 11.2055 161.204 11.0295 161.204 10.8455C161.204 10.7095 161.184 10.5775 161.144 10.4495C161.104 10.3135 161.032 10.1895 160.928 10.0775C160.824 9.96551 160.684 9.86951 160.508 9.78951C160.332 9.70151 160.108 9.63351 159.836 9.58551L158.744 9.38151C158.312 9.30151 157.928 9.20151 157.592 9.08151C157.256 8.96151 156.972 8.80551 156.74 8.61351C156.516 8.41351 156.344 8.17351 156.224 7.89351C156.112 7.60551 156.056 7.25751 156.056 6.84951C156.056 6.44151 156.136 6.08551 156.296 5.78151C156.464 5.47751 156.692 5.22551 156.98 5.02551C157.268 4.81751 157.608 4.66551 158 4.56951C158.4 4.46551 158.832 4.41351 159.296 4.41351C159.888 4.41351 160.384 4.48151 160.784 4.61751C161.184 4.75351 161.508 4.93351 161.756 5.15751C162.004 5.37351 162.192 5.62551 162.32 5.91351C162.448 6.20151 162.536 6.50151 162.584 6.81351L161.216 7.02951C161.104 6.54951 160.908 6.19351 160.628 5.96151C160.356 5.72951 159.92 5.61351 159.32 5.61351C158.976 5.61351 158.688 5.64551 158.456 5.70951C158.232 5.76551 158.048 5.84951 157.904 5.96151C157.768 6.06551 157.668 6.18951 157.604 6.33351C157.548 6.46951 157.52 6.61351 157.52 6.76551C157.52 7.14151 157.62 7.42151 157.82 7.60551C158.028 7.78951 158.388 7.93351 158.9 8.03751L160.088 8.26551C160.992 8.43351 161.656 8.72151 162.08 9.12951C162.504 9.52951 162.716 10.1095 162.716 10.8695C162.716 11.2295 162.648 11.5655 162.512 11.8775C162.384 12.1815 162.184 12.4495 161.912 12.6815C161.64 12.9055 161.3 13.0815 160.892 13.2095C160.492 13.3455 160.024 13.4135 159.488 13.4135C158.392 13.4135 157.532 13.1855 156.908 12.7295C156.284 12.2655 155.94 11.5495 155.876 10.5815H157.34ZM165.315 11.5295V13.1975H163.863V11.5295H165.315ZM173.296 13.4135C172.68 13.4135 172.124 13.3135 171.628 13.1135C171.14 12.9055 170.72 12.6095 170.368 12.2255C170.016 11.8415 169.744 11.3735 169.552 10.8215C169.368 10.2615 169.276 9.62951 169.276 8.92551C169.276 8.22151 169.372 7.58951 169.564 7.02951C169.756 6.46951 170.028 5.99751 170.38 5.61351C170.732 5.22151 171.156 4.92551 171.652 4.72551C172.148 4.51751 172.696 4.41351 173.296 4.41351C173.904 4.41351 174.456 4.51751 174.952 4.72551C175.448 4.92551 175.868 5.21751 176.212 5.60151C176.556 5.98551 176.82 6.45751 177.004 7.01751C177.196 7.56951 177.292 8.19751 177.292 8.90151C177.292 9.61351 177.2 10.2495 177.016 10.8095C176.832 11.3615 176.568 11.8335 176.224 12.2255C175.88 12.6095 175.46 12.9055 174.964 13.1135C174.476 13.3135 173.92 13.4135 173.296 13.4135ZM173.284 12.1655C174.108 12.1655 174.732 11.8775 175.156 11.3015C175.58 10.7175 175.792 9.92151 175.792 8.91351C175.792 8.40951 175.736 7.95751 175.624 7.55751C175.52 7.15751 175.364 6.81751 175.156 6.53751C174.948 6.25751 174.688 6.04151 174.376 5.88951C174.064 5.73751 173.7 5.66151 173.284 5.66151C172.868 5.66151 172.504 5.73751 172.192 5.88951C171.88 6.04151 171.616 6.25751 171.4 6.53751C171.192 6.81751 171.036 7.15751 170.932 7.55751C170.828 7.95751 170.776 8.40951 170.776 8.91351C170.776 9.92151 170.984 10.7175 171.4 11.3015C171.824 11.8775 172.452 12.1655 173.284 12.1655ZM181.87 8.58951C182.198 8.58951 182.47 8.55751 182.686 8.49351C182.902 8.42151 183.07 8.32551 183.19 8.20551C183.318 8.07751 183.406 7.92551 183.454 7.74951C183.51 7.57351 183.538 7.37751 183.538 7.16151C183.538 6.96151 183.506 6.78151 183.442 6.62151C183.386 6.45351 183.286 6.31351 183.142 6.20151C183.006 6.08151 182.822 5.98951 182.59 5.92551C182.358 5.86151 182.07 5.82951 181.726 5.82951H180.262V8.58951H181.87ZM181.762 4.62951C182.41 4.62951 182.942 4.70551 183.358 4.85751C183.782 5.00951 184.114 5.20951 184.354 5.45751C184.602 5.69751 184.774 5.96551 184.87 6.26151C184.966 6.55751 185.014 6.84951 185.014 7.13751C185.014 7.69751 184.902 8.16551 184.678 8.54151C184.462 8.91751 184.11 9.22151 183.622 9.45351L185.398 13.1975H183.814L182.278 9.78951C182.206 9.79751 182.13 9.80551 182.05 9.81351C181.97 9.81351 181.886 9.81351 181.798 9.81351H180.262V13.1975H178.834V4.62951H181.762ZM189.401 11.9615C189.905 11.9615 190.333 11.8895 190.685 11.7455C191.045 11.6015 191.337 11.3935 191.561 11.1215C191.793 10.8495 191.961 10.5255 192.065 10.1495C192.169 9.77351 192.221 9.34951 192.221 8.87751C192.221 7.93351 192.021 7.19751 191.621 6.66951C191.221 6.13351 190.565 5.86551 189.653 5.86551H187.997V11.9615H189.401ZM189.641 4.62951C190.273 4.62951 190.841 4.71751 191.345 4.89351C191.849 5.06151 192.277 5.32151 192.629 5.67351C192.981 6.02551 193.249 6.46951 193.433 7.00551C193.625 7.53351 193.721 8.15351 193.721 8.86551C193.721 9.57751 193.621 10.2055 193.421 10.7495C193.221 11.2855 192.933 11.7375 192.557 12.1055C192.181 12.4655 191.721 12.7375 191.177 12.9215C190.641 13.1055 190.033 13.1975 189.353 13.1975H186.545V4.62951H189.641ZM195.252 4.62951H200.952V5.87751H196.704V8.15751H200.712V9.41751H196.704V11.9495H201.18L201.012 13.1975H195.252V4.62951ZM205.6 8.58951C205.928 8.58951 206.2 8.55751 206.416 8.49351C206.632 8.42151 206.8 8.32551 206.92 8.20551C207.048 8.07751 207.136 7.92551 207.184 7.74951C207.24 7.57351 207.268 7.37751 207.268 7.16151C207.268 6.96151 207.236 6.78151 207.172 6.62151C207.116 6.45351 207.016 6.31351 206.872 6.20151C206.736 6.08151 206.552 5.98951 206.32 5.92551C206.088 5.86151 205.8 5.82951 205.456 5.82951H203.992V8.58951H205.6ZM205.492 4.62951C206.14 4.62951 206.672 4.70551 207.088 4.85751C207.512 5.00951 207.844 5.20951 208.084 5.45751C208.332 5.69751 208.504 5.96551 208.6 6.26151C208.696 6.55751 208.744 6.84951 208.744 7.13751C208.744 7.69751 208.632 8.16551 208.408 8.54151C208.192 8.91751 207.84 9.22151 207.352 9.45351L209.128 13.1975H207.544L206.008 9.78951C205.936 9.79751 205.86 9.80551 205.78 9.81351C205.7 9.81351 205.616 9.81351 205.528 9.81351H203.992V13.1975H202.564V4.62951H205.492ZM211.223 10.5815C211.287 11.1415 211.487 11.5495 211.823 11.8055C212.167 12.0615 212.675 12.1895 213.347 12.1895C213.675 12.1895 213.951 12.1535 214.175 12.0815C214.399 12.0095 214.579 11.9135 214.715 11.7935C214.851 11.6735 214.947 11.5335 215.003 11.3735C215.059 11.2055 215.087 11.0295 215.087 10.8455C215.087 10.7095 215.067 10.5775 215.027 10.4495C214.987 10.3135 214.915 10.1895 214.811 10.0775C214.707 9.96551 214.567 9.86951 214.391 9.78951C214.215 9.70151 213.991 9.63351 213.719 9.58551L212.627 9.38151C212.195 9.30151 211.811 9.20151 211.475 9.08151C211.139 8.96151 210.855 8.80551 210.623 8.61351C210.399 8.41351 210.227 8.17351 210.107 7.89351C209.995 7.60551 209.939 7.25751 209.939 6.84951C209.939 6.44151 210.019 6.08551 210.179 5.78151C210.347 5.47751 210.575 5.22551 210.863 5.02551C211.151 4.81751 211.491 4.66551 211.883 4.56951C212.283 4.46551 212.715 4.41351 213.179 4.41351C213.771 4.41351 214.267 4.48151 214.667 4.61751C215.067 4.75351 215.391 4.93351 215.639 5.15751C215.887 5.37351 216.075 5.62551 216.203 5.91351C216.331 6.20151 216.419 6.50151 216.467 6.81351L215.099 7.02951C214.987 6.54951 214.791 6.19351 214.511 5.96151C214.239 5.72951 213.803 5.61351 213.203 5.61351C212.859 5.61351 212.571 5.64551 212.339 5.70951C212.115 5.76551 211.931 5.84951 211.787 5.96151C211.651 6.06551 211.551 6.18951 211.487 6.33351C211.431 6.46951 211.403 6.61351 211.403 6.76551C211.403 7.14151 211.503 7.42151 211.703 7.60551C211.911 7.78951 212.271 7.93351 212.783 8.03751L213.971 8.26551C214.875 8.43351 215.539 8.72151 215.963 9.12951C216.387 9.52951 216.599 10.1095 216.599 10.8695C216.599 11.2295 216.531 11.5655 216.395 11.8775C216.267 12.1815 216.067 12.4495 215.795 12.6815C215.523 12.9055 215.183 13.0815 214.775 13.2095C214.375 13.3455 213.907 13.4135 213.371 13.4135C212.275 13.4135 211.415 13.1855 210.791 12.7295C210.167 12.2655 209.823 11.5495 209.759 10.5815H211.223ZM224.402 13.4135C223.786 13.4135 223.23 13.3135 222.734 13.1135C222.246 12.9055 221.826 12.6095 221.474 12.2255C221.122 11.8415 220.85 11.3735 220.658 10.8215C220.474 10.2615 220.382 9.62951 220.382 8.92551C220.382 8.22151 220.478 7.58951 220.67 7.02951C220.862 6.46951 221.134 5.99751 221.486 5.61351C221.838 5.22151 222.262 4.92551 222.758 4.72551C223.254 4.51751 223.802 4.41351 224.402 4.41351C225.01 4.41351 225.562 4.51751 226.058 4.72551C226.554 4.92551 226.974 5.21751 227.318 5.60151C227.662 5.98551 227.926 6.45751 228.11 7.01751C228.302 7.56951 228.398 8.19751 228.398 8.90151C228.398 9.61351 228.306 10.2495 228.122 10.8095C227.938 11.3615 227.674 11.8335 227.33 12.2255C226.986 12.6095 226.566 12.9055 226.07 13.1135C225.582 13.3135 225.026 13.4135 224.402 13.4135ZM224.39 12.1655C225.214 12.1655 225.838 11.8775 226.262 11.3015C226.686 10.7175 226.898 9.92151 226.898 8.91351C226.898 8.40951 226.842 7.95751 226.73 7.55751C226.626 7.15751 226.47 6.81751 226.262 6.53751C226.054 6.25751 225.794 6.04151 225.482 5.88951C225.17 5.73751 224.806 5.66151 224.39 5.66151C223.974 5.66151 223.61 5.73751 223.298 5.88951C222.986 6.04151 222.722 6.25751 222.506 6.53751C222.298 6.81751 222.142 7.15751 222.038 7.55751C221.934 7.95751 221.882 8.40951 221.882 8.91351C221.882 9.92151 222.09 10.7175 222.506 11.3015C222.93 11.8775 223.558 12.1655 224.39 12.1655ZM230.252 4.62951L232.604 11.2295L234.992 4.62951H236.54L233.288 13.1975H231.896L228.632 4.62951H230.252ZM237.592 4.62951H243.292V5.87751H239.044V8.15751H243.052V9.41751H239.044V11.9495H243.52L243.352 13.1975H237.592V4.62951ZM247.94 8.58951C248.268 8.58951 248.54 8.55751 248.756 8.49351C248.972 8.42151 249.14 8.32551 249.26 8.20551C249.388 8.07751 249.476 7.92551 249.524 7.74951C249.58 7.57351 249.608 7.37751 249.608 7.16151C249.608 6.96151 249.576 6.78151 249.512 6.62151C249.456 6.45351 249.356 6.31351 249.212 6.20151C249.076 6.08151 248.892 5.98951 248.66 5.92551C248.428 5.86151 248.14 5.82951 247.796 5.82951H246.332V8.58951H247.94ZM247.832 4.62951C248.48 4.62951 249.012 4.70551 249.428 4.85751C249.852 5.00951 250.184 5.20951 250.424 5.45751C250.672 5.69751 250.844 5.96551 250.94 6.26151C251.036 6.55751 251.084 6.84951 251.084 7.13751C251.084 7.69751 250.972 8.16551 250.748 8.54151C250.532 8.91751 250.18 9.22151 249.692 9.45351L251.468 13.1975H249.884L248.348 9.78951C248.276 9.79751 248.2 9.80551 248.12 9.81351C248.04 9.81351 247.956 9.81351 247.868 9.81351H246.332V13.1975H244.904V4.62951H247.832ZM257.531 5.76951C257.091 5.81751 256.771 5.94951 256.571 6.16551C256.379 6.37351 256.283 6.59751 256.283 6.83751V7.02951C256.299 7.36551 256.395 7.62951 256.571 7.82151C256.755 8.00551 257.075 8.14151 257.531 8.22951V5.76951ZM258.251 12.2735C258.707 12.2335 259.031 12.0975 259.223 11.8655C259.423 11.6335 259.523 11.3335 259.523 10.9655C259.523 10.8375 259.503 10.7095 259.463 10.5815C259.431 10.4455 259.367 10.3215 259.271 10.2095C259.175 10.0895 259.043 9.98551 258.875 9.89751C258.715 9.80951 258.507 9.74151 258.251 9.69351V12.2735ZM257.531 13.3775C257.059 13.3455 256.655 13.2575 256.319 13.1135C255.983 12.9695 255.703 12.7855 255.479 12.5615C255.255 12.3295 255.087 12.0615 254.975 11.7575C254.863 11.4455 254.799 11.1015 254.783 10.7255H256.127C256.167 11.2215 256.299 11.5895 256.523 11.8295C256.755 12.0615 257.091 12.2055 257.531 12.2615V9.56151C257.115 9.48951 256.747 9.39751 256.427 9.28551C256.115 9.16551 255.851 9.00951 255.635 8.81751C255.419 8.62551 255.251 8.39351 255.131 8.12151C255.011 7.84951 254.947 7.52551 254.939 7.14951C254.939 7.07751 254.939 7.00551 254.939 6.93351C254.947 6.86151 254.955 6.78951 254.963 6.71751C255.027 6.16551 255.275 5.70551 255.707 5.33751C256.147 4.96951 256.755 4.75751 257.531 4.70151V3.65751H258.251V4.70151C258.731 4.74151 259.127 4.83751 259.439 4.98951C259.759 5.14151 260.015 5.32551 260.207 5.54151C260.399 5.75751 260.539 5.99751 260.627 6.26151C260.723 6.51751 260.791 6.76951 260.831 7.01751L259.535 7.20951C259.439 6.77751 259.299 6.44551 259.115 6.21351C258.939 5.97351 258.651 5.82951 258.251 5.78151V8.37351L258.539 8.42151C259.339 8.57351 259.935 8.84551 260.327 9.23751C260.719 9.62151 260.915 10.1855 260.915 10.9295C260.915 11.2415 260.859 11.5415 260.747 11.8295C260.643 12.1095 260.483 12.3615 260.267 12.5855C260.051 12.8095 259.775 12.9935 259.439 13.1375C259.103 13.2815 258.707 13.3655 258.251 13.3895V14.5895H257.531V13.3775ZM265.089 12.2975C265.553 12.2975 265.933 12.1575 266.229 11.8775C266.525 11.5895 266.673 11.1615 266.673 10.5935C266.673 10.1055 266.557 9.70951 266.325 9.40551C266.101 9.09351 265.721 8.93751 265.185 8.93751C264.953 8.93751 264.737 8.97351 264.537 9.04551C264.337 9.10951 264.161 9.21351 264.009 9.35751C263.865 9.50151 263.753 9.68151 263.673 9.89751C263.593 10.1055 263.565 10.3535 263.589 10.6415C263.589 10.8575 263.621 11.0655 263.685 11.2655C263.749 11.4655 263.841 11.6415 263.961 11.7935C264.089 11.9455 264.245 12.0695 264.429 12.1655C264.613 12.2535 264.833 12.2975 265.089 12.2975ZM266.589 6.74151C266.533 6.60551 266.477 6.48951 266.421 6.39351C266.373 6.29751 266.313 6.21751 266.241 6.15351C266.169 6.08151 266.085 6.02551 265.989 5.98551C265.893 5.93751 265.777 5.90151 265.641 5.87751C265.481 5.84551 265.293 5.84151 265.077 5.86551C264.565 5.90551 264.177 6.16951 263.913 6.65751C263.649 7.14551 263.501 7.83751 263.469 8.73351C263.717 8.42951 264.005 8.20551 264.333 8.06151C264.669 7.91751 265.053 7.84151 265.485 7.83351C265.909 7.83351 266.277 7.89751 266.589 8.02551C266.909 8.15351 267.173 8.33751 267.381 8.57751C267.589 8.81751 267.745 9.10551 267.849 9.44151C267.953 9.77751 268.005 10.1535 268.005 10.5695C268.005 11.0335 267.929 11.4455 267.777 11.8055C267.625 12.1575 267.417 12.4535 267.153 12.6935C266.889 12.9335 266.581 13.1135 266.229 13.2335C265.877 13.3535 265.497 13.4135 265.089 13.4135C264.489 13.4135 263.997 13.2975 263.613 13.0655C263.237 12.8335 262.937 12.5335 262.713 12.1655C262.497 11.7975 262.345 11.3895 262.257 10.9415C262.177 10.4855 262.137 10.0375 262.137 9.59751C262.137 8.67751 262.221 7.90551 262.389 7.28151C262.557 6.64951 262.785 6.14151 263.073 5.75751C263.361 5.37351 263.697 5.09751 264.081 4.92951C264.473 4.76151 264.889 4.67751 265.329 4.67751C266.121 4.67751 266.713 4.84151 267.105 5.16951C267.505 5.49751 267.769 6.00151 267.897 6.68151L266.637 6.86151L266.589 6.74151ZM272.118 12.2135C272.43 12.2135 272.69 12.1415 272.898 11.9975C273.114 11.8455 273.286 11.6335 273.414 11.3615C273.55 11.0895 273.646 10.7575 273.702 10.3655C273.766 9.97351 273.798 9.53351 273.798 9.04551C273.798 8.56551 273.766 8.12951 273.702 7.73751C273.646 7.34551 273.55 7.01351 273.414 6.74151C273.286 6.46151 273.114 6.24951 272.898 6.10551C272.69 5.95351 272.43 5.87751 272.118 5.87751C271.806 5.87751 271.542 5.95351 271.326 6.10551C271.118 6.25751 270.95 6.47351 270.822 6.75351C270.694 7.02551 270.602 7.35751 270.546 7.74951C270.49 8.13351 270.462 8.56551 270.462 9.04551C270.462 10.0695 270.586 10.8535 270.834 11.3975C271.09 11.9415 271.518 12.2135 272.118 12.2135ZM272.106 13.4135C271.626 13.4135 271.194 13.3295 270.81 13.1615C270.434 12.9935 270.114 12.7335 269.85 12.3815C269.586 12.0215 269.382 11.5655 269.238 11.0135C269.102 10.4615 269.034 9.80551 269.034 9.04551C269.034 7.58151 269.302 6.48951 269.838 5.76951C270.382 5.04151 271.154 4.67751 272.154 4.67751C273.122 4.67751 273.874 5.03351 274.41 5.74551C274.954 6.44951 275.226 7.54951 275.226 9.04551C275.226 9.80551 275.154 10.4615 275.01 11.0135C274.874 11.5575 274.67 12.0095 274.398 12.3695C274.134 12.7215 273.806 12.9855 273.414 13.1615C273.03 13.3295 272.594 13.4135 272.106 13.4135Z" fill="black" fill-opacity="0.6"/>
<g clip-path="url(#clip1_6_2843)">
<path d="M4.54548 38.8794V42.5158M15.4546 38.8794V42.5158M0.909119 37.2431V44.1522C0.909119 45.1704 0.909119 45.6796 1.10729 46.0685C1.2816 46.4106 1.55975 46.6888 1.90186 46.8631C2.29079 47.0613 2.79993 47.0613 3.81821 47.0613H16.1818C17.2001 47.0613 17.7093 47.0613 18.0982 46.8631C18.4403 46.6888 18.7185 46.4106 18.8928 46.0685C19.0909 45.6796 19.0909 45.1704 19.0909 44.1522V37.2431C19.0909 36.2248 19.0909 35.7157 18.8928 35.3267C18.7185 34.9846 18.4403 34.7065 18.0982 34.5322C17.7093 34.334 17.2001 34.334 16.1818 34.334H3.81821C2.79994 34.334 2.29079 34.334 1.90186 34.5322C1.55976 34.7065 1.2816 34.9846 1.10729 35.3267C0.909119 35.7157 0.909119 36.2248 0.909119 37.2431ZM12.2728 40.6976C12.2728 41.9528 11.2552 42.9703 10 42.9703C8.74485 42.9703 7.7273 41.9528 7.7273 40.6976C7.7273 39.4424 8.74485 38.4249 10 38.4249C11.2552 38.4249 12.2728 39.4424 12.2728 40.6976Z" stroke="white" stroke-width="1.36364" stroke-linecap="round" stroke-linejoin="round"/>
<path d="M4.54548 38.8794V42.5158M15.4546 38.8794V42.5158M0.909119 37.2431V44.1522C0.909119 45.1704 0.909119 45.6796 1.10729 46.0685C1.2816 46.4106 1.55975 46.6888 1.90186 46.8631C2.29079 47.0613 2.79993 47.0613 3.81821 47.0613H16.1818C17.2001 47.0613 17.7093 47.0613 18.0982 46.8631C18.4403 46.6888 18.7185 46.4106 18.8928 46.0685C19.0909 45.6796 19.0909 45.1704 19.0909 44.1522V37.2431C19.0909 36.2248 19.0909 35.7157 18.8928 35.3267C18.7185 34.9846 18.4403 34.7065 18.0982 34.5322C17.7093 34.334 17.2001 34.334 16.1818 34.334H3.81821C2.79994 34.334 2.29079 34.334 1.90186 34.5322C1.55976 34.7065 1.2816 34.9846 1.10729 35.3267C0.909119 35.7157 0.909119 36.2248 0.909119 37.2431ZM12.2728 40.6976C12.2728 41.9528 11.2552 42.9703 10 42.9703C8.74485 42.9703 7.7273 41.9528 7.7273 40.6976C7.7273 39.4424 8.74485 38.4249 10 38.4249C11.2552 38.4249 12.2728 39.4424 12.2728 40.6976Z" stroke="black" stroke-opacity="0.6" stroke-width="1.36364" stroke-linecap="round" stroke-linejoin="round"/>
</g>
<path d="M38.612 42.2975C39.076 42.2975 39.456 42.1575 39.752 41.8775C40.048 41.5895 40.196 41.1615 40.196 40.5935C40.196 40.1055 40.08 39.7095 39.848 39.4055C39.624 39.0935 39.244 38.9375 38.708 38.9375C38.476 38.9375 38.26 38.9735 38.06 39.0455C37.86 39.1095 37.684 39.2135 37.532 39.3575C37.388 39.5015 37.276 39.6815 37.196 39.8975C37.116 40.1055 37.088 40.3535 37.112 40.6415C37.112 40.8575 37.144 41.0655 37.208 41.2655C37.272 41.4655 37.364 41.6415 37.484 41.7935C37.612 41.9455 37.768 42.0695 37.952 42.1655C38.136 42.2535 38.356 42.2975 38.612 42.2975ZM40.112 36.7415C40.056 36.6055 40 36.4895 39.944 36.3935C39.896 36.2975 39.836 36.2175 39.764 36.1535C39.692 36.0815 39.608 36.0255 39.512 35.9855C39.416 35.9375 39.3 35.9015 39.164 35.8775C39.004 35.8455 38.816 35.8415 38.6 35.8655C38.088 35.9055 37.7 36.1695 37.436 36.6575C37.172 37.1455 37.024 37.8375 36.992 38.7335C37.24 38.4295 37.528 38.2055 37.856 38.0615C38.192 37.9175 38.576 37.8415 39.008 37.8335C39.432 37.8335 39.8 37.8975 40.112 38.0255C40.432 38.1535 40.696 38.3375 40.904 38.5775C41.112 38.8175 41.268 39.1055 41.372 39.4415C41.476 39.7775 41.528 40.1535 41.528 40.5695C41.528 41.0335 41.452 41.4455 41.3 41.8055C41.148 42.1575 40.94 42.4535 40.676 42.6935C40.412 42.9335 40.104 43.1135 39.752 43.2335C39.4 43.3535 39.02 43.4135 38.612 43.4135C38.012 43.4135 37.52 43.2975 37.136 43.0655C36.76 42.8335 36.46 42.5335 36.236 42.1655C36.02 41.7975 35.868 41.3895 35.78 40.9415C35.7 40.4855 35.66 40.0375 35.66 39.5975C35.66 38.6775 35.744 37.9055 35.912 37.2815C36.08 36.6495 36.308 36.1415 36.596 35.7575C36.884 35.3735 37.22 35.0975 37.604 34.9295C37.996 34.7615 38.412 34.6775 38.852 34.6775C39.644 34.6775 40.236 34.8415 40.628 35.1695C41.028 35.4975 41.292 36.0015 41.42 36.6815L40.16 36.8615L40.112 36.7415ZM45.6416 42.2135C45.9536 42.2135 46.2136 42.1415 46.4216 41.9975C46.6376 41.8455 46.8096 41.6335 46.9376 41.3615C47.0736 41.0895 47.1696 40.7575 47.2256 40.3655C47.2896 39.9735 47.3216 39.5335 47.3216 39.0455C47.3216 38.5655 47.2896 38.1295 47.2256 37.7375C47.1696 37.3455 47.0736 37.0135 46.9376 36.7415C46.8096 36.4615 46.6376 36.2495 46.4216 36.1055C46.2136 35.9535 45.9536 35.8775 45.6416 35.8775C45.3296 35.8775 45.0656 35.9535 44.8496 36.1055C44.6416 36.2575 44.4736 36.4735 44.3456 36.7535C44.2176 37.0255 44.1256 37.3575 44.0696 37.7495C44.0136 38.1335 43.9856 38.5655 43.9856 39.0455C43.9856 40.0695 44.1096 40.8535 44.3576 41.3975C44.6136 41.9415 45.0416 42.2135 45.6416 42.2135ZM45.6296 43.4135C45.1496 43.4135 44.7176 43.3295 44.3336 43.1615C43.9576 42.9935 43.6376 42.7335 43.3736 42.3815C43.1096 42.0215 42.9056 41.5655 42.7616 41.0135C42.6256 40.4615 42.5576 39.8055 42.5576 39.0455C42.5576 37.5815 42.8256 36.4895 43.3616 35.7695C43.9056 35.0415 44.6776 34.6775 45.6776 34.6775C46.6456 34.6775 47.3976 35.0335 47.9336 35.7455C48.4776 36.4495 48.7496 37.5495 48.7496 39.0455C48.7496 39.8055 48.6776 40.4615 48.5336 41.0135C48.3976 41.5575 48.1936 42.0095 47.9216 42.3695C47.6576 42.7215 47.3296 42.9855 46.9376 43.1615C46.5536 43.3295 46.1176 43.4135 45.6296 43.4135ZM53.3191 38.9735V40.3295H49.7671V38.9735H53.3191ZM57.6469 41.9615C58.1509 41.9615 58.5789 41.8895 58.9309 41.7455C59.2909 41.6015 59.5829 41.3935 59.8069 41.1215C60.0389 40.8495 60.2069 40.5255 60.3109 40.1495C60.4149 39.7735 60.4669 39.3495 60.4669 38.8775C60.4669 37.9335 60.2669 37.1975 59.8669 36.6695C59.4669 36.1335 58.8109 35.8655 57.8989 35.8655H56.2429V41.9615H57.6469ZM57.8869 34.6295C58.5189 34.6295 59.0869 34.7175 59.5909 34.8935C60.0949 35.0615 60.5229 35.3215 60.8749 35.6735C61.2269 36.0255 61.4949 36.4695 61.6789 37.0055C61.8709 37.5335 61.9669 38.1535 61.9669 38.8655C61.9669 39.5775 61.8669 40.2055 61.6669 40.7495C61.4669 41.2855 61.1789 41.7375 60.8029 42.1055C60.4269 42.4655 59.9669 42.7375 59.4229 42.9215C58.8869 43.1055 58.2789 43.1975 57.5989 43.1975H54.7909V34.6295H57.8869ZM65.4898 34.6295H66.9298L70.1938 43.1975H68.6458L67.8418 41.0135H64.5178L63.7258 43.1975H62.2258L65.4898 34.6295ZM67.4458 39.8015L66.1738 36.2735L64.9138 39.8015H67.4458ZM71.8934 39.6335L68.9174 34.6295H70.5374L72.6014 38.3495L74.7134 34.6295H76.2494L73.3334 39.6335V43.1975H71.8934V39.6335ZM79.6464 34.6295H81.4104L83.8464 41.4455L86.3544 34.6295H88.0584V43.1975H86.7264V36.9695L84.3744 43.1975H83.2224L80.9544 36.9815V43.1975H79.6464V34.6295ZM93.6088 43.4135C92.9928 43.4135 92.4368 43.3135 91.9408 43.1135C91.4528 42.9055 91.0328 42.6095 90.6808 42.2255C90.3288 41.8415 90.0568 41.3735 89.8648 40.8215C89.6808 40.2615 89.5888 39.6295 89.5888 38.9255C89.5888 38.2215 89.6848 37.5895 89.8768 37.0295C90.0688 36.4695 90.3408 35.9975 90.6928 35.6135C91.0448 35.2215 91.4688 34.9255 91.9648 34.7255C92.4608 34.5175 93.0088 34.4135 93.6088 34.4135C94.2168 34.4135 94.7688 34.5175 95.2648 34.7255C95.7608 34.9255 96.1808 35.2175 96.5248 35.6015C96.8688 35.9855 97.1328 36.4575 97.3168 37.0175C97.5088 37.5695 97.6048 38.1975 97.6048 38.9015C97.6048 39.6135 97.5128 40.2495 97.3288 40.8095C97.1448 41.3615 96.8808 41.8335 96.5368 42.2255C96.1928 42.6095 95.7728 42.9055 95.2768 43.1135C94.7888 43.3135 94.2328 43.4135 93.6088 43.4135ZM93.5968 42.1655C94.4208 42.1655 95.0448 41.8775 95.4688 41.3015C95.8928 40.7175 96.1048 39.9215 96.1048 38.9135C96.1048 38.4095 96.0488 37.9575 95.9368 37.5575C95.8328 37.1575 95.6768 36.8175 95.4688 36.5375C95.2608 36.2575 95.0008 36.0415 94.6888 35.8895C94.3768 35.7375 94.0128 35.6615 93.5968 35.6615C93.1808 35.6615 92.8168 35.7375 92.5048 35.8895C92.1928 36.0415 91.9288 36.2575 91.7128 36.5375C91.5048 36.8175 91.3488 37.1575 91.2448 37.5575C91.1408 37.9575 91.0888 38.4095 91.0888 38.9135C91.0888 39.9215 91.2968 40.7175 91.7128 41.3015C92.1368 41.8775 92.7648 42.1655 93.5968 42.1655ZM99.1464 34.6295H100.49L104.426 40.8215V34.6295H105.842V43.1975H104.498L100.55 37.0295V43.1975H99.1464V34.6295ZM107.666 34.6295H113.366V35.8775H109.118V38.1575H113.126V39.4175H109.118V41.9495H113.594L113.426 43.1975H107.666V34.6295ZM117.186 39.6335L114.21 34.6295H115.83L117.894 38.3495L120.006 34.6295H121.542L118.626 39.6335V43.1975H117.186V39.6335ZM124.939 34.6295H127.903C128.527 34.6295 129.039 34.6895 129.439 34.8095C129.839 34.9215 130.155 35.0815 130.387 35.2895C130.627 35.4895 130.791 35.7295 130.879 36.0095C130.967 36.2815 131.011 36.5735 131.011 36.8855C131.011 37.2455 130.931 37.5815 130.771 37.8935C130.611 38.1975 130.319 38.4495 129.895 38.6495C130.167 38.7695 130.391 38.9055 130.567 39.0575C130.743 39.2095 130.883 39.3735 130.987 39.5495C131.091 39.7175 131.163 39.8975 131.203 40.0895C131.243 40.2735 131.263 40.4615 131.263 40.6535C131.263 41.0055 131.207 41.3375 131.095 41.6495C130.991 41.9615 130.815 42.2335 130.567 42.4655C130.319 42.6895 129.995 42.8695 129.595 43.0055C129.195 43.1335 128.703 43.1975 128.119 43.1975H124.939V34.6295ZM128.071 38.1455C128.639 38.1455 129.035 38.0415 129.259 37.8335C129.483 37.6255 129.595 37.3255 129.595 36.9335C129.595 36.5255 129.463 36.2335 129.199 36.0575C128.943 35.8735 128.495 35.7815 127.855 35.7815H126.343V38.1455H128.071ZM128.071 42.0335C128.415 42.0335 128.699 42.0015 128.923 41.9375C129.155 41.8735 129.335 41.7815 129.463 41.6615C129.599 41.5415 129.695 41.3975 129.751 41.2295C129.807 41.0615 129.835 40.8735 129.835 40.6655C129.835 40.2335 129.711 39.9055 129.463 39.6815C129.223 39.4495 128.803 39.3335 128.203 39.3335H126.343V42.0335H128.071ZM134.97 34.6295H136.41L139.674 43.1975H138.126L137.322 41.0135H133.998L133.206 43.1975H131.706L134.97 34.6295ZM136.926 39.8015L135.654 36.2735L134.394 39.8015H136.926ZM147.408 40.3055C147.36 40.7535 147.252 41.1655 147.084 41.5415C146.916 41.9175 146.684 42.2455 146.388 42.5255C146.092 42.8055 145.732 43.0255 145.308 43.1855C144.884 43.3375 144.392 43.4135 143.832 43.4135C143.216 43.4135 142.664 43.3095 142.176 43.1015C141.696 42.8935 141.288 42.5975 140.952 42.2135C140.624 41.8215 140.372 41.3495 140.196 40.7975C140.028 40.2375 139.944 39.6135 139.944 38.9255C139.944 38.2215 140.036 37.5895 140.22 37.0295C140.412 36.4695 140.68 35.9975 141.024 35.6135C141.368 35.2215 141.78 34.9255 142.26 34.7255C142.74 34.5175 143.268 34.4135 143.844 34.4135C144.38 34.4135 144.844 34.4815 145.236 34.6175C145.628 34.7535 145.96 34.9495 146.232 35.2055C146.512 35.4535 146.732 35.7535 146.892 36.1055C147.06 36.4575 147.184 36.8495 147.264 37.2815L145.836 37.4855C145.772 37.1975 145.692 36.9415 145.596 36.7175C145.5 36.4935 145.372 36.3055 145.212 36.1535C145.06 35.9935 144.872 35.8735 144.648 35.7935C144.424 35.7055 144.156 35.6615 143.844 35.6615C143.46 35.6615 143.12 35.7375 142.824 35.8895C142.528 36.0415 142.276 36.2615 142.068 36.5495C141.868 36.8295 141.716 37.1695 141.612 37.5695C141.508 37.9695 141.456 38.4175 141.456 38.9135C141.456 39.4175 141.508 39.8695 141.612 40.2695C141.724 40.6695 141.884 41.0135 142.092 41.3015C142.3 41.5815 142.548 41.7975 142.836 41.9495C143.132 42.0935 143.468 42.1655 143.844 42.1655C144.18 42.1655 144.464 42.1215 144.696 42.0335C144.936 41.9455 145.136 41.8215 145.296 41.6615C145.456 41.5015 145.58 41.3095 145.668 41.0855C145.764 40.8535 145.832 40.5935 145.872 40.3055H147.408ZM148.775 34.6295H150.227V38.3975L153.815 34.6295H155.423L152.471 37.8455L155.747 43.1975H154.103L151.451 38.7815L150.227 40.0175V43.1975H148.775V34.6295ZM166.484 38.6495V42.1775C166.044 42.5855 165.524 42.8935 164.924 43.1015C164.324 43.3095 163.72 43.4135 163.112 43.4135C162.448 43.4135 161.864 43.3095 161.36 43.1015C160.864 42.8855 160.448 42.5855 160.112 42.2015C159.776 41.8095 159.524 41.3375 159.356 40.7855C159.188 40.2335 159.104 39.6135 159.104 38.9255C159.104 38.2295 159.196 37.6055 159.38 37.0535C159.564 36.4935 159.824 36.0175 160.16 35.6255C160.496 35.2335 160.904 34.9335 161.384 34.7255C161.864 34.5175 162.4 34.4135 162.992 34.4135C163.512 34.4135 163.964 34.4815 164.348 34.6175C164.74 34.7455 165.068 34.9255 165.332 35.1575C165.604 35.3895 165.82 35.6615 165.98 35.9735C166.148 36.2775 166.268 36.6055 166.34 36.9575L164.912 37.1615C164.848 36.9215 164.768 36.7095 164.672 36.5255C164.584 36.3335 164.464 36.1735 164.312 36.0455C164.168 35.9175 163.988 35.8215 163.772 35.7575C163.556 35.6855 163.296 35.6495 162.992 35.6495C162.592 35.6495 162.24 35.7295 161.936 35.8895C161.64 36.0415 161.392 36.2615 161.192 36.5495C160.992 36.8375 160.844 37.1815 160.748 37.5815C160.652 37.9815 160.604 38.4255 160.604 38.9135C160.604 39.4175 160.652 39.8695 160.748 40.2695C160.844 40.6695 160.996 41.0135 161.204 41.3015C161.412 41.5815 161.672 41.7975 161.984 41.9495C162.304 42.1015 162.688 42.1775 163.136 42.1775C163.536 42.1775 163.896 42.1375 164.216 42.0575C164.536 41.9695 164.844 41.8215 165.14 41.6135V39.8735H163.244V38.6495H166.484ZM169.349 34.6295V39.7655C169.349 40.5735 169.493 41.1775 169.781 41.5775C170.077 41.9695 170.573 42.1655 171.269 42.1655C171.957 42.1655 172.441 41.9695 172.721 41.5775C173.009 41.1775 173.153 40.5735 173.153 39.7655V34.6295H174.605V39.7655C174.605 40.4295 174.525 40.9935 174.365 41.4575C174.205 41.9135 173.977 42.2895 173.681 42.5855C173.385 42.8735 173.033 43.0815 172.625 43.2095C172.217 43.3455 171.761 43.4135 171.257 43.4135C170.161 43.4135 169.329 43.1215 168.761 42.5375C168.193 41.9455 167.909 41.0095 167.909 39.7295V34.6295H169.349ZM178.423 34.6295H179.863L183.127 43.1975H181.579L180.775 41.0135H177.451L176.659 43.1975H175.159L178.423 34.6295ZM180.379 39.8015L179.107 36.2735L177.847 39.8015H180.379ZM187.202 38.5895C187.53 38.5895 187.802 38.5575 188.018 38.4935C188.234 38.4215 188.402 38.3255 188.522 38.2055C188.65 38.0775 188.738 37.9255 188.786 37.7495C188.842 37.5735 188.87 37.3775 188.87 37.1615C188.87 36.9615 188.838 36.7815 188.774 36.6215C188.718 36.4535 188.618 36.3135 188.474 36.2015C188.338 36.0815 188.154 35.9895 187.922 35.9255C187.69 35.8615 187.402 35.8295 187.058 35.8295H185.594V38.5895H187.202ZM187.094 34.6295C187.742 34.6295 188.274 34.7055 188.69 34.8575C189.114 35.0095 189.446 35.2095 189.686 35.4575C189.934 35.6975 190.106 35.9655 190.202 36.2615C190.298 36.5575 190.346 36.8495 190.346 37.1375C190.346 37.6975 190.234 38.1655 190.01 38.5415C189.794 38.9175 189.442 39.2215 188.954 39.4535L190.73 43.1975H189.146L187.61 39.7895C187.538 39.7975 187.462 39.8055 187.382 39.8135C187.302 39.8135 187.218 39.8135 187.13 39.8135H185.594V43.1975H184.166V34.6295H187.094ZM194.63 34.6295H196.07L199.334 43.1975H197.786L196.982 41.0135H193.658L192.866 43.1975H191.366L194.63 34.6295ZM196.586 39.8015L195.314 36.2735L194.054 39.8015H196.586ZM200.373 34.6295H201.717L205.653 40.8215V34.6295H207.069V43.1975H205.725L201.777 37.0295V43.1975H200.373V34.6295ZM210.92 35.8895H208.208V34.6295H215.072V35.8895H212.372V43.1975H210.92V35.8895ZM216.217 34.6295H221.917V35.8775H217.669V38.1575H221.677V39.4175H217.669V41.9495H222.145L221.977 43.1975H216.217V34.6295ZM223.529 34.6295H229.229V35.8775H224.981V38.1575H228.989V39.4175H224.981V41.9495H229.457L229.289 43.1975H223.529V34.6295Z" fill="white"/>
<path d="M38.612 42.2975C39.076 42.2975 39.456 42.1575 39.752 41.8775C40.048 41.5895 40.196 41.1615 40.196 40.5935C40.196 40.1055 40.08 39.7095 39.848 39.4055C39.624 39.0935 39.244 38.9375 38.708 38.9375C38.476 38.9375 38.26 38.9735 38.06 39.0455C37.86 39.1095 37.684 39.2135 37.532 39.3575C37.388 39.5015 37.276 39.6815 37.196 39.8975C37.116 40.1055 37.088 40.3535 37.112 40.6415C37.112 40.8575 37.144 41.0655 37.208 41.2655C37.272 41.4655 37.364 41.6415 37.484 41.7935C37.612 41.9455 37.768 42.0695 37.952 42.1655C38.136 42.2535 38.356 42.2975 38.612 42.2975ZM40.112 36.7415C40.056 36.6055 40 36.4895 39.944 36.3935C39.896 36.2975 39.836 36.2175 39.764 36.1535C39.692 36.0815 39.608 36.0255 39.512 35.9855C39.416 35.9375 39.3 35.9015 39.164 35.8775C39.004 35.8455 38.816 35.8415 38.6 35.8655C38.088 35.9055 37.7 36.1695 37.436 36.6575C37.172 37.1455 37.024 37.8375 36.992 38.7335C37.24 38.4295 37.528 38.2055 37.856 38.0615C38.192 37.9175 38.576 37.8415 39.008 37.8335C39.432 37.8335 39.8 37.8975 40.112 38.0255C40.432 38.1535 40.696 38.3375 40.904 38.5775C41.112 38.8175 41.268 39.1055 41.372 39.4415C41.476 39.7775 41.528 40.1535 41.528 40.5695C41.528 41.0335 41.452 41.4455 41.3 41.8055C41.148 42.1575 40.94 42.4535 40.676 42.6935C40.412 42.9335 40.104 43.1135 39.752 43.2335C39.4 43.3535 39.02 43.4135 38.612 43.4135C38.012 43.4135 37.52 43.2975 37.136 43.0655C36.76 42.8335 36.46 42.5335 36.236 42.1655C36.02 41.7975 35.868 41.3895 35.78 40.9415C35.7 40.4855 35.66 40.0375 35.66 39.5975C35.66 38.6775 35.744 37.9055 35.912 37.2815C36.08 36.6495 36.308 36.1415 36.596 35.7575C36.884 35.3735 37.22 35.0975 37.604 34.9295C37.996 34.7615 38.412 34.6775 38.852 34.6775C39.644 34.6775 40.236 34.8415 40.628 35.1695C41.028 35.4975 41.292 36.0015 41.42 36.6815L40.16 36.8615L40.112 36.7415ZM45.6416 42.2135C45.9536 42.2135 46.2136 42.1415 46.4216 41.9975C46.6376 41.8455 46.8096 41.6335 46.9376 41.3615C47.0736 41.0895 47.1696 40.7575 47.2256 40.3655C47.2896 39.9735 47.3216 39.5335 47.3216 39.0455C47.3216 38.5655 47.2896 38.1295 47.2256 37.7375C47.1696 37.3455 47.0736 37.0135 46.9376 36.7415C46.8096 36.4615 46.6376 36.2495 46.4216 36.1055C46.2136 35.9535 45.9536 35.8775 45.6416 35.8775C45.3296 35.8775 45.0656 35.9535 44.8496 36.1055C44.6416 36.2575 44.4736 36.4735 44.3456 36.7535C44.2176 37.0255 44.1256 37.3575 44.0696 37.7495C44.0136 38.1335 43.9856 38.5655 43.9856 39.0455C43.9856 40.0695 44.1096 40.8535 44.3576 41.3975C44.6136 41.9415 45.0416 42.2135 45.6416 42.2135ZM45.6296 43.4135C45.1496 43.4135 44.7176 43.3295 44.3336 43.1615C43.9576 42.9935 43.6376 42.7335 43.3736 42.3815C43.1096 42.0215 42.9056 41.5655 42.7616 41.0135C42.6256 40.4615 42.5576 39.8055 42.5576 39.0455C42.5576 37.5815 42.8256 36.4895 43.3616 35.7695C43.9056 35.0415 44.6776 34.6775 45.6776 34.6775C46.6456 34.6775 47.3976 35.0335 47.9336 35.7455C48.4776 36.4495 48.7496 37.5495 48.7496 39.0455C48.7496 39.8055 48.6776 40.4615 48.5336 41.0135C48.3976 41.5575 48.1936 42.0095 47.9216 42.3695C47.6576 42.7215 47.3296 42.9855 46.9376 43.1615C46.5536 43.3295 46.1176 43.4135 45.6296 43.4135ZM53.3191 38.9735V40.3295H49.7671V38.9735H53.3191ZM57.6469 41.9615C58.1509 41.9615 58.5789 41.8895 58.9309 41.7455C59.2909 41.6015 59.5829 41.3935 59.8069 41.1215C60.0389 40.8495 60.2069 40.5255 60.3109 40.1495C60.4149 39.7735 60.4669 39.3495 60.4669 38.8775C60.4669 37.9335 60.2669 37.1975 59.8669 36.6695C59.4669 36.1335 58.8109 35.8655 57.8989 35.8655H56.2429V41.9615H57.6469ZM57.8869 34.6295C58.5189 34.6295 59.0869 34.7175 59.5909 34.8935C60.0949 35.0615 60.5229 35.3215 60.8749 35.6735C61.2269 36.0255 61.4949 36.4695 61.6789 37.0055C61.8709 37.5335 61.9669 38.1535 61.9669 38.8655C61.9669 39.5775 61.8669 40.2055 61.6669 40.7495C61.4669 41.2855 61.1789 41.7375 60.8029 42.1055C60.4269 42.4655 59.9669 42.7375 59.4229 42.9215C58.8869 43.1055 58.2789 43.1975 57.5989 43.1975H54.7909V34.6295H57.8869ZM65.4898 34.6295H66.9298L70.1938 43.1975H68.6458L67.8418 41.0135H64.5178L63.7258 43.1975H62.2258L65.4898 34.6295ZM67.4458 39.8015L66.1738 36.2735L64.9138 39.8015H67.4458ZM71.8934 39.6335L68.9174 34.6295H70.5374L72.6014 38.3495L74.7134 34.6295H76.2494L73.3334 39.6335V43.1975H71.8934V39.6335ZM79.6464 34.6295H81.4104L83.8464 41.4455L86.3544 34.6295H88.0584V43.1975H86.7264V36.9695L84.3744 43.1975H83.2224L80.9544 36.9815V43.1975H79.6464V34.6295ZM93.6088 43.4135C92.9928 43.4135 92.4368 43.3135 91.9408 43.1135C91.4528 42.9055 91.0328 42.6095 90.6808 42.2255C90.3288 41.8415 90.0568 41.3735 89.8648 40.8215C89.6808 40.2615 89.5888 39.6295 89.5888 38.9255C89.5888 38.2215 89.6848 37.5895 89.8768 37.0295C90.0688 36.4695 90.3408 35.9975 90.6928 35.6135C91.0448 35.2215 91.4688 34.9255 91.9648 34.7255C92.4608 34.5175 93.0088 34.4135 93.6088 34.4135C94.2168 34.4135 94.7688 34.5175 95.2648 34.7255C95.7608 34.9255 96.1808 35.2175 96.5248 35.6015C96.8688 35.9855 97.1328 36.4575 97.3168 37.0175C97.5088 37.5695 97.6048 38.1975 97.6048 38.9015C97.6048 39.6135 97.5128 40.2495 97.3288 40.8095C97.1448 41.3615 96.8808 41.8335 96.5368 42.2255C96.1928 42.6095 95.7728 42.9055 95.2768 43.1135C94.7888 43.3135 94.2328 43.4135 93.6088 43.4135ZM93.5968 42.1655C94.4208 42.1655 95.0448 41.8775 95.4688 41.3015C95.8928 40.7175 96.1048 39.9215 96.1048 38.9135C96.1048 38.4095 96.0488 37.9575 95.9368 37.5575C95.8328 37.1575 95.6768 36.8175 95.4688 36.5375C95.2608 36.2575 95.0008 36.0415 94.6888 35.8895C94.3768 35.7375 94.0128 35.6615 93.5968 35.6615C93.1808 35.6615 92.8168 35.7375 92.5048 35.8895C92.1928 36.0415 91.9288 36.2575 91.7128 36.5375C91.5048 36.8175 91.3488 37.1575 91.2448 37.5575C91.1408 37.9575 91.0888 38.4095 91.0888 38.9135C91.0888 39.9215 91.2968 40.7175 91.7128 41.3015C92.1368 41.8775 92.7648 42.1655 93.5968 42.1655ZM99.1464 34.6295H100.49L104.426 40.8215V34.6295H105.842V43.1975H104.498L100.55 37.0295V43.1975H99.1464V34.6295ZM107.666 34.6295H113.366V35.8775H109.118V38.1575H113.126V39.4175H109.118V41.9495H113.594L113.426 43.1975H107.666V34.6295ZM117.186 39.6335L114.21 34.6295H115.83L117.894 38.3495L120.006 34.6295H121.542L118.626 39.6335V43.1975H117.186V39.6335ZM124.939 34.6295H127.903C128.527 34.6295 129.039 34.6895 129.439 34.8095C129.839 34.9215 130.155 35.0815 130.387 35.2895C130.627 35.4895 130.791 35.7295 130.879 36.0095C130.967 36.2815 131.011 36.5735 131.011 36.8855C131.011 37.2455 130.931 37.5815 130.771 37.8935C130.611 38.1975 130.319 38.4495 129.895 38.6495C130.167 38.7695 130.391 38.9055 130.567 39.0575C130.743 39.2095 130.883 39.3735 130.987 39.5495C131.091 39.7175 131.163 39.8975 131.203 40.0895C131.243 40.2735 131.263 40.4615 131.263 40.6535C131.263 41.0055 131.207 41.3375 131.095 41.6495C130.991 41.9615 130.815 42.2335 130.567 42.4655C130.319 42.6895 129.995 42.8695 129.595 43.0055C129.195 43.1335 128.703 43.1975 128.119 43.1975H124.939V34.6295ZM128.071 38.1455C128.639 38.1455 129.035 38.0415 129.259 37.8335C129.483 37.6255 129.595 37.3255 129.595 36.9335C129.595 36.5255 129.463 36.2335 129.199 36.0575C128.943 35.8735 128.495 35.7815 127.855 35.7815H126.343V38.1455H128.071ZM128.071 42.0335C128.415 42.0335 128.699 42.0015 128.923 41.9375C129.155 41.8735 129.335 41.7815 129.463 41.6615C129.599 41.5415 129.695 41.3975 129.751 41.2295C129.807 41.0615 129.835 40.8735 129.835 40.6655C129.835 40.2335 129.711 39.9055 129.463 39.6815C129.223 39.4495 128.803 39.3335 128.203 39.3335H126.343V42.0335H128.071ZM134.97 34.6295H136.41L139.674 43.1975H138.126L137.322 41.0135H133.998L133.206 43.1975H131.706L134.97 34.6295ZM136.926 39.8015L135.654 36.2735L134.394 39.8015H136.926ZM147.408 40.3055C147.36 40.7535 147.252 41.1655 147.084 41.5415C146.916 41.9175 146.684 42.2455 146.388 42.5255C146.092 42.8055 145.732 43.0255 145.308 43.1855C144.884 43.3375 144.392 43.4135 143.832 43.4135C143.216 43.4135 142.664 43.3095 142.176 43.1015C141.696 42.8935 141.288 42.5975 140.952 42.2135C140.624 41.8215 140.372 41.3495 140.196 40.7975C140.028 40.2375 139.944 39.6135 139.944 38.9255C139.944 38.2215 140.036 37.5895 140.22 37.0295C140.412 36.4695 140.68 35.9975 141.024 35.6135C141.368 35.2215 141.78 34.9255 142.26 34.7255C142.74 34.5175 143.268 34.4135 143.844 34.4135C144.38 34.4135 144.844 34.4815 145.236 34.6175C145.628 34.7535 145.96 34.9495 146.232 35.2055C146.512 35.4535 146.732 35.7535 146.892 36.1055C147.06 36.4575 147.184 36.8495 147.264 37.2815L145.836 37.4855C145.772 37.1975 145.692 36.9415 145.596 36.7175C145.5 36.4935 145.372 36.3055 145.212 36.1535C145.06 35.9935 144.872 35.8735 144.648 35.7935C144.424 35.7055 144.156 35.6615 143.844 35.6615C143.46 35.6615 143.12 35.7375 142.824 35.8895C142.528 36.0415 142.276 36.2615 142.068 36.5495C141.868 36.8295 141.716 37.1695 141.612 37.5695C141.508 37.9695 141.456 38.4175 141.456 38.9135C141.456 39.4175 141.508 39.8695 141.612 40.2695C141.724 40.6695 141.884 41.0135 142.092 41.3015C142.3 41.5815 142.548 41.7975 142.836 41.9495C143.132 42.0935 143.468 42.1655 143.844 42.1655C144.18 42.1655 144.464 42.1215 144.696 42.0335C144.936 41.9455 145.136 41.8215 145.296 41.6615C145.456 41.5015 145.58 41.3095 145.668 41.0855C145.764 40.8535 145.832 40.5935 145.872 40.3055H147.408ZM148.775 34.6295H150.227V38.3975L153.815 34.6295H155.423L152.471 37.8455L155.747 43.1975H154.103L151.451 38.7815L150.227 40.0175V43.1975H148.775V34.6295ZM166.484 38.6495V42.1775C166.044 42.5855 165.524 42.8935 164.924 43.1015C164.324 43.3095 163.72 43.4135 163.112 43.4135C162.448 43.4135 161.864 43.3095 161.36 43.1015C160.864 42.8855 160.448 42.5855 160.112 42.2015C159.776 41.8095 159.524 41.3375 159.356 40.7855C159.188 40.2335 159.104 39.6135 159.104 38.9255C159.104 38.2295 159.196 37.6055 159.38 37.0535C159.564 36.4935 159.824 36.0175 160.16 35.6255C160.496 35.2335 160.904 34.9335 161.384 34.7255C161.864 34.5175 162.4 34.4135 162.992 34.4135C163.512 34.4135 163.964 34.4815 164.348 34.6175C164.74 34.7455 165.068 34.9255 165.332 35.1575C165.604 35.3895 165.82 35.6615 165.98 35.9735C166.148 36.2775 166.268 36.6055 166.34 36.9575L164.912 37.1615C164.848 36.9215 164.768 36.7095 164.672 36.5255C164.584 36.3335 164.464 36.1735 164.312 36.0455C164.168 35.9175 163.988 35.8215 163.772 35.7575C163.556 35.6855 163.296 35.6495 162.992 35.6495C162.592 35.6495 162.24 35.7295 161.936 35.8895C161.64 36.0415 161.392 36.2615 161.192 36.5495C160.992 36.8375 160.844 37.1815 160.748 37.5815C160.652 37.9815 160.604 38.4255 160.604 38.9135C160.604 39.4175 160.652 39.8695 160.748 40.2695C160.844 40.6695 160.996 41.0135 161.204 41.3015C161.412 41.5815 161.672 41.7975 161.984 41.9495C162.304 42.1015 162.688 42.1775 163.136 42.1775C163.536 42.1775 163.896 42.1375 164.216 42.0575C164.536 41.9695 164.844 41.8215 165.14 41.6135V39.8735H163.244V38.6495H166.484ZM169.349 34.6295V39.7655C169.349 40.5735 169.493 41.1775 169.781 41.5775C170.077 41.9695 170.573 42.1655 171.269 42.1655C171.957 42.1655 172.441 41.9695 172.721 41.5775C173.009 41.1775 173.153 40.5735 173.153 39.7655V34.6295H174.605V39.7655C174.605 40.4295 174.525 40.9935 174.365 41.4575C174.205 41.9135 173.977 42.2895 173.681 42.5855C173.385 42.8735 173.033 43.0815 172.625 43.2095C172.217 43.3455 171.761 43.4135 171.257 43.4135C170.161 43.4135 169.329 43.1215 168.761 42.5375C168.193 41.9455 167.909 41.0095 167.909 39.7295V34.6295H169.349ZM178.423 34.6295H179.863L183.127 43.1975H181.579L180.775 41.0135H177.451L176.659 43.1975H175.159L178.423 34.6295ZM180.379 39.8015L179.107 36.2735L177.847 39.8015H180.379ZM187.202 38.5895C187.53 38.5895 187.802 38.5575 188.018 38.4935C188.234 38.4215 188.402 38.3255 188.522 38.2055C188.65 38.0775 188.738 37.9255 188.786 37.7495C188.842 37.5735 188.87 37.3775 188.87 37.1615C188.87 36.9615 188.838 36.7815 188.774 36.6215C188.718 36.4535 188.618 36.3135 188.474 36.2015C188.338 36.0815 188.154 35.9895 187.922 35.9255C187.69 35.8615 187.402 35.8295 187.058 35.8295H185.594V38.5895H187.202ZM187.094 34.6295C187.742 34.6295 188.274 34.7055 188.69 34.8575C189.114 35.0095 189.446 35.2095 189.686 35.4575C189.934 35.6975 190.106 35.9655 190.202 36.2615C190.298 36.5575 190.346 36.8495 190.346 37.1375C190.346 37.6975 190.234 38.1655 190.01 38.5415C189.794 38.9175 189.442 39.2215 188.954 39.4535L190.73 43.1975H189.146L187.61 39.7895C187.538 39.7975 187.462 39.8055 187.382 39.8135C187.302 39.8135 187.218 39.8135 187.13 39.8135H185.594V43.1975H184.166V34.6295H187.094ZM194.63 34.6295H196.07L199.334 43.1975H197.786L196.982 41.0135H193.658L192.866 43.1975H191.366L194.63 34.6295ZM196.586 39.8015L195.314 36.2735L194.054 39.8015H196.586ZM200.373 34.6295H201.717L205.653 40.8215V34.6295H207.069V43.1975H205.725L201.777 37.0295V43.1975H200.373V34.6295ZM210.92 35.8895H208.208V34.6295H215.072V35.8895H212.372V43.1975H210.92V35.8895ZM216.217 34.6295H221.917V35.8775H217.669V38.1575H221.677V39.4175H217.669V41.9495H222.145L221.977 43.1975H216.217V34.6295ZM223.529 34.6295H229.229V35.8775H224.981V38.1575H228.989V39.4175H224.981V41.9495H229.457L229.289 43.1975H223.529V34.6295Z" fill="black" fill-opacity="0.6"/>
<defs>
<clipPath id="clip0_6_2843">
<rect width="20" height="18.1818" fill="white" transform="translate(0 1.60669)"/>
</clipPath>
<clipPath id="clip1_6_2843">
<rect width="20" height="14.5455" fill="white" transform="translate(0 33.4248)"/>
</clipPath>
</defs>
</svg>
