<svg width="16" height="16" viewBox="0 0 16 16" fill="none" xmlns="http://www.w3.org/2000/svg">
<mask id="mask0_16_11075" style="mask-type:luminance" maskUnits="userSpaceOnUse" x="0" y="0" width="16" height="16">
<path d="M15.4129 0.552734H0.36084V15.6048H15.4129V0.552734Z" fill="white"/>
</mask>
<g mask="url(#mask0_16_11075)">
<path fill-rule="evenodd" clip-rule="evenodd" d="M11.9102 3.15802C11.4116 3.15802 11.0073 3.5621 11.0073 4.0607C11.0073 4.5592 11.4116 4.96342 11.9102 4.96342C12.4088 4.96342 12.8131 4.5592 12.8131 4.0607C12.8131 3.5621 12.4088 3.15802 11.9102 3.15802ZM7.88982 10.5885C6.50466 10.5885 5.38113 9.4653 5.38113 8.08028C5.38113 6.69527 6.50466 5.57205 7.88982 5.57205C9.27506 5.57205 10.3985 6.69527 10.3985 8.08028C10.3985 9.4653 9.27506 10.5885 7.88982 10.5885ZM7.88982 4.21359C5.7547 4.21359 4.02238 5.94547 4.02238 8.08028C4.02238 10.2151 5.7547 11.9469 7.88982 11.9469C10.025 11.9469 11.7572 10.2151 11.7572 8.08028C11.7572 5.94547 10.025 4.21359 7.88982 4.21359ZM14.0189 11.1237C13.9865 11.8587 13.863 12.2557 13.7601 12.5203C13.5071 13.1761 12.9866 13.6965 12.3307 13.9495C12.066 14.0523 11.6662 14.1758 10.9337 14.2081C10.1397 14.2435 9.90153 14.2522 7.89283 14.2522C5.88407 14.2522 5.64292 14.2435 4.85173 14.2081C4.11648 14.1758 3.71946 14.0523 3.45477 13.9495C3.12839 13.8288 2.8313 13.6377 2.59016 13.3878C2.34017 13.1437 2.149 12.8497 2.02838 12.5234C1.92544 12.2587 1.80193 11.8587 1.76967 11.1267C1.73426 10.3327 1.72554 10.0945 1.72554 8.08615C1.72554 6.07778 1.73426 5.83672 1.76967 5.04575C1.80193 4.31064 1.92544 3.91369 2.02838 3.64906C2.149 3.32263 2.34017 3.0257 2.59313 2.78448C2.83713 2.53455 3.13125 2.34344 3.45775 2.22294C3.72243 2.12001 4.12246 1.99653 4.8547 1.96416C5.64879 1.9289 5.88705 1.92007 7.89569 1.92007C9.9074 1.92007 10.1455 1.9289 10.9367 1.96416C11.672 1.99653 12.069 2.12001 12.3337 2.22294C12.66 2.34344 12.9572 2.53455 13.1983 2.78448C13.4483 3.02856 13.6394 3.32263 13.7601 3.64906C13.863 3.91369 13.9865 4.31353 14.0189 5.04575C14.0542 5.83969 14.063 6.07778 14.063 8.08615C14.063 10.0945 14.0542 10.3297 14.0189 11.1237ZM15.3747 4.97812C15.3394 4.17833 15.21 3.6285 15.0247 3.15204C14.8336 2.64631 14.5395 2.19354 14.1541 1.81715C13.7777 1.43486 13.3218 1.13782 12.8218 0.949686C12.3426 0.764437 11.7955 0.635094 10.9955 0.599835C10.1897 0.561571 9.93381 0.552734 7.88982 0.552734C5.84583 0.552734 5.58996 0.561571 4.78706 0.59686C3.98711 0.632119 3.43718 0.76155 2.96076 0.946711C2.4548 1.13782 2.00195 1.43189 1.62549 1.81715C1.24313 2.19354 0.946186 2.64929 0.757896 3.14918C0.572581 3.6285 0.443215 4.17535 0.407949 4.97512C0.369708 5.78086 0.36084 6.03666 0.36084 8.08028C0.36084 10.1239 0.369708 10.3797 0.404974 11.1824C0.44024 11.9822 0.569724 12.5321 0.755009 13.0085C0.946187 13.5142 1.24313 13.9671 1.62549 14.3435C2.00195 14.7257 2.45781 15.0228 2.95778 15.2108C3.43718 15.3961 3.98414 15.5255 4.78417 15.5607C5.58698 15.5961 5.84294 15.6048 7.88688 15.6048C9.93088 15.6048 10.1868 15.5961 10.9896 15.5607C11.7897 15.5255 12.3396 15.3961 12.816 15.2108C13.8278 14.8198 14.6277 14.02 15.0189 13.0085C15.2041 12.5292 15.3335 11.9822 15.3688 11.1824C15.404 10.3797 15.4129 10.1239 15.4129 8.08028C15.4129 6.03666 15.4099 5.78086 15.3747 4.97812Z" fill="white"/>
</g>
</svg>
