<svg width="195" height="51" viewBox="0 0 195 51" fill="none" xmlns="http://www.w3.org/2000/svg">
<path d="M26.9273 0H34.5699V0.356653L32.1752 4.29257V37.2702L31.8185 37.6269H28.2393L6.02489 7.52793V33.3343L8.41956 37.283V37.6396H0.776995V37.283L3.17166 33.3343V4.59828L0 0.356653V0H8.30492L29.3347 28.494V4.30531L26.94 0.369392V0H26.9273ZM62.7327 23.8321C62.7327 32.4299 57.2428 38.1109 48.8105 38.1109C40.3909 38.1109 34.7737 32.2516 34.7737 23.3608C34.7737 19.0045 36.0219 15.5399 38.5313 12.9669C41.0406 10.3939 44.4415 9.08191 48.6831 9.08191C57.0645 9.08191 62.7327 15.0559 62.7327 23.8321ZM56.5295 26.2267C56.6441 18.6988 51.8675 11.1709 47.0272 11.3492C43.2696 11.3492 40.9896 14.9922 40.9896 21.0298C40.875 28.5577 45.7025 36.0219 50.6702 35.8436C54.3131 35.8436 56.5295 32.2007 56.5295 26.2267ZM88.4881 9.90986V9.5532H80.7182V9.90986L82.0939 13.7311L76.2983 33.5636L68.4137 13.7311L69.904 9.90986V9.5532H60.3508V9.90986L62.4397 13.6675L71.9929 37.6142H77.4828L86.2081 13.7821L88.4881 9.90986ZM112.409 33.3853L112.766 33.6273C111.989 36.4932 109.836 38.2256 107.276 38.2256C104.83 38.2256 103.455 36.5569 103.149 33.2069C101.238 36.3786 97.6592 38.3402 93.7742 38.3402C89.4689 38.3402 86.068 35.5889 86.068 31.5893C86.068 25.3733 91.7999 22.2653 103.085 21.552V20.533C103.085 15.7564 100.219 13.4254 96.3345 13.4254C93.0482 13.4254 90.0039 14.8011 87.9149 17.1321L87.5583 16.8901C88.3353 14.5591 89.7619 12.6484 91.8636 11.1581C93.9526 9.60416 96.2836 8.82716 98.8566 8.82716C105.302 8.82716 109.072 13.2471 109.072 19.6923V29.9716C109.072 32.5955 109.671 33.7292 111.097 33.7292C111.632 33.7547 112.053 33.6273 112.409 33.3853ZM103.085 25.5007C100.64 24.9657 98.4872 24.66 96.5765 24.66C93.4685 24.66 91.3159 26.214 91.3159 28.787C91.3159 31.7166 93.5832 33.7419 96.8695 33.7419C99.4425 33.7419 101.468 32.9012 103.085 31.2963V25.5007ZM158.061 33.3088L153.654 4.45816L155.437 0.534981V0.178328H148.419L137.477 27.4878L125.937 0.178328H118.613V0.534981L120.702 5.05683L115.938 33.3216L113.314 37.3084V37.6651H121.886V37.3084L119.619 33.3853L122.714 9.10739L134.917 37.6651H135.745L148.177 9.0437L151.628 33.3853L149.96 37.3084V37.6651H159.959V37.3084L158.061 33.3088ZM195 18.202C195 6.24143 188.033 0.178328 174.416 0.178328H160.914V0.534981L162.697 4.45816V33.3725L160.914 37.2957V37.6524H173.766C187.026 37.6524 195 30.341 195 18.202ZM188.631 19.514C188.631 28.7997 184.046 35.3978 176.849 35.3978C173.512 35.3978 171.079 34.6845 168.875 32.9522V3.91045C170.365 2.90418 172.391 2.42015 174.824 2.42015C183.281 2.43288 188.631 9.03096 188.631 19.514ZM119.364 43.5244V50.3772H121.912C122.383 50.3772 122.778 50.3263 123.096 50.2244C123.415 50.1225 123.669 49.9696 123.873 49.7913C124.077 49.613 124.217 49.3964 124.306 49.1417C124.395 48.8869 124.434 48.6322 124.434 48.3392C124.434 48.1864 124.421 48.0335 124.383 47.8807C124.344 47.7278 124.294 47.5877 124.204 47.4476C124.115 47.3075 124.013 47.1801 123.873 47.0527C123.733 46.9381 123.555 46.8234 123.338 46.7215C123.682 46.556 123.911 46.3522 124.039 46.1101C124.166 45.8681 124.23 45.6006 124.23 45.3077C124.23 45.0529 124.192 44.8236 124.128 44.6071C124.052 44.3906 123.924 44.1995 123.733 44.0339C123.542 43.8683 123.287 43.7409 122.969 43.6518C122.65 43.5626 122.243 43.5117 121.733 43.5117H119.364V43.5244ZM121.873 46.3394H120.485V44.4543H121.695C122.205 44.4543 122.574 44.5307 122.778 44.6708C122.982 44.8109 123.096 45.0529 123.096 45.3714C123.096 45.6898 123.007 45.9318 122.829 46.0974C122.638 46.2502 122.332 46.3394 121.873 46.3394ZM121.873 49.4474H120.485V47.282H121.975C122.459 47.282 122.791 47.3712 122.994 47.5495C123.185 47.7278 123.287 47.9953 123.287 48.3392C123.287 48.5048 123.262 48.6577 123.224 48.785C123.173 48.9252 123.109 49.0398 122.994 49.1289C122.892 49.2308 122.74 49.2945 122.561 49.3455C122.37 49.4219 122.141 49.4474 121.873 49.4474ZM128.229 47.524V50.3772H129.376V47.524L131.707 43.5244H130.471L128.777 46.505L127.121 43.5244H125.822L128.229 47.524ZM139.069 43.5244H136.585V50.3772H138.827C139.375 50.3772 139.859 50.3008 140.292 50.1607C140.725 50.0078 141.094 49.7913 141.387 49.4983C141.693 49.2054 141.922 48.8487 142.075 48.4156C142.241 47.9826 142.317 47.4858 142.317 46.9126C142.317 46.3394 142.241 45.8426 142.088 45.4223C141.935 45.002 141.719 44.6453 141.438 44.3651C141.158 44.0849 140.814 43.8683 140.407 43.7409C140.037 43.5881 139.579 43.5244 139.069 43.5244ZM138.878 49.3837H137.757V44.5052H139.082C139.808 44.5052 140.343 44.7217 140.661 45.1421C140.98 45.5624 141.145 46.1611 141.145 46.9126C141.145 47.2947 141.107 47.6259 141.018 47.9316C140.929 48.2373 140.801 48.4921 140.623 48.7086C140.445 48.9251 140.203 49.0907 139.923 49.2054C139.63 49.3328 139.286 49.3837 138.878 49.3837ZM146.852 43.5244H144.508V50.3772H145.655V47.6641H146.89C146.966 47.6641 147.03 47.6641 147.094 47.6641C147.158 47.6641 147.221 47.6514 147.272 47.6514L148.508 50.3772H149.781L148.355 47.3839C148.75 47.1928 149.03 46.9508 149.208 46.6579C149.387 46.3522 149.476 45.9828 149.476 45.5369C149.476 45.3077 149.438 45.0784 149.361 44.8364C149.285 44.5944 149.145 44.3778 148.954 44.1868C148.762 43.9957 148.495 43.8301 148.151 43.7155C147.807 43.5753 147.374 43.5244 146.852 43.5244ZM146.941 46.6833H145.655V44.4797H146.826C147.107 44.4797 147.336 44.5052 147.514 44.5561C147.705 44.6071 147.845 44.6835 147.96 44.7727C148.075 44.8619 148.151 44.9765 148.202 45.1039C148.253 45.2312 148.278 45.3841 148.278 45.5369C148.278 45.7025 148.253 45.8681 148.215 46.0082C148.177 46.1483 148.1 46.263 147.998 46.3649C147.896 46.4668 147.769 46.5432 147.591 46.5942C147.425 46.6579 147.209 46.6833 146.941 46.6833ZM152.8 49.0398H151.641V50.3772H152.8V49.0398ZM158.787 43.5244H157.488L160.099 50.3772H161.207L163.806 43.5244H162.57L160.659 48.8105L158.787 43.5244ZM168.264 50.5556C168.761 50.5556 169.206 50.4791 169.601 50.3135C169.996 50.148 170.327 49.9187 170.607 49.6002C170.888 49.2945 171.092 48.9124 171.244 48.4666C171.397 48.0208 171.461 47.5113 171.461 46.9508C171.461 46.3904 171.384 45.8809 171.232 45.435C171.079 44.9892 170.862 44.6198 170.595 44.3014C170.327 43.983 169.983 43.7537 169.588 43.6008C169.194 43.4352 168.748 43.3588 168.264 43.3588C167.78 43.3588 167.347 43.4352 166.952 43.6008C166.557 43.7664 166.213 43.9957 165.933 44.3141C165.653 44.6198 165.436 45.002 165.283 45.4478C165.13 45.8936 165.054 46.4031 165.054 46.9636C165.054 47.524 165.13 48.0335 165.283 48.4793C165.436 48.9251 165.653 49.2945 165.933 49.613C166.213 49.9314 166.557 50.1607 166.952 50.3135C167.334 50.4664 167.78 50.5556 168.264 50.5556ZM168.264 49.5493C167.601 49.5493 167.092 49.32 166.761 48.8487C166.43 48.3902 166.251 47.7533 166.251 46.9381C166.251 46.5305 166.289 46.1738 166.379 45.8554C166.468 45.5369 166.582 45.2567 166.761 45.0402C166.926 44.8109 167.143 44.6453 167.385 44.5179C167.64 44.4033 167.92 44.3396 168.264 44.3396C168.595 44.3396 168.888 44.4033 169.143 44.5179C169.397 44.6453 169.601 44.8109 169.767 45.0402C169.932 45.2695 170.06 45.5369 170.149 45.8554C170.238 46.1738 170.276 46.5432 170.276 46.9381C170.276 47.7406 170.111 48.3774 169.767 48.8487C169.423 49.32 168.913 49.5493 168.264 49.5493ZM173.652 43.5244V50.3772H174.773V45.435L177.932 50.3772H179.002V43.5244H177.868V48.4793L174.722 43.5244H173.652ZM183.906 43.5244H181.422V50.3772H183.664C184.211 50.3772 184.695 50.3008 185.128 50.1607C185.561 50.0078 185.931 49.7913 186.224 49.4983C186.529 49.2054 186.759 48.8487 186.912 48.4156C187.077 47.9826 187.154 47.4858 187.154 46.9126C187.154 46.3394 187.077 45.8426 186.924 45.4223C186.771 45.002 186.555 44.6453 186.275 44.3651C185.995 44.0849 185.651 43.8683 185.243 43.7409C184.861 43.5881 184.415 43.5244 183.906 43.5244ZM183.714 49.3837H182.594V44.5052H183.918C184.644 44.5052 185.179 44.7217 185.498 45.1421C185.816 45.5624 185.982 46.1611 185.982 46.9126C185.982 47.2947 185.944 47.6259 185.854 47.9316C185.765 48.2373 185.638 48.4921 185.46 48.7086C185.281 48.9251 185.039 49.0907 184.759 49.2054C184.466 49.3328 184.122 49.3837 183.714 49.3837ZM190.949 43.5244L188.338 50.3772H189.536L190.172 48.6322H192.835L193.484 50.3772H194.72L192.109 43.5244H190.949ZM192.516 47.6641H190.491L191.497 44.8364L192.516 47.6641Z" fill="#FCF7EE"/>
</svg>
