<svg width="27" height="27" viewBox="0 0 27 27" fill="none" xmlns="http://www.w3.org/2000/svg">
<path d="M13.1299 25.3049C19.7573 25.3049 25.1299 19.9323 25.1299 13.3049C25.1299 6.67751 19.7573 1.30493 13.1299 1.30493C6.50247 1.30493 1.12988 6.67751 1.12988 13.3049C1.12988 19.9323 6.50247 25.3049 13.1299 25.3049Z" stroke="white" stroke-width="2"/>
<path d="M13.1299 25.3049C19.7573 25.3049 25.1299 19.9323 25.1299 13.3049C25.1299 6.67751 19.7573 1.30493 13.1299 1.30493C6.50247 1.30493 1.12988 6.67751 1.12988 13.3049C1.12988 19.9323 6.50247 25.3049 13.1299 25.3049Z" stroke="black" stroke-opacity="0.4" stroke-width="2"/>
<path d="M12.2966 8.30493H13.9632V18.3049H12.2966V8.30493Z" fill="white"/>
<path d="M12.2966 8.30493H13.9632V18.3049H12.2966V8.30493Z" fill="black" fill-opacity="0.4"/>
<path d="M8.12988 14.1383V12.4717H18.1299V14.1383H8.12988Z" fill="white"/>
<path d="M8.12988 14.1383V12.4717H18.1299V14.1383H8.12988Z" fill="black" fill-opacity="0.4"/>
</svg>
