<svg width="120" height="22" viewBox="0 0 120 22" fill="none" xmlns="http://www.w3.org/2000/svg">
<path fill-rule="evenodd" clip-rule="evenodd" d="M11.7476 0L14.4007 8.21382V8.2136C14.4406 8.33655 14.555 8.41989 14.6842 8.41948L23.312 8.40248L16.3209 13.4614V13.4615C16.2163 13.5372 16.1725 13.672 16.2127 13.7947L18.8971 22L11.9226 16.9124C11.8183 16.8363 11.6767 16.8363 11.5724 16.9124L4.60162 21.9998L7.28582 13.795V13.7948C7.32604 13.6721 7.28229 13.5374 7.17759 13.4616L0.186615 8.40279L8.81441 8.4198V8.41959C8.94357 8.42 9.05801 8.33666 9.09782 8.21372L11.7476 0Z" fill="#FFB601"/>
<path fill-rule="evenodd" clip-rule="evenodd" d="M35.873 0L38.5261 8.21382V8.2136C38.5659 8.33655 38.6803 8.41989 38.8095 8.41948L47.4373 8.40248L40.4463 13.4614V13.4615C40.3416 13.5372 40.2978 13.672 40.338 13.7947L43.0225 22L36.048 16.9124C35.9437 16.8363 35.8021 16.8363 35.6978 16.9124L28.727 21.9998L31.4112 13.795V13.7948C31.4514 13.6721 31.4076 13.5374 31.3029 13.4616L24.312 8.40279L32.9398 8.4198V8.41959C33.0689 8.42 33.1834 8.33666 33.2232 8.21372L35.873 0Z" fill="#FFB601"/>
<path fill-rule="evenodd" clip-rule="evenodd" d="M59.9983 0L62.6514 8.21382V8.2136C62.6913 8.33655 62.8057 8.41989 62.9349 8.41948L71.5627 8.40248L64.5716 13.4614V13.4615C64.467 13.5372 64.4232 13.672 64.4634 13.7947L67.1478 22L60.1734 16.9124C60.0691 16.8363 59.9274 16.8363 59.8231 16.9124L52.8523 21.9998L55.5365 13.795V13.7948C55.5768 13.6721 55.533 13.5374 55.4283 13.4616L48.4373 8.40279L57.0651 8.4198V8.41959C57.1943 8.42 57.3087 8.33666 57.3485 8.21372L59.9983 0Z" fill="#FFB601"/>
<path fill-rule="evenodd" clip-rule="evenodd" d="M84.1237 0L86.7768 8.21382V8.2136C86.8166 8.33655 86.931 8.41989 87.0602 8.41948L95.688 8.40248L88.697 13.4614V13.4615C88.5923 13.5372 88.5486 13.672 88.5887 13.7947L91.2732 22L84.2987 16.9124C84.1944 16.8363 84.0528 16.8363 83.9485 16.9124L76.9777 21.9998L79.6619 13.795V13.7948C79.7021 13.6721 79.6584 13.5374 79.5537 13.4616L72.5627 8.40279L81.1905 8.4198V8.41959C81.3196 8.42 81.4341 8.33666 81.4739 8.21372L84.1237 0Z" fill="#FFB601"/>
<path fill-rule="evenodd" clip-rule="evenodd" d="M108.249 0L110.902 8.21382V8.2136C110.942 8.33655 111.056 8.41989 111.186 8.41948L119.813 8.40248L112.822 13.4614V13.4615C112.718 13.5372 112.674 13.672 112.714 13.7947L115.399 22L108.424 16.9124C108.32 16.8363 108.178 16.8363 108.074 16.9124L101.103 21.9998L103.787 13.795V13.7948C103.827 13.6721 103.784 13.5374 103.679 13.4616L96.688 8.40279L105.316 8.4198V8.41959C105.445 8.42 105.559 8.33666 105.599 8.21372L108.249 0Z" fill="#FFB601"/>
</svg>
