<svg width="294" height="38" viewBox="0 0 294 38" fill="none" xmlns="http://www.w3.org/2000/svg">
<path d="M0.912 5.432H2.364V8.9H6.216V5.432H7.668V14H6.216V10.244H2.364V14H0.912V5.432ZM12.2261 13.088C12.8021 13.088 13.2221 12.892 13.4861 12.5C13.7581 12.1 13.8941 11.556 13.8941 10.868C13.8941 10.188 13.7581 9.652 13.4861 9.26C13.2221 8.868 12.8021 8.672 12.2261 8.672C11.6501 8.672 11.2261 8.872 10.9541 9.272C10.6901 9.664 10.5581 10.196 10.5581 10.868C10.5581 11.548 10.6861 12.088 10.9421 12.488C11.2061 12.888 11.6341 13.088 12.2261 13.088ZM12.2141 14.192C11.2381 14.192 10.4821 13.904 9.94613 13.328C9.41013 12.752 9.14213 11.936 9.14213 10.88C9.14213 10.384 9.21013 9.932 9.34613 9.524C9.49013 9.116 9.69413 8.768 9.95813 8.48C10.2221 8.192 10.5461 7.968 10.9301 7.808C11.3141 7.648 11.7501 7.568 12.2381 7.568C12.7341 7.568 13.1741 7.652 13.5581 7.82C13.9421 7.98 14.2621 8.204 14.5181 8.492C14.7821 8.78 14.9781 9.128 15.1061 9.536C15.2421 9.936 15.3101 10.376 15.3101 10.856C15.3101 11.4 15.2341 11.88 15.0821 12.296C14.9301 12.704 14.7141 13.052 14.4341 13.34C14.1621 13.62 13.8381 13.832 13.4621 13.976C13.0861 14.12 12.6701 14.192 12.2141 14.192ZM16.0586 8.84V7.76H17.0426V6.08H18.3986V7.76H19.9466V8.84H18.3986V12.104C18.3986 12.424 18.4626 12.656 18.5906 12.8C18.7266 12.944 18.9226 13.016 19.1786 13.016C19.3146 13.016 19.4426 13.008 19.5626 12.992C19.6906 12.976 19.8146 12.948 19.9346 12.908L20.1386 13.928C19.7546 14.056 19.3386 14.12 18.8906 14.12C18.2026 14.12 17.7226 13.944 17.4506 13.592C17.1786 13.232 17.0426 12.696 17.0426 11.984V8.84H16.0586ZM23.1139 8.84V7.76H24.0859V7.4C24.0859 7.064 24.1339 6.772 24.2299 6.524C24.3259 6.268 24.4579 6.056 24.6259 5.888C24.8019 5.712 25.0059 5.58 25.2379 5.492C25.4779 5.404 25.7379 5.356 26.0179 5.348C26.0659 5.34 26.1139 5.34 26.1619 5.348C26.2099 5.348 26.2659 5.348 26.3299 5.348C26.4979 5.364 26.6579 5.38 26.8099 5.396C26.9619 5.412 27.1259 5.448 27.3019 5.504L27.0979 6.524C26.8419 6.452 26.6019 6.416 26.3779 6.416C26.1219 6.416 25.9019 6.488 25.7179 6.632C25.5419 6.776 25.4539 7.02 25.4539 7.364V7.76H26.9659V8.84H25.4539V14H24.0859V8.84H23.1139ZM29.3539 5.432V14H27.9859V5.432H29.3539ZM33.8006 11.084C33.3926 11.108 33.0606 11.152 32.8046 11.216C32.5566 11.28 32.3646 11.364 32.2286 11.468C32.0926 11.564 32.0006 11.68 31.9526 11.816C31.9126 11.944 31.8926 12.084 31.8926 12.236C31.8926 12.508 31.9766 12.72 32.1446 12.872C32.3206 13.024 32.5766 13.1 32.9126 13.1C33.5126 13.1 33.9566 12.948 34.2446 12.644C34.5326 12.34 34.6766 11.928 34.6766 11.408V11.048L33.8006 11.084ZM34.7006 13.184C34.4686 13.464 34.1846 13.696 33.8486 13.88C33.5126 14.064 33.1046 14.156 32.6246 14.156C32.3286 14.156 32.0526 14.116 31.7966 14.036C31.5406 13.964 31.3166 13.852 31.1246 13.7C30.9406 13.548 30.7926 13.356 30.6806 13.124C30.5766 12.884 30.5246 12.604 30.5246 12.284C30.5246 11.852 30.6206 11.504 30.8126 11.24C31.0046 10.968 31.2526 10.756 31.5566 10.604C31.8686 10.452 32.2166 10.348 32.6006 10.292C32.9846 10.228 33.3686 10.188 33.7526 10.172L34.6766 10.124V9.86C34.6766 9.388 34.5606 9.064 34.3286 8.888C34.1046 8.704 33.8086 8.612 33.4406 8.612C33.0166 8.612 32.7006 8.684 32.4926 8.828C32.2926 8.972 32.1606 9.18 32.0966 9.452L30.8486 9.32C30.9606 8.712 31.2366 8.268 31.6766 7.988C32.1166 7.708 32.7206 7.568 33.4886 7.568C33.9846 7.568 34.3926 7.632 34.7126 7.76C35.0406 7.888 35.3006 8.064 35.4926 8.288C35.6846 8.512 35.8166 8.78 35.8886 9.092C35.9686 9.396 36.0086 9.732 36.0086 10.1V14H34.7006V13.184ZM38.4426 12.092C38.4666 12.3 38.5226 12.472 38.6106 12.608C38.6986 12.736 38.8066 12.84 38.9346 12.92C39.0706 13 39.2266 13.056 39.4026 13.088C39.5786 13.112 39.7666 13.124 39.9666 13.124C40.4226 13.124 40.7506 13.056 40.9506 12.92C41.1506 12.784 41.2506 12.584 41.2506 12.32C41.2506 12.112 41.1866 11.936 41.0586 11.792C40.9386 11.648 40.6866 11.544 40.3026 11.48C39.8066 11.392 39.3706 11.308 38.9946 11.228C38.6186 11.148 38.3026 11.04 38.0466 10.904C37.7906 10.76 37.5986 10.58 37.4706 10.364C37.3426 10.14 37.2786 9.84 37.2786 9.464C37.2786 9.176 37.3426 8.916 37.4706 8.684C37.5986 8.444 37.7746 8.244 37.9986 8.084C38.2306 7.916 38.5026 7.788 38.8146 7.7C39.1346 7.612 39.4826 7.568 39.8586 7.568C40.3386 7.568 40.7386 7.616 41.0586 7.712C41.3786 7.808 41.6386 7.94 41.8386 8.108C42.0386 8.276 42.1906 8.468 42.2946 8.684C42.3986 8.9 42.4786 9.128 42.5346 9.368L41.3106 9.536C41.2146 9.224 41.0666 8.992 40.8666 8.84C40.6746 8.688 40.3506 8.612 39.8946 8.612C39.6306 8.612 39.4146 8.636 39.2466 8.684C39.0786 8.732 38.9426 8.792 38.8386 8.864C38.7426 8.936 38.6746 9.016 38.6346 9.104C38.6026 9.192 38.5866 9.28 38.5866 9.368C38.5866 9.504 38.6026 9.616 38.6346 9.704C38.6666 9.792 38.7226 9.864 38.8026 9.92C38.8906 9.976 39.0066 10.024 39.1506 10.064C39.2946 10.104 39.4746 10.144 39.6906 10.184L40.4706 10.316C40.8866 10.388 41.2306 10.48 41.5026 10.592C41.7826 10.704 42.0026 10.844 42.1626 11.012C42.3306 11.172 42.4466 11.36 42.5106 11.576C42.5746 11.792 42.6066 12.032 42.6066 12.296C42.6066 12.864 42.3906 13.324 41.9586 13.676C41.5266 14.02 40.8706 14.192 39.9906 14.192C39.6306 14.192 39.2826 14.156 38.9466 14.084C38.6186 14.02 38.3226 13.908 38.0586 13.748C37.7946 13.588 37.5786 13.376 37.4106 13.112C37.2506 12.84 37.1586 12.5 37.1346 12.092H38.4426ZM45.2258 5.432V8.624C45.4898 8.264 45.7938 8 46.1378 7.832C46.4898 7.656 46.8618 7.568 47.2538 7.568C48.6458 7.568 49.3418 8.336 49.3418 9.872V14H47.9738V10.088C47.9738 9.584 47.8818 9.232 47.6978 9.032C47.5138 8.824 47.2418 8.72 46.8818 8.72C46.6338 8.72 46.4058 8.764 46.1978 8.852C45.9978 8.94 45.8258 9.056 45.6818 9.2C45.5378 9.344 45.4258 9.512 45.3458 9.704C45.2658 9.888 45.2258 10.08 45.2258 10.28V14H43.8698V5.432H45.2258ZM56.3865 12.152C56.2745 12.8 55.9985 13.304 55.5585 13.664C55.1185 14.016 54.4865 14.192 53.6625 14.192C52.6705 14.192 51.9145 13.908 51.3945 13.34C50.8825 12.764 50.6265 11.956 50.6265 10.916C50.6265 10.38 50.6985 9.904 50.8425 9.488C50.9945 9.072 51.2025 8.724 51.4665 8.444C51.7385 8.156 52.0585 7.94 52.4265 7.796C52.8025 7.644 53.2145 7.568 53.6625 7.568C54.1425 7.568 54.5585 7.644 54.9105 7.796C55.2625 7.94 55.5545 8.148 55.7865 8.42C56.0185 8.684 56.1905 9.004 56.3025 9.38C56.4145 9.748 56.4705 10.16 56.4705 10.616V11.216H51.9945C52.0105 11.784 52.1545 12.244 52.4265 12.596C52.6985 12.948 53.1105 13.124 53.6625 13.124C54.0945 13.124 54.4185 13.04 54.6345 12.872C54.8505 12.704 54.9945 12.464 55.0665 12.152H56.3865ZM55.1385 10.268C55.1385 9.756 55.0185 9.352 54.7785 9.056C54.5385 8.76 54.1545 8.612 53.6265 8.612C53.1225 8.612 52.7385 8.764 52.4745 9.068C52.2105 9.364 52.0585 9.764 52.0185 10.268H55.1385ZM58.7394 12.092C58.7634 12.3 58.8194 12.472 58.9074 12.608C58.9954 12.736 59.1034 12.84 59.2314 12.92C59.3674 13 59.5234 13.056 59.6994 13.088C59.8754 13.112 60.0634 13.124 60.2634 13.124C60.7194 13.124 61.0474 13.056 61.2474 12.92C61.4474 12.784 61.5474 12.584 61.5474 12.32C61.5474 12.112 61.4834 11.936 61.3554 11.792C61.2354 11.648 60.9834 11.544 60.5994 11.48C60.1034 11.392 59.6674 11.308 59.2914 11.228C58.9154 11.148 58.5994 11.04 58.3434 10.904C58.0874 10.76 57.8954 10.58 57.7674 10.364C57.6394 10.14 57.5754 9.84 57.5754 9.464C57.5754 9.176 57.6394 8.916 57.7674 8.684C57.8954 8.444 58.0714 8.244 58.2954 8.084C58.5274 7.916 58.7994 7.788 59.1114 7.7C59.4314 7.612 59.7794 7.568 60.1554 7.568C60.6354 7.568 61.0354 7.616 61.3554 7.712C61.6754 7.808 61.9354 7.94 62.1354 8.108C62.3354 8.276 62.4874 8.468 62.5914 8.684C62.6954 8.9 62.7754 9.128 62.8314 9.368L61.6074 9.536C61.5114 9.224 61.3634 8.992 61.1634 8.84C60.9714 8.688 60.6474 8.612 60.1914 8.612C59.9274 8.612 59.7114 8.636 59.5434 8.684C59.3754 8.732 59.2394 8.792 59.1354 8.864C59.0394 8.936 58.9714 9.016 58.9314 9.104C58.8994 9.192 58.8834 9.28 58.8834 9.368C58.8834 9.504 58.8994 9.616 58.9314 9.704C58.9634 9.792 59.0194 9.864 59.0994 9.92C59.1874 9.976 59.3034 10.024 59.4474 10.064C59.5914 10.104 59.7714 10.144 59.9874 10.184L60.7674 10.316C61.1834 10.388 61.5274 10.48 61.7994 10.592C62.0794 10.704 62.2994 10.844 62.4594 11.012C62.6274 11.172 62.7434 11.36 62.8074 11.576C62.8714 11.792 62.9034 12.032 62.9034 12.296C62.9034 12.864 62.6874 13.324 62.2554 13.676C61.8234 14.02 61.1674 14.192 60.2874 14.192C59.9274 14.192 59.5794 14.156 59.2434 14.084C58.9154 14.02 58.6194 13.908 58.3554 13.748C58.0914 13.588 57.8754 13.376 57.7074 13.112C57.5474 12.84 57.4554 12.5 57.4314 12.092H58.7394ZM69.4906 8.672C69.6186 8.6 69.7386 8.52 69.8506 8.432C69.9706 8.336 70.0746 8.232 70.1626 8.12C70.2506 8.008 70.3226 7.884 70.3786 7.748C70.4346 7.612 70.4626 7.46 70.4626 7.292C70.4626 6.988 70.3826 6.756 70.2226 6.596C70.0626 6.436 69.8466 6.356 69.5746 6.356C68.9666 6.356 68.6626 6.684 68.6626 7.34C68.6626 7.492 68.6866 7.636 68.7346 7.772C68.7906 7.908 68.8546 8.036 68.9266 8.156C69.0066 8.268 69.0866 8.372 69.1666 8.468C69.2546 8.564 69.3306 8.648 69.3946 8.72L69.4906 8.672ZM68.9146 10.028C68.6186 10.196 68.3626 10.404 68.1466 10.652C67.9306 10.892 67.8226 11.188 67.8226 11.54C67.8226 11.764 67.8506 11.972 67.9066 12.164C67.9706 12.356 68.0706 12.52 68.2066 12.656C68.3506 12.792 68.5346 12.9 68.7586 12.98C68.9906 13.06 69.2786 13.1 69.6226 13.1C69.9586 13.1 70.2426 13.052 70.4746 12.956C70.7066 12.852 70.9026 12.72 71.0626 12.56L68.9146 10.028ZM71.7706 13.364C71.4986 13.604 71.1786 13.804 70.8106 13.964C70.4426 14.116 70.0106 14.192 69.5146 14.192C68.9146 14.192 68.4186 14.12 68.0266 13.976C67.6346 13.832 67.3186 13.644 67.0786 13.412C66.8466 13.18 66.6826 12.916 66.5866 12.62C66.4986 12.324 66.4546 12.024 66.4546 11.72C66.4546 11.4 66.5066 11.116 66.6106 10.868C66.7146 10.612 66.8506 10.388 67.0186 10.196C67.1946 9.996 67.3906 9.82 67.6066 9.668C67.8306 9.516 68.0586 9.372 68.2906 9.236C68.0746 8.996 67.8746 8.712 67.6906 8.384C67.5066 8.056 67.4146 7.7 67.4146 7.316C67.4146 7.036 67.4666 6.776 67.5706 6.536C67.6746 6.296 67.8186 6.092 68.0026 5.924C68.1866 5.748 68.4106 5.612 68.6746 5.516C68.9386 5.412 69.2266 5.36 69.5386 5.36C70.1386 5.36 70.6186 5.508 70.9786 5.804C71.3466 6.092 71.5626 6.472 71.6266 6.944C71.6426 7.008 71.6506 7.072 71.6506 7.136C71.6506 7.2 71.6506 7.264 71.6506 7.328C71.6346 7.584 71.5786 7.816 71.4826 8.024C71.3866 8.232 71.2626 8.42 71.1106 8.588C70.9666 8.756 70.7946 8.908 70.5946 9.044C70.4026 9.18 70.2066 9.308 70.0066 9.428L71.8066 11.552C71.9186 11.272 71.9946 10.992 72.0346 10.712C72.0826 10.432 72.1106 10.136 72.1186 9.824H73.3546C73.3466 10.32 73.2746 10.792 73.1386 11.24C73.0026 11.688 72.8186 12.1 72.5866 12.476L73.8946 14H72.3106L71.7706 13.364ZM2.1 23.76V24.672C2.38 24.288 2.692 24.008 3.036 23.832C3.388 23.656 3.764 23.568 4.164 23.568C5.556 23.568 6.252 24.336 6.252 25.872V30H4.884V26.088C4.884 25.584 4.792 25.232 4.608 25.032C4.424 24.824 4.152 24.72 3.792 24.72C3.552 24.72 3.328 24.764 3.12 24.852C2.92 24.932 2.748 25.044 2.604 25.188C2.46 25.332 2.344 25.5 2.256 25.692C2.176 25.876 2.136 26.072 2.136 26.28V30H0.78V23.76H2.1ZM9.15666 21.432V22.788H7.74066V21.432H9.15666ZM9.13266 23.76V30H7.76466V23.76H9.13266ZM15.1098 26.652C15.1098 26.268 15.0618 25.948 14.9658 25.692C14.8778 25.436 14.7578 25.236 14.6058 25.092C14.4618 24.94 14.2898 24.836 14.0898 24.78C13.8978 24.716 13.7018 24.684 13.5018 24.684C12.9978 24.684 12.6058 24.856 12.3258 25.2C12.0538 25.544 11.9178 26.048 11.9178 26.712C11.9178 27.088 11.9578 27.408 12.0378 27.672C12.1258 27.928 12.2378 28.136 12.3738 28.296C12.5098 28.456 12.6698 28.572 12.8538 28.644C13.0378 28.716 13.2338 28.752 13.4418 28.752C14.0258 28.752 14.4498 28.576 14.7138 28.224C14.9778 27.872 15.1098 27.372 15.1098 26.724V26.652ZM12.1098 30.48C12.2058 31.08 12.6298 31.38 13.3818 31.38H13.6938C13.9978 31.372 14.2418 31.308 14.4258 31.188C14.6098 31.076 14.7498 30.924 14.8458 30.732C14.9498 30.54 15.0178 30.32 15.0498 30.072C15.0818 29.824 15.0978 29.56 15.0978 29.28V28.86C14.6338 29.516 13.9738 29.844 13.1178 29.844C12.6698 29.844 12.2778 29.768 11.9418 29.616C11.6138 29.456 11.3418 29.24 11.1258 28.968C10.9098 28.688 10.7498 28.356 10.6458 27.972C10.5418 27.588 10.4898 27.172 10.4898 26.724C10.4898 26.292 10.5458 25.888 10.6578 25.512C10.7778 25.128 10.9498 24.796 11.1738 24.516C11.3978 24.228 11.6738 24.004 12.0018 23.844C12.3298 23.676 12.7058 23.588 13.1298 23.58C13.2578 23.572 13.4018 23.58 13.5618 23.604C13.8498 23.644 14.1258 23.732 14.3898 23.868C14.6538 23.996 14.9018 24.212 15.1338 24.516V23.76H16.4658V29.136C16.4658 29.672 16.4138 30.144 16.3098 30.552C16.2058 30.968 16.0378 31.316 15.8058 31.596C15.5818 31.884 15.2858 32.1 14.9178 32.244C14.5498 32.388 14.1018 32.46 13.5738 32.46C12.6378 32.46 11.9498 32.296 11.5098 31.968C11.0698 31.64 10.8138 31.144 10.7418 30.48H12.1098ZM19.3743 21.432V24.624C19.6383 24.264 19.9423 24 20.2863 23.832C20.6383 23.656 21.0103 23.568 21.4023 23.568C22.7943 23.568 23.4903 24.336 23.4903 25.872V30H22.1223V26.088C22.1223 25.584 22.0303 25.232 21.8463 25.032C21.6623 24.824 21.3903 24.72 21.0303 24.72C20.7823 24.72 20.5543 24.764 20.3463 24.852C20.1463 24.94 19.9743 25.056 19.8303 25.2C19.6863 25.344 19.5743 25.512 19.4943 25.704C19.4143 25.888 19.3743 26.08 19.3743 26.28V30H18.0183V21.432H19.3743ZM24.3789 24.84V23.76H25.3629V22.08H26.7189V23.76H28.2669V24.84H26.7189V28.104C26.7189 28.424 26.7829 28.656 26.9109 28.8C27.0469 28.944 27.2429 29.016 27.4989 29.016C27.6349 29.016 27.7629 29.008 27.8829 28.992C28.0109 28.976 28.1349 28.948 28.2549 28.908L28.4589 29.928C28.0749 30.056 27.6589 30.12 27.2109 30.12C26.5229 30.12 26.0429 29.944 25.7709 29.592C25.4989 29.232 25.3629 28.696 25.3629 27.984V24.84H24.3789ZM32.9582 28.092C32.9822 28.3 33.0382 28.472 33.1262 28.608C33.2142 28.736 33.3222 28.84 33.4502 28.92C33.5862 29 33.7422 29.056 33.9182 29.088C34.0942 29.112 34.2822 29.124 34.4822 29.124C34.9382 29.124 35.2662 29.056 35.4662 28.92C35.6662 28.784 35.7662 28.584 35.7662 28.32C35.7662 28.112 35.7022 27.936 35.5742 27.792C35.4542 27.648 35.2022 27.544 34.8182 27.48C34.3222 27.392 33.8862 27.308 33.5102 27.228C33.1342 27.148 32.8182 27.04 32.5622 26.904C32.3062 26.76 32.1142 26.58 31.9862 26.364C31.8582 26.14 31.7942 25.84 31.7942 25.464C31.7942 25.176 31.8582 24.916 31.9862 24.684C32.1142 24.444 32.2902 24.244 32.5142 24.084C32.7462 23.916 33.0182 23.788 33.3302 23.7C33.6502 23.612 33.9982 23.568 34.3742 23.568C34.8542 23.568 35.2542 23.616 35.5742 23.712C35.8942 23.808 36.1542 23.94 36.3542 24.108C36.5542 24.276 36.7062 24.468 36.8102 24.684C36.9142 24.9 36.9942 25.128 37.0502 25.368L35.8262 25.536C35.7302 25.224 35.5822 24.992 35.3822 24.84C35.1902 24.688 34.8662 24.612 34.4102 24.612C34.1462 24.612 33.9302 24.636 33.7622 24.684C33.5942 24.732 33.4582 24.792 33.3542 24.864C33.2582 24.936 33.1902 25.016 33.1502 25.104C33.1182 25.192 33.1022 25.28 33.1022 25.368C33.1022 25.504 33.1182 25.616 33.1502 25.704C33.1822 25.792 33.2382 25.864 33.3182 25.92C33.4062 25.976 33.5222 26.024 33.6662 26.064C33.8102 26.104 33.9902 26.144 34.2062 26.184L34.9862 26.316C35.4022 26.388 35.7462 26.48 36.0182 26.592C36.2982 26.704 36.5182 26.844 36.6782 27.012C36.8462 27.172 36.9622 27.36 37.0262 27.576C37.0902 27.792 37.1222 28.032 37.1222 28.296C37.1222 28.864 36.9062 29.324 36.4742 29.676C36.0422 30.02 35.3862 30.192 34.5062 30.192C34.1462 30.192 33.7982 30.156 33.4622 30.084C33.1342 30.02 32.8382 29.908 32.5742 29.748C32.3102 29.588 32.0942 29.376 31.9262 29.112C31.7662 28.84 31.6742 28.5 31.6502 28.092H32.9582ZM39.1775 23.76L40.2335 28.32L41.5535 23.808H42.8015L44.0735 28.32L45.1295 23.76H46.5575L44.7335 30H43.3775L42.1175 25.464L40.8455 30H39.5015L37.6895 23.76H39.1775ZM52.8123 28.152C52.7003 28.8 52.4243 29.304 51.9843 29.664C51.5443 30.016 50.9123 30.192 50.0883 30.192C49.0963 30.192 48.3403 29.908 47.8203 29.34C47.3083 28.764 47.0523 27.956 47.0523 26.916C47.0523 26.38 47.1243 25.904 47.2683 25.488C47.4203 25.072 47.6283 24.724 47.8923 24.444C48.1643 24.156 48.4843 23.94 48.8523 23.796C49.2283 23.644 49.6403 23.568 50.0883 23.568C50.5683 23.568 50.9843 23.644 51.3363 23.796C51.6883 23.94 51.9803 24.148 52.2123 24.42C52.4443 24.684 52.6163 25.004 52.7283 25.38C52.8403 25.748 52.8963 26.16 52.8963 26.616V27.216H48.4203C48.4363 27.784 48.5803 28.244 48.8523 28.596C49.1243 28.948 49.5363 29.124 50.0883 29.124C50.5203 29.124 50.8443 29.04 51.0603 28.872C51.2763 28.704 51.4203 28.464 51.4923 28.152H52.8123ZM51.5643 26.268C51.5643 25.756 51.4443 25.352 51.2043 25.056C50.9643 24.76 50.5803 24.612 50.0523 24.612C49.5483 24.612 49.1643 24.764 48.9003 25.068C48.6363 25.364 48.4843 25.764 48.4443 26.268H51.5643ZM57.1092 27.084C56.7012 27.108 56.3692 27.152 56.1132 27.216C55.8652 27.28 55.6732 27.364 55.5372 27.468C55.4012 27.564 55.3092 27.68 55.2612 27.816C55.2212 27.944 55.2012 28.084 55.2012 28.236C55.2012 28.508 55.2852 28.72 55.4532 28.872C55.6292 29.024 55.8852 29.1 56.2212 29.1C56.8212 29.1 57.2652 28.948 57.5532 28.644C57.8412 28.34 57.9852 27.928 57.9852 27.408V27.048L57.1092 27.084ZM58.0092 29.184C57.7772 29.464 57.4932 29.696 57.1572 29.88C56.8212 30.064 56.4132 30.156 55.9332 30.156C55.6372 30.156 55.3612 30.116 55.1052 30.036C54.8492 29.964 54.6252 29.852 54.4332 29.7C54.2492 29.548 54.1012 29.356 53.9892 29.124C53.8852 28.884 53.8332 28.604 53.8332 28.284C53.8332 27.852 53.9292 27.504 54.1212 27.24C54.3132 26.968 54.5612 26.756 54.8652 26.604C55.1772 26.452 55.5252 26.348 55.9092 26.292C56.2932 26.228 56.6772 26.188 57.0612 26.172L57.9852 26.124V25.86C57.9852 25.388 57.8692 25.064 57.6372 24.888C57.4132 24.704 57.1172 24.612 56.7492 24.612C56.3252 24.612 56.0092 24.684 55.8012 24.828C55.6012 24.972 55.4692 25.18 55.4052 25.452L54.1572 25.32C54.2692 24.712 54.5452 24.268 54.9852 23.988C55.4252 23.708 56.0292 23.568 56.7972 23.568C57.2932 23.568 57.7012 23.632 58.0212 23.76C58.3492 23.888 58.6092 24.064 58.8012 24.288C58.9932 24.512 59.1252 24.78 59.1972 25.092C59.2772 25.396 59.3172 25.732 59.3172 26.1V30H58.0092V29.184ZM60.2032 24.84V23.76H61.1872V22.08H62.5432V23.76H64.0912V24.84H62.5432V28.104C62.5432 28.424 62.6072 28.656 62.7352 28.8C62.8712 28.944 63.0672 29.016 63.3232 29.016C63.4592 29.016 63.5872 29.008 63.7072 28.992C63.8352 28.976 63.9592 28.948 64.0792 28.908L64.2832 29.928C63.8992 30.056 63.4832 30.12 63.0352 30.12C62.3472 30.12 61.8672 29.944 61.5952 29.592C61.3232 29.232 61.1872 28.696 61.1872 27.984V24.84H60.2032ZM66.1105 28.092C66.1345 28.3 66.1905 28.472 66.2785 28.608C66.3665 28.736 66.4745 28.84 66.6025 28.92C66.7385 29 66.8945 29.056 67.0705 29.088C67.2465 29.112 67.4345 29.124 67.6345 29.124C68.0905 29.124 68.4185 29.056 68.6185 28.92C68.8185 28.784 68.9185 28.584 68.9185 28.32C68.9185 28.112 68.8545 27.936 68.7265 27.792C68.6065 27.648 68.3545 27.544 67.9705 27.48C67.4745 27.392 67.0385 27.308 66.6625 27.228C66.2865 27.148 65.9705 27.04 65.7145 26.904C65.4585 26.76 65.2665 26.58 65.1385 26.364C65.0105 26.14 64.9465 25.84 64.9465 25.464C64.9465 25.176 65.0105 24.916 65.1385 24.684C65.2665 24.444 65.4425 24.244 65.6665 24.084C65.8985 23.916 66.1705 23.788 66.4825 23.7C66.8025 23.612 67.1505 23.568 67.5265 23.568C68.0065 23.568 68.4065 23.616 68.7265 23.712C69.0465 23.808 69.3065 23.94 69.5065 24.108C69.7065 24.276 69.8585 24.468 69.9625 24.684C70.0665 24.9 70.1465 25.128 70.2025 25.368L68.9785 25.536C68.8825 25.224 68.7345 24.992 68.5345 24.84C68.3425 24.688 68.0185 24.612 67.5625 24.612C67.2985 24.612 67.0825 24.636 66.9145 24.684C66.7465 24.732 66.6105 24.792 66.5065 24.864C66.4105 24.936 66.3425 25.016 66.3025 25.104C66.2705 25.192 66.2545 25.28 66.2545 25.368C66.2545 25.504 66.2705 25.616 66.3025 25.704C66.3345 25.792 66.3905 25.864 66.4705 25.92C66.5585 25.976 66.6745 26.024 66.8185 26.064C66.9625 26.104 67.1425 26.144 67.3585 26.184L68.1385 26.316C68.5545 26.388 68.8985 26.48 69.1705 26.592C69.4505 26.704 69.6705 26.844 69.8305 27.012C69.9985 27.172 70.1145 27.36 70.1785 27.576C70.2425 27.792 70.2745 28.032 70.2745 28.296C70.2745 28.864 70.0585 29.324 69.6265 29.676C69.1945 30.02 68.5385 30.192 67.6585 30.192C67.2985 30.192 66.9505 30.156 66.6145 30.084C66.2865 30.02 65.9905 29.908 65.7265 29.748C65.4625 29.588 65.2465 29.376 65.0785 29.112C64.9185 28.84 64.8265 28.5 64.8025 28.092H66.1105Z" fill="#FCF7EE"/>
<path d="M93 1L93 37" stroke="#FCF7EE" stroke-linecap="round"/>
<path d="M109.912 5.432H111.676L114.112 12.248L116.62 5.432H118.324V14H116.992V7.772L114.64 14H113.488L111.22 7.784V14H109.912V5.432ZM122.878 13.088C123.454 13.088 123.874 12.892 124.138 12.5C124.41 12.1 124.546 11.556 124.546 10.868C124.546 10.188 124.41 9.652 124.138 9.26C123.874 8.868 123.454 8.672 122.878 8.672C122.302 8.672 121.878 8.872 121.606 9.272C121.342 9.664 121.21 10.196 121.21 10.868C121.21 11.548 121.338 12.088 121.594 12.488C121.858 12.888 122.286 13.088 122.878 13.088ZM122.866 14.192C121.89 14.192 121.134 13.904 120.598 13.328C120.062 12.752 119.794 11.936 119.794 10.88C119.794 10.384 119.862 9.932 119.998 9.524C120.142 9.116 120.346 8.768 120.61 8.48C120.874 8.192 121.198 7.968 121.582 7.808C121.966 7.648 122.402 7.568 122.89 7.568C123.386 7.568 123.826 7.652 124.21 7.82C124.594 7.98 124.914 8.204 125.17 8.492C125.434 8.78 125.63 9.128 125.758 9.536C125.894 9.936 125.962 10.376 125.962 10.856C125.962 11.4 125.886 11.88 125.734 12.296C125.582 12.704 125.366 13.052 125.086 13.34C124.814 13.62 124.49 13.832 124.114 13.976C123.738 14.12 123.322 14.192 122.866 14.192ZM130.191 13.088C130.767 13.088 131.187 12.892 131.451 12.5C131.723 12.1 131.859 11.556 131.859 10.868C131.859 10.188 131.723 9.652 131.451 9.26C131.187 8.868 130.767 8.672 130.191 8.672C129.615 8.672 129.191 8.872 128.919 9.272C128.655 9.664 128.523 10.196 128.523 10.868C128.523 11.548 128.651 12.088 128.907 12.488C129.171 12.888 129.599 13.088 130.191 13.088ZM130.179 14.192C129.203 14.192 128.447 13.904 127.911 13.328C127.375 12.752 127.107 11.936 127.107 10.88C127.107 10.384 127.175 9.932 127.311 9.524C127.455 9.116 127.659 8.768 127.923 8.48C128.187 8.192 128.511 7.968 128.895 7.808C129.279 7.648 129.715 7.568 130.203 7.568C130.699 7.568 131.139 7.652 131.523 7.82C131.907 7.98 132.227 8.204 132.483 8.492C132.747 8.78 132.943 9.128 133.071 9.536C133.207 9.936 133.275 10.376 133.275 10.856C133.275 11.4 133.199 11.88 133.047 12.296C132.895 12.704 132.679 13.052 132.399 13.34C132.127 13.62 131.803 13.832 131.427 13.976C131.051 14.12 130.635 14.192 130.179 14.192ZM139.039 10.748C139.039 10.356 138.995 10.028 138.907 9.764C138.827 9.492 138.711 9.28 138.559 9.128C138.415 8.968 138.243 8.856 138.043 8.792C137.851 8.72 137.647 8.684 137.431 8.684C136.927 8.684 136.535 8.864 136.255 9.224C135.983 9.584 135.847 10.132 135.847 10.868C135.847 11.268 135.883 11.608 135.955 11.888C136.035 12.168 136.143 12.396 136.279 12.572C136.423 12.748 136.587 12.876 136.771 12.956C136.955 13.036 137.155 13.076 137.371 13.076C137.867 13.076 138.267 12.916 138.571 12.596C138.883 12.268 139.039 11.76 139.039 11.072V10.748ZM139.051 13.136C138.795 13.488 138.503 13.752 138.175 13.928C137.855 14.104 137.479 14.192 137.047 14.192C136.599 14.192 136.211 14.112 135.883 13.952C135.555 13.792 135.283 13.568 135.067 13.28C134.851 12.984 134.687 12.636 134.575 12.236C134.471 11.828 134.419 11.38 134.419 10.892C134.419 10.436 134.475 10.012 134.587 9.62C134.699 9.22 134.863 8.876 135.079 8.588C135.295 8.292 135.559 8.056 135.871 7.88C136.191 7.704 136.559 7.608 136.975 7.592C137.055 7.584 137.135 7.584 137.215 7.592C137.295 7.592 137.379 7.596 137.467 7.604C137.747 7.636 138.015 7.716 138.271 7.844C138.535 7.964 138.787 8.168 139.027 8.456V5.432H140.383V14H139.051V13.136ZM145.7 11.384C145.764 11.944 145.964 12.352 146.3 12.608C146.644 12.864 147.152 12.992 147.824 12.992C148.152 12.992 148.428 12.956 148.652 12.884C148.876 12.812 149.056 12.716 149.192 12.596C149.328 12.476 149.424 12.336 149.48 12.176C149.536 12.008 149.564 11.832 149.564 11.648C149.564 11.512 149.544 11.38 149.504 11.252C149.464 11.116 149.392 10.992 149.288 10.88C149.184 10.768 149.044 10.672 148.868 10.592C148.692 10.504 148.468 10.436 148.196 10.388L147.104 10.184C146.672 10.104 146.288 10.004 145.952 9.884C145.616 9.764 145.332 9.608 145.1 9.416C144.876 9.216 144.704 8.976 144.584 8.696C144.472 8.408 144.416 8.06 144.416 7.652C144.416 7.244 144.496 6.888 144.656 6.584C144.824 6.28 145.052 6.028 145.34 5.828C145.628 5.62 145.968 5.468 146.36 5.372C146.76 5.268 147.192 5.216 147.656 5.216C148.248 5.216 148.744 5.284 149.144 5.42C149.544 5.556 149.868 5.736 150.116 5.96C150.364 6.176 150.552 6.428 150.68 6.716C150.808 7.004 150.896 7.304 150.944 7.616L149.576 7.832C149.464 7.352 149.268 6.996 148.988 6.764C148.716 6.532 148.28 6.416 147.68 6.416C147.336 6.416 147.048 6.448 146.816 6.512C146.592 6.568 146.408 6.652 146.264 6.764C146.128 6.868 146.028 6.992 145.964 7.136C145.908 7.272 145.88 7.416 145.88 7.568C145.88 7.944 145.98 8.224 146.18 8.408C146.388 8.592 146.748 8.736 147.26 8.84L148.448 9.068C149.352 9.236 150.016 9.524 150.44 9.932C150.864 10.332 151.076 10.912 151.076 11.672C151.076 12.032 151.008 12.368 150.872 12.68C150.744 12.984 150.544 13.252 150.272 13.484C150 13.708 149.66 13.884 149.252 14.012C148.852 14.148 148.384 14.216 147.848 14.216C146.752 14.216 145.892 13.988 145.268 13.532C144.644 13.068 144.3 12.352 144.236 11.384H145.7ZM153.31 7.76L154.366 12.32L155.686 7.808H156.934L158.206 12.32L159.262 7.76H160.69L158.866 14H157.51L156.25 9.464L154.978 14H153.634L151.822 7.76H153.31ZM162.957 5.432V6.788H161.541V5.432H162.957ZM162.933 7.76V14H161.565V7.76H162.933ZM165.827 7.76V8.672C166.107 8.288 166.419 8.008 166.763 7.832C167.115 7.656 167.491 7.568 167.891 7.568C169.283 7.568 169.979 8.336 169.979 9.872V14H168.611V10.088C168.611 9.584 168.519 9.232 168.335 9.032C168.151 8.824 167.879 8.72 167.519 8.72C167.279 8.72 167.055 8.764 166.847 8.852C166.647 8.932 166.475 9.044 166.331 9.188C166.187 9.332 166.071 9.5 165.983 9.692C165.903 9.876 165.863 10.072 165.863 10.28V14H164.507V7.76H165.827ZM175.883 10.652C175.883 10.268 175.835 9.948 175.739 9.692C175.651 9.436 175.531 9.236 175.379 9.092C175.235 8.94 175.063 8.836 174.863 8.78C174.671 8.716 174.475 8.684 174.275 8.684C173.771 8.684 173.379 8.856 173.099 9.2C172.827 9.544 172.691 10.048 172.691 10.712C172.691 11.088 172.731 11.408 172.811 11.672C172.899 11.928 173.011 12.136 173.147 12.296C173.283 12.456 173.443 12.572 173.627 12.644C173.811 12.716 174.007 12.752 174.215 12.752C174.799 12.752 175.223 12.576 175.487 12.224C175.751 11.872 175.883 11.372 175.883 10.724V10.652ZM172.883 14.48C172.979 15.08 173.403 15.38 174.155 15.38H174.467C174.771 15.372 175.015 15.308 175.199 15.188C175.383 15.076 175.523 14.924 175.619 14.732C175.723 14.54 175.791 14.32 175.823 14.072C175.855 13.824 175.871 13.56 175.871 13.28V12.86C175.407 13.516 174.747 13.844 173.891 13.844C173.443 13.844 173.051 13.768 172.715 13.616C172.387 13.456 172.115 13.24 171.899 12.968C171.683 12.688 171.523 12.356 171.419 11.972C171.315 11.588 171.263 11.172 171.263 10.724C171.263 10.292 171.319 9.888 171.431 9.512C171.551 9.128 171.723 8.796 171.947 8.516C172.171 8.228 172.447 8.004 172.775 7.844C173.103 7.676 173.479 7.588 173.903 7.58C174.031 7.572 174.175 7.58 174.335 7.604C174.623 7.644 174.899 7.732 175.163 7.868C175.427 7.996 175.675 8.212 175.907 8.516V7.76H177.239V13.136C177.239 13.672 177.187 14.144 177.083 14.552C176.979 14.968 176.811 15.316 176.579 15.596C176.355 15.884 176.059 16.1 175.691 16.244C175.323 16.388 174.875 16.46 174.347 16.46C173.411 16.46 172.723 16.296 172.283 15.968C171.843 15.64 171.587 15.144 171.515 14.48H172.883ZM179.728 12.092C179.752 12.3 179.808 12.472 179.896 12.608C179.984 12.736 180.092 12.84 180.22 12.92C180.356 13 180.512 13.056 180.688 13.088C180.864 13.112 181.052 13.124 181.252 13.124C181.708 13.124 182.036 13.056 182.236 12.92C182.436 12.784 182.536 12.584 182.536 12.32C182.536 12.112 182.472 11.936 182.344 11.792C182.224 11.648 181.972 11.544 181.588 11.48C181.092 11.392 180.656 11.308 180.28 11.228C179.904 11.148 179.588 11.04 179.332 10.904C179.076 10.76 178.884 10.58 178.756 10.364C178.628 10.14 178.564 9.84 178.564 9.464C178.564 9.176 178.628 8.916 178.756 8.684C178.884 8.444 179.06 8.244 179.284 8.084C179.516 7.916 179.788 7.788 180.1 7.7C180.42 7.612 180.768 7.568 181.144 7.568C181.624 7.568 182.024 7.616 182.344 7.712C182.664 7.808 182.924 7.94 183.124 8.108C183.324 8.276 183.476 8.468 183.58 8.684C183.684 8.9 183.764 9.128 183.82 9.368L182.596 9.536C182.5 9.224 182.352 8.992 182.152 8.84C181.96 8.688 181.636 8.612 181.18 8.612C180.916 8.612 180.7 8.636 180.532 8.684C180.364 8.732 180.228 8.792 180.124 8.864C180.028 8.936 179.96 9.016 179.92 9.104C179.888 9.192 179.872 9.28 179.872 9.368C179.872 9.504 179.888 9.616 179.92 9.704C179.952 9.792 180.008 9.864 180.088 9.92C180.176 9.976 180.292 10.024 180.436 10.064C180.58 10.104 180.76 10.144 180.976 10.184L181.756 10.316C182.172 10.388 182.516 10.48 182.788 10.592C183.068 10.704 183.288 10.844 183.448 11.012C183.616 11.172 183.732 11.36 183.796 11.576C183.86 11.792 183.892 12.032 183.892 12.296C183.892 12.864 183.676 13.324 183.244 13.676C182.812 14.02 182.156 14.192 181.276 14.192C180.916 14.192 180.568 14.156 180.232 14.084C179.904 14.02 179.608 13.908 179.344 13.748C179.08 13.588 178.864 13.376 178.696 13.112C178.536 12.84 178.444 12.5 178.42 12.092H179.728ZM190.479 8.672C190.607 8.6 190.727 8.52 190.839 8.432C190.959 8.336 191.063 8.232 191.151 8.12C191.239 8.008 191.311 7.884 191.367 7.748C191.423 7.612 191.451 7.46 191.451 7.292C191.451 6.988 191.371 6.756 191.211 6.596C191.051 6.436 190.835 6.356 190.563 6.356C189.955 6.356 189.651 6.684 189.651 7.34C189.651 7.492 189.675 7.636 189.723 7.772C189.779 7.908 189.843 8.036 189.915 8.156C189.995 8.268 190.075 8.372 190.155 8.468C190.243 8.564 190.319 8.648 190.383 8.72L190.479 8.672ZM189.903 10.028C189.607 10.196 189.351 10.404 189.135 10.652C188.919 10.892 188.811 11.188 188.811 11.54C188.811 11.764 188.839 11.972 188.895 12.164C188.959 12.356 189.059 12.52 189.195 12.656C189.339 12.792 189.523 12.9 189.747 12.98C189.979 13.06 190.267 13.1 190.611 13.1C190.947 13.1 191.231 13.052 191.463 12.956C191.695 12.852 191.891 12.72 192.051 12.56L189.903 10.028ZM192.759 13.364C192.487 13.604 192.167 13.804 191.799 13.964C191.431 14.116 190.999 14.192 190.503 14.192C189.903 14.192 189.407 14.12 189.015 13.976C188.623 13.832 188.307 13.644 188.067 13.412C187.835 13.18 187.671 12.916 187.575 12.62C187.487 12.324 187.443 12.024 187.443 11.72C187.443 11.4 187.495 11.116 187.599 10.868C187.703 10.612 187.839 10.388 188.007 10.196C188.183 9.996 188.379 9.82 188.595 9.668C188.819 9.516 189.047 9.372 189.279 9.236C189.063 8.996 188.863 8.712 188.679 8.384C188.495 8.056 188.403 7.7 188.403 7.316C188.403 7.036 188.455 6.776 188.559 6.536C188.663 6.296 188.807 6.092 188.991 5.924C189.175 5.748 189.399 5.612 189.663 5.516C189.927 5.412 190.215 5.36 190.527 5.36C191.127 5.36 191.607 5.508 191.967 5.804C192.335 6.092 192.551 6.472 192.615 6.944C192.631 7.008 192.639 7.072 192.639 7.136C192.639 7.2 192.639 7.264 192.639 7.328C192.623 7.584 192.567 7.816 192.471 8.024C192.375 8.232 192.251 8.42 192.099 8.588C191.955 8.756 191.783 8.908 191.583 9.044C191.391 9.18 191.195 9.308 190.995 9.428L192.795 11.552C192.907 11.272 192.983 10.992 193.023 10.712C193.071 10.432 193.099 10.136 193.107 9.824H194.343C194.335 10.32 194.263 10.792 194.127 11.24C193.991 11.688 193.807 12.1 193.575 12.476L194.883 14H193.299L192.759 13.364ZM110.86 27.384C110.924 27.944 111.124 28.352 111.46 28.608C111.804 28.864 112.312 28.992 112.984 28.992C113.312 28.992 113.588 28.956 113.812 28.884C114.036 28.812 114.216 28.716 114.352 28.596C114.488 28.476 114.584 28.336 114.64 28.176C114.696 28.008 114.724 27.832 114.724 27.648C114.724 27.512 114.704 27.38 114.664 27.252C114.624 27.116 114.552 26.992 114.448 26.88C114.344 26.768 114.204 26.672 114.028 26.592C113.852 26.504 113.628 26.436 113.356 26.388L112.264 26.184C111.832 26.104 111.448 26.004 111.112 25.884C110.776 25.764 110.492 25.608 110.26 25.416C110.036 25.216 109.864 24.976 109.744 24.696C109.632 24.408 109.576 24.06 109.576 23.652C109.576 23.244 109.656 22.888 109.816 22.584C109.984 22.28 110.212 22.028 110.5 21.828C110.788 21.62 111.128 21.468 111.52 21.372C111.92 21.268 112.352 21.216 112.816 21.216C113.408 21.216 113.904 21.284 114.304 21.42C114.704 21.556 115.028 21.736 115.276 21.96C115.524 22.176 115.712 22.428 115.84 22.716C115.968 23.004 116.056 23.304 116.104 23.616L114.736 23.832C114.624 23.352 114.428 22.996 114.148 22.764C113.876 22.532 113.44 22.416 112.84 22.416C112.496 22.416 112.208 22.448 111.976 22.512C111.752 22.568 111.568 22.652 111.424 22.764C111.288 22.868 111.188 22.992 111.124 23.136C111.068 23.272 111.04 23.416 111.04 23.568C111.04 23.944 111.14 24.224 111.34 24.408C111.548 24.592 111.908 24.736 112.42 24.84L113.608 25.068C114.512 25.236 115.176 25.524 115.6 25.932C116.024 26.332 116.236 26.912 116.236 27.672C116.236 28.032 116.168 28.368 116.032 28.68C115.904 28.984 115.704 29.252 115.432 29.484C115.16 29.708 114.82 29.884 114.412 30.012C114.012 30.148 113.544 30.216 113.008 30.216C111.912 30.216 111.052 29.988 110.428 29.532C109.804 29.068 109.46 28.352 109.396 27.384H110.86ZM117.031 24.84V23.76H118.015V22.08H119.371V23.76H120.919V24.84H119.371V28.104C119.371 28.424 119.435 28.656 119.563 28.8C119.699 28.944 119.895 29.016 120.151 29.016C120.287 29.016 120.415 29.008 120.535 28.992C120.663 28.976 120.787 28.948 120.907 28.908L121.111 29.928C120.727 30.056 120.311 30.12 119.863 30.12C119.175 30.12 118.695 29.944 118.423 29.592C118.151 29.232 118.015 28.696 118.015 27.984V24.84H117.031ZM123.323 23.76V24.684C123.539 24.356 123.799 24.104 124.103 23.928C124.407 23.752 124.731 23.664 125.075 23.664C125.211 23.664 125.323 23.668 125.411 23.676C125.507 23.684 125.599 23.696 125.687 23.712L125.531 24.96C125.443 24.936 125.347 24.92 125.243 24.912C125.139 24.904 125.031 24.9 124.919 24.9C124.663 24.9 124.439 24.944 124.247 25.032C124.055 25.112 123.891 25.22 123.755 25.356C123.627 25.492 123.527 25.648 123.455 25.824C123.391 25.992 123.359 26.164 123.359 26.34V30H122.003V23.76H123.323ZM131.929 28.152C131.817 28.8 131.541 29.304 131.101 29.664C130.661 30.016 130.029 30.192 129.205 30.192C128.213 30.192 127.457 29.908 126.937 29.34C126.425 28.764 126.169 27.956 126.169 26.916C126.169 26.38 126.241 25.904 126.385 25.488C126.537 25.072 126.745 24.724 127.009 24.444C127.281 24.156 127.601 23.94 127.969 23.796C128.345 23.644 128.757 23.568 129.205 23.568C129.685 23.568 130.101 23.644 130.453 23.796C130.805 23.94 131.097 24.148 131.329 24.42C131.561 24.684 131.733 25.004 131.845 25.38C131.957 25.748 132.013 26.16 132.013 26.616V27.216H127.537C127.553 27.784 127.697 28.244 127.969 28.596C128.241 28.948 128.653 29.124 129.205 29.124C129.637 29.124 129.961 29.04 130.177 28.872C130.393 28.704 130.537 28.464 130.609 28.152H131.929ZM130.681 26.268C130.681 25.756 130.561 25.352 130.321 25.056C130.081 24.76 129.697 24.612 129.169 24.612C128.665 24.612 128.281 24.764 128.017 25.068C127.753 25.364 127.601 25.764 127.561 26.268H130.681ZM134.282 28.092C134.306 28.3 134.362 28.472 134.45 28.608C134.538 28.736 134.646 28.84 134.774 28.92C134.91 29 135.066 29.056 135.242 29.088C135.418 29.112 135.606 29.124 135.806 29.124C136.262 29.124 136.59 29.056 136.79 28.92C136.99 28.784 137.09 28.584 137.09 28.32C137.09 28.112 137.026 27.936 136.898 27.792C136.778 27.648 136.526 27.544 136.142 27.48C135.646 27.392 135.21 27.308 134.834 27.228C134.458 27.148 134.142 27.04 133.886 26.904C133.63 26.76 133.438 26.58 133.31 26.364C133.182 26.14 133.118 25.84 133.118 25.464C133.118 25.176 133.182 24.916 133.31 24.684C133.438 24.444 133.614 24.244 133.838 24.084C134.07 23.916 134.342 23.788 134.654 23.7C134.974 23.612 135.322 23.568 135.698 23.568C136.178 23.568 136.578 23.616 136.898 23.712C137.218 23.808 137.478 23.94 137.678 24.108C137.878 24.276 138.03 24.468 138.134 24.684C138.238 24.9 138.318 25.128 138.374 25.368L137.15 25.536C137.054 25.224 136.906 24.992 136.706 24.84C136.514 24.688 136.19 24.612 135.734 24.612C135.47 24.612 135.254 24.636 135.086 24.684C134.918 24.732 134.782 24.792 134.678 24.864C134.582 24.936 134.514 25.016 134.474 25.104C134.442 25.192 134.426 25.28 134.426 25.368C134.426 25.504 134.442 25.616 134.474 25.704C134.506 25.792 134.562 25.864 134.642 25.92C134.73 25.976 134.846 26.024 134.99 26.064C135.134 26.104 135.314 26.144 135.53 26.184L136.31 26.316C136.726 26.388 137.07 26.48 137.342 26.592C137.622 26.704 137.842 26.844 138.002 27.012C138.17 27.172 138.286 27.36 138.35 27.576C138.414 27.792 138.446 28.032 138.446 28.296C138.446 28.864 138.23 29.324 137.798 29.676C137.366 30.02 136.71 30.192 135.83 30.192C135.47 30.192 135.122 30.156 134.786 30.084C134.458 30.02 134.162 29.908 133.898 29.748C133.634 29.588 133.418 29.376 133.25 29.112C133.09 28.84 132.998 28.5 132.974 28.092H134.282ZM140.646 28.092C140.67 28.3 140.726 28.472 140.814 28.608C140.902 28.736 141.01 28.84 141.138 28.92C141.274 29 141.43 29.056 141.606 29.088C141.782 29.112 141.97 29.124 142.17 29.124C142.626 29.124 142.954 29.056 143.154 28.92C143.354 28.784 143.454 28.584 143.454 28.32C143.454 28.112 143.39 27.936 143.262 27.792C143.142 27.648 142.89 27.544 142.506 27.48C142.01 27.392 141.574 27.308 141.198 27.228C140.822 27.148 140.506 27.04 140.25 26.904C139.994 26.76 139.802 26.58 139.674 26.364C139.546 26.14 139.482 25.84 139.482 25.464C139.482 25.176 139.546 24.916 139.674 24.684C139.802 24.444 139.978 24.244 140.202 24.084C140.434 23.916 140.706 23.788 141.018 23.7C141.338 23.612 141.686 23.568 142.062 23.568C142.542 23.568 142.942 23.616 143.262 23.712C143.582 23.808 143.842 23.94 144.042 24.108C144.242 24.276 144.394 24.468 144.498 24.684C144.602 24.9 144.682 25.128 144.738 25.368L143.514 25.536C143.418 25.224 143.27 24.992 143.07 24.84C142.878 24.688 142.554 24.612 142.098 24.612C141.834 24.612 141.618 24.636 141.45 24.684C141.282 24.732 141.146 24.792 141.042 24.864C140.946 24.936 140.878 25.016 140.838 25.104C140.806 25.192 140.79 25.28 140.79 25.368C140.79 25.504 140.806 25.616 140.838 25.704C140.87 25.792 140.926 25.864 141.006 25.92C141.094 25.976 141.21 26.024 141.354 26.064C141.498 26.104 141.678 26.144 141.894 26.184L142.674 26.316C143.09 26.388 143.434 26.48 143.706 26.592C143.986 26.704 144.206 26.844 144.366 27.012C144.534 27.172 144.65 27.36 144.714 27.576C144.778 27.792 144.81 28.032 144.81 28.296C144.81 28.864 144.594 29.324 144.162 29.676C143.73 30.02 143.074 30.192 142.194 30.192C141.834 30.192 141.486 30.156 141.15 30.084C140.822 30.02 140.526 29.908 140.262 29.748C139.998 29.588 139.782 29.376 139.614 29.112C139.454 28.84 139.362 28.5 139.338 28.092H140.646Z" fill="#FCF7EE"/>
<path d="M212 1L212 37" stroke="#FCF7EE" stroke-linecap="round"/>
<path d="M228.912 5.432H231.876C232.5 5.432 233.012 5.492 233.412 5.612C233.812 5.724 234.128 5.884 234.36 6.092C234.6 6.292 234.764 6.532 234.852 6.812C234.94 7.084 234.984 7.376 234.984 7.688C234.984 8.048 234.904 8.384 234.744 8.696C234.584 9 234.292 9.252 233.868 9.452C234.14 9.572 234.364 9.708 234.54 9.86C234.716 10.012 234.856 10.176 234.96 10.352C235.064 10.52 235.136 10.7 235.176 10.892C235.216 11.076 235.236 11.264 235.236 11.456C235.236 11.808 235.18 12.14 235.068 12.452C234.964 12.764 234.788 13.036 234.54 13.268C234.292 13.492 233.968 13.672 233.568 13.808C233.168 13.936 232.676 14 232.092 14H228.912V5.432ZM232.044 8.948C232.612 8.948 233.008 8.844 233.232 8.636C233.456 8.428 233.568 8.128 233.568 7.736C233.568 7.328 233.436 7.036 233.172 6.86C232.916 6.676 232.468 6.584 231.828 6.584H230.316V8.948H232.044ZM232.044 12.836C232.388 12.836 232.672 12.804 232.896 12.74C233.128 12.676 233.308 12.584 233.436 12.464C233.572 12.344 233.668 12.2 233.724 12.032C233.78 11.864 233.808 11.676 233.808 11.468C233.808 11.036 233.684 10.708 233.436 10.484C233.196 10.252 232.776 10.136 232.176 10.136H230.316V12.836H232.044ZM239.324 13.088C239.9 13.088 240.32 12.892 240.584 12.5C240.856 12.1 240.992 11.556 240.992 10.868C240.992 10.188 240.856 9.652 240.584 9.26C240.32 8.868 239.9 8.672 239.324 8.672C238.748 8.672 238.324 8.872 238.052 9.272C237.788 9.664 237.656 10.196 237.656 10.868C237.656 11.548 237.784 12.088 238.04 12.488C238.304 12.888 238.732 13.088 239.324 13.088ZM239.312 14.192C238.336 14.192 237.58 13.904 237.044 13.328C236.508 12.752 236.24 11.936 236.24 10.88C236.24 10.384 236.308 9.932 236.444 9.524C236.588 9.116 236.792 8.768 237.056 8.48C237.32 8.192 237.644 7.968 238.028 7.808C238.412 7.648 238.848 7.568 239.336 7.568C239.832 7.568 240.272 7.652 240.656 7.82C241.04 7.98 241.36 8.204 241.616 8.492C241.88 8.78 242.076 9.128 242.204 9.536C242.34 9.936 242.408 10.376 242.408 10.856C242.408 11.4 242.332 11.88 242.18 12.296C242.028 12.704 241.812 13.052 241.532 13.34C241.26 13.62 240.936 13.832 240.56 13.976C240.184 14.12 239.768 14.192 239.312 14.192ZM246.636 13.088C247.212 13.088 247.632 12.892 247.896 12.5C248.168 12.1 248.304 11.556 248.304 10.868C248.304 10.188 248.168 9.652 247.896 9.26C247.632 8.868 247.212 8.672 246.636 8.672C246.06 8.672 245.636 8.872 245.364 9.272C245.1 9.664 244.968 10.196 244.968 10.868C244.968 11.548 245.096 12.088 245.352 12.488C245.616 12.888 246.044 13.088 246.636 13.088ZM246.624 14.192C245.648 14.192 244.892 13.904 244.356 13.328C243.82 12.752 243.552 11.936 243.552 10.88C243.552 10.384 243.62 9.932 243.756 9.524C243.9 9.116 244.104 8.768 244.368 8.48C244.632 8.192 244.956 7.968 245.34 7.808C245.724 7.648 246.16 7.568 246.648 7.568C247.144 7.568 247.584 7.652 247.968 7.82C248.352 7.98 248.672 8.204 248.928 8.492C249.192 8.78 249.388 9.128 249.516 9.536C249.652 9.936 249.72 10.376 249.72 10.856C249.72 11.4 249.644 11.88 249.492 12.296C249.34 12.704 249.124 13.052 248.844 13.34C248.572 13.62 248.248 13.832 247.872 13.976C247.496 14.12 247.08 14.192 246.624 14.192ZM252.017 12.092C252.041 12.3 252.097 12.472 252.185 12.608C252.273 12.736 252.381 12.84 252.509 12.92C252.645 13 252.801 13.056 252.977 13.088C253.153 13.112 253.341 13.124 253.541 13.124C253.997 13.124 254.325 13.056 254.525 12.92C254.725 12.784 254.825 12.584 254.825 12.32C254.825 12.112 254.761 11.936 254.633 11.792C254.513 11.648 254.261 11.544 253.877 11.48C253.381 11.392 252.945 11.308 252.569 11.228C252.193 11.148 251.877 11.04 251.621 10.904C251.365 10.76 251.173 10.58 251.045 10.364C250.917 10.14 250.853 9.84 250.853 9.464C250.853 9.176 250.917 8.916 251.045 8.684C251.173 8.444 251.349 8.244 251.573 8.084C251.805 7.916 252.077 7.788 252.389 7.7C252.709 7.612 253.057 7.568 253.433 7.568C253.913 7.568 254.313 7.616 254.633 7.712C254.953 7.808 255.213 7.94 255.413 8.108C255.613 8.276 255.765 8.468 255.869 8.684C255.973 8.9 256.053 9.128 256.109 9.368L254.885 9.536C254.789 9.224 254.641 8.992 254.441 8.84C254.249 8.688 253.925 8.612 253.469 8.612C253.205 8.612 252.989 8.636 252.821 8.684C252.653 8.732 252.517 8.792 252.413 8.864C252.317 8.936 252.249 9.016 252.209 9.104C252.177 9.192 252.161 9.28 252.161 9.368C252.161 9.504 252.177 9.616 252.209 9.704C252.241 9.792 252.297 9.864 252.377 9.92C252.465 9.976 252.581 10.024 252.725 10.064C252.869 10.104 253.049 10.144 253.265 10.184L254.045 10.316C254.461 10.388 254.805 10.48 255.077 10.592C255.357 10.704 255.577 10.844 255.737 11.012C255.905 11.172 256.021 11.36 256.085 11.576C256.149 11.792 256.181 12.032 256.181 12.296C256.181 12.864 255.965 13.324 255.533 13.676C255.101 14.02 254.445 14.192 253.565 14.192C253.205 14.192 252.857 14.156 252.521 14.084C252.193 14.02 251.897 13.908 251.633 13.748C251.369 13.588 251.153 13.376 250.985 13.112C250.825 12.84 250.733 12.5 250.709 12.092H252.017ZM256.832 8.84V7.76H257.816V6.08H259.172V7.76H260.72V8.84H259.172V12.104C259.172 12.424 259.236 12.656 259.364 12.8C259.5 12.944 259.696 13.016 259.952 13.016C260.088 13.016 260.216 13.008 260.336 12.992C260.464 12.976 260.588 12.948 260.708 12.908L260.912 13.928C260.528 14.056 260.112 14.12 259.664 14.12C258.976 14.12 258.496 13.944 258.224 13.592C257.952 13.232 257.816 12.696 257.816 11.984V8.84H256.832ZM228.912 21.432H230.676L233.112 28.248L235.62 21.432H237.324V30H235.992V23.772L233.64 30H232.488L230.22 23.784V30H228.912V21.432ZM244.554 28.152C244.442 28.8 244.166 29.304 243.726 29.664C243.286 30.016 242.654 30.192 241.83 30.192C240.838 30.192 240.082 29.908 239.562 29.34C239.05 28.764 238.794 27.956 238.794 26.916C238.794 26.38 238.866 25.904 239.01 25.488C239.162 25.072 239.37 24.724 239.634 24.444C239.906 24.156 240.226 23.94 240.594 23.796C240.97 23.644 241.382 23.568 241.83 23.568C242.31 23.568 242.726 23.644 243.078 23.796C243.43 23.94 243.722 24.148 243.954 24.42C244.186 24.684 244.358 25.004 244.47 25.38C244.582 25.748 244.638 26.16 244.638 26.616V27.216H240.162C240.178 27.784 240.322 28.244 240.594 28.596C240.866 28.948 241.278 29.124 241.83 29.124C242.262 29.124 242.586 29.04 242.802 28.872C243.018 28.704 243.162 28.464 243.234 28.152H244.554ZM243.306 26.268C243.306 25.756 243.186 25.352 242.946 25.056C242.706 24.76 242.322 24.612 241.794 24.612C241.29 24.612 240.906 24.764 240.642 25.068C240.378 25.364 240.226 25.764 240.186 26.268H243.306ZM245.359 24.84V23.76H246.343V22.08H247.699V23.76H249.247V24.84H247.699V28.104C247.699 28.424 247.763 28.656 247.891 28.8C248.027 28.944 248.223 29.016 248.479 29.016C248.615 29.016 248.743 29.008 248.863 28.992C248.991 28.976 249.115 28.948 249.235 28.908L249.439 29.928C249.055 30.056 248.639 30.12 248.191 30.12C247.503 30.12 247.023 29.944 246.751 29.592C246.479 29.232 246.343 28.696 246.343 27.984V24.84H245.359ZM253.211 27.084C252.803 27.108 252.471 27.152 252.215 27.216C251.967 27.28 251.775 27.364 251.639 27.468C251.503 27.564 251.411 27.68 251.363 27.816C251.323 27.944 251.303 28.084 251.303 28.236C251.303 28.508 251.387 28.72 251.555 28.872C251.731 29.024 251.987 29.1 252.323 29.1C252.923 29.1 253.367 28.948 253.655 28.644C253.943 28.34 254.087 27.928 254.087 27.408V27.048L253.211 27.084ZM254.111 29.184C253.879 29.464 253.595 29.696 253.259 29.88C252.923 30.064 252.515 30.156 252.035 30.156C251.739 30.156 251.463 30.116 251.207 30.036C250.951 29.964 250.727 29.852 250.535 29.7C250.351 29.548 250.203 29.356 250.091 29.124C249.987 28.884 249.935 28.604 249.935 28.284C249.935 27.852 250.031 27.504 250.223 27.24C250.415 26.968 250.663 26.756 250.967 26.604C251.279 26.452 251.627 26.348 252.011 26.292C252.395 26.228 252.779 26.188 253.163 26.172L254.087 26.124V25.86C254.087 25.388 253.971 25.064 253.739 24.888C253.515 24.704 253.219 24.612 252.851 24.612C252.427 24.612 252.111 24.684 251.903 24.828C251.703 24.972 251.571 25.18 251.507 25.452L250.259 25.32C250.371 24.712 250.647 24.268 251.087 23.988C251.527 23.708 252.131 23.568 252.899 23.568C253.395 23.568 253.803 23.632 254.123 23.76C254.451 23.888 254.711 24.064 254.903 24.288C255.095 24.512 255.227 24.78 255.299 25.092C255.379 25.396 255.419 25.732 255.419 26.1V30H254.111V29.184ZM258.261 27.084C258.269 27.484 258.317 27.812 258.405 28.068C258.501 28.324 258.621 28.528 258.765 28.68C258.917 28.832 259.089 28.936 259.281 28.992C259.473 29.048 259.673 29.076 259.881 29.076C260.105 29.076 260.313 29.036 260.505 28.956C260.697 28.876 260.865 28.752 261.009 28.584C261.153 28.408 261.265 28.18 261.345 27.9C261.425 27.62 261.465 27.276 261.465 26.868C261.465 26.476 261.421 26.144 261.333 25.872C261.253 25.592 261.145 25.368 261.009 25.2C260.873 25.024 260.709 24.896 260.517 24.816C260.333 24.736 260.141 24.696 259.941 24.696C259.645 24.696 259.389 24.744 259.173 24.84C258.965 24.936 258.793 25.072 258.657 25.248C258.521 25.424 258.421 25.636 258.357 25.884C258.293 26.124 258.261 26.392 258.261 26.688V26.988V27.084ZM258.273 21.432V24.576C258.521 24.248 258.805 24 259.125 23.832C259.453 23.656 259.833 23.568 260.265 23.568C260.713 23.568 261.101 23.648 261.429 23.808C261.757 23.968 262.029 24.192 262.245 24.48C262.461 24.768 262.621 25.116 262.725 25.524C262.837 25.924 262.893 26.368 262.893 26.856C262.893 27.368 262.829 27.832 262.701 28.248C262.573 28.656 262.389 29.004 262.149 29.292C261.909 29.58 261.621 29.804 261.285 29.964C260.949 30.116 260.573 30.192 260.157 30.192C259.781 30.192 259.433 30.12 259.113 29.976C258.793 29.832 258.501 29.592 258.237 29.256V30H256.917V21.432H258.273ZM267.109 29.088C267.685 29.088 268.105 28.892 268.369 28.5C268.641 28.1 268.777 27.556 268.777 26.868C268.777 26.188 268.641 25.652 268.369 25.26C268.105 24.868 267.685 24.672 267.109 24.672C266.533 24.672 266.109 24.872 265.837 25.272C265.573 25.664 265.441 26.196 265.441 26.868C265.441 27.548 265.569 28.088 265.825 28.488C266.089 28.888 266.517 29.088 267.109 29.088ZM267.097 30.192C266.121 30.192 265.365 29.904 264.829 29.328C264.293 28.752 264.025 27.936 264.025 26.88C264.025 26.384 264.093 25.932 264.229 25.524C264.373 25.116 264.577 24.768 264.841 24.48C265.105 24.192 265.429 23.968 265.813 23.808C266.197 23.648 266.633 23.568 267.121 23.568C267.617 23.568 268.057 23.652 268.441 23.82C268.825 23.98 269.145 24.204 269.401 24.492C269.665 24.78 269.861 25.128 269.989 25.536C270.125 25.936 270.193 26.376 270.193 26.856C270.193 27.4 270.117 27.88 269.965 28.296C269.813 28.704 269.597 29.052 269.317 29.34C269.045 29.62 268.721 29.832 268.345 29.976C267.969 30.12 267.553 30.192 267.097 30.192ZM272.933 21.432V30H271.565V21.432H272.933ZM275.911 21.432V22.788H274.495V21.432H275.911ZM275.887 23.76V30H274.519V23.76H275.887ZM278.396 28.092C278.42 28.3 278.476 28.472 278.564 28.608C278.652 28.736 278.76 28.84 278.888 28.92C279.024 29 279.18 29.056 279.356 29.088C279.532 29.112 279.72 29.124 279.92 29.124C280.376 29.124 280.704 29.056 280.904 28.92C281.104 28.784 281.204 28.584 281.204 28.32C281.204 28.112 281.14 27.936 281.012 27.792C280.892 27.648 280.64 27.544 280.256 27.48C279.76 27.392 279.324 27.308 278.948 27.228C278.572 27.148 278.256 27.04 278 26.904C277.744 26.76 277.552 26.58 277.424 26.364C277.296 26.14 277.232 25.84 277.232 25.464C277.232 25.176 277.296 24.916 277.424 24.684C277.552 24.444 277.728 24.244 277.952 24.084C278.184 23.916 278.456 23.788 278.768 23.7C279.088 23.612 279.436 23.568 279.812 23.568C280.292 23.568 280.692 23.616 281.012 23.712C281.332 23.808 281.592 23.94 281.792 24.108C281.992 24.276 282.144 24.468 282.248 24.684C282.352 24.9 282.432 25.128 282.488 25.368L281.264 25.536C281.168 25.224 281.02 24.992 280.82 24.84C280.628 24.688 280.304 24.612 279.848 24.612C279.584 24.612 279.368 24.636 279.2 24.684C279.032 24.732 278.896 24.792 278.792 24.864C278.696 24.936 278.628 25.016 278.588 25.104C278.556 25.192 278.54 25.28 278.54 25.368C278.54 25.504 278.556 25.616 278.588 25.704C278.62 25.792 278.676 25.864 278.756 25.92C278.844 25.976 278.96 26.024 279.104 26.064C279.248 26.104 279.428 26.144 279.644 26.184L280.424 26.316C280.84 26.388 281.184 26.48 281.456 26.592C281.736 26.704 281.956 26.844 282.116 27.012C282.284 27.172 282.4 27.36 282.464 27.576C282.528 27.792 282.56 28.032 282.56 28.296C282.56 28.864 282.344 29.324 281.912 29.676C281.48 30.02 280.824 30.192 279.944 30.192C279.584 30.192 279.236 30.156 278.9 30.084C278.572 30.02 278.276 29.908 278.012 29.748C277.748 29.588 277.532 29.376 277.364 29.112C277.204 28.84 277.112 28.5 277.088 28.092H278.396ZM285.143 23.76V24.66C285.575 24.06 286.087 23.712 286.679 23.616C286.831 23.592 286.991 23.58 287.159 23.58C287.583 23.596 287.927 23.704 288.191 23.904C288.455 24.096 288.647 24.36 288.767 24.696C289.319 23.944 289.999 23.568 290.807 23.568C291.471 23.568 291.959 23.752 292.271 24.12C292.583 24.488 292.739 25.076 292.739 25.884V30H291.371V26.256C291.371 25.952 291.351 25.7 291.311 25.5C291.271 25.3 291.211 25.144 291.131 25.032C291.059 24.912 290.963 24.832 290.843 24.792C290.723 24.744 290.587 24.72 290.435 24.72C290.195 24.72 289.983 24.764 289.799 24.852C289.615 24.94 289.459 25.056 289.331 25.2C289.211 25.344 289.119 25.508 289.055 25.692C288.991 25.868 288.959 26.052 288.959 26.244V30H287.591V26.124C287.591 25.588 287.507 25.22 287.339 25.02C287.179 24.82 286.955 24.72 286.667 24.72C286.547 24.72 286.403 24.748 286.235 24.804C286.067 24.852 285.903 24.936 285.743 25.056C285.591 25.176 285.459 25.336 285.347 25.536C285.235 25.736 285.179 25.98 285.179 26.268V30H283.823V23.76H285.143Z" fill="#FCF7EE"/>
</svg>
