<svg width="100" height="21" viewBox="0 0 100 21" fill="none" xmlns="http://www.w3.org/2000/svg">
<rect x="0.193268" width="99.6135" height="21" rx="4" fill="#55B732"/>
<path d="M18.8067 10.4971L17.4078 8.90325L17.6027 6.79336L15.533 6.32322L14.4494 4.5L12.5 5.33708L10.5506 4.5L9.46704 6.32322L7.39728 6.78763L7.59222 8.89752L6.19327 10.4971L7.59222 12.091L7.39728 14.2066L9.46704 14.6768L10.5506 16.5L12.5 15.6572L14.4494 16.4943L15.533 14.671L17.6027 14.2009L17.4078 12.091L18.8067 10.4971ZM11.3533 13.3638L9.05997 11.0705L9.86838 10.2621L11.3533 11.7413L15.1316 7.96297L15.94 8.77711L11.3533 13.3638Z" fill="#FCF7EE"/>
<path d="M30.0167 6.98L27.5267 14H25.3867L22.8967 6.98H24.7167L26.4567 12.28L28.2067 6.98H30.0167ZM35.9914 11.12C35.9914 11.28 35.9814 11.4467 35.9614 11.62H32.0914C32.1181 11.9667 32.2281 12.2333 32.4214 12.42C32.6214 12.6 32.8648 12.69 33.1514 12.69C33.5781 12.69 33.8748 12.51 34.0414 12.15H35.8614C35.7681 12.5167 35.5981 12.8467 35.3514 13.14C35.1114 13.4333 34.8081 13.6633 34.4414 13.83C34.0748 13.9967 33.6648 14.08 33.2114 14.08C32.6648 14.08 32.1781 13.9633 31.7514 13.73C31.3248 13.4967 30.9914 13.1633 30.7514 12.73C30.5114 12.2967 30.3914 11.79 30.3914 11.21C30.3914 10.63 30.5081 10.1233 30.7414 9.69C30.9814 9.25667 31.3148 8.92333 31.7414 8.69C32.1681 8.45667 32.6581 8.34 33.2114 8.34C33.7514 8.34 34.2314 8.45333 34.6514 8.68C35.0714 8.90667 35.3981 9.23 35.6314 9.65C35.8714 10.07 35.9914 10.56 35.9914 11.12ZM34.2414 10.67C34.2414 10.3767 34.1414 10.1433 33.9414 9.97C33.7414 9.79667 33.4914 9.71 33.1914 9.71C32.9048 9.71 32.6614 9.79333 32.4614 9.96C32.2681 10.1267 32.1481 10.3633 32.1014 10.67H34.2414ZM38.6035 9.35C38.8035 9.04333 39.0535 8.80333 39.3535 8.63C39.6535 8.45 39.9869 8.36 40.3535 8.36V10.17H39.8835C39.4569 10.17 39.1369 10.2633 38.9235 10.45C38.7102 10.63 38.6035 10.95 38.6035 11.41V14H36.8935V8.42H38.6035V9.35ZM42.0309 7.84C41.7309 7.84 41.4842 7.75333 41.2909 7.58C41.1042 7.4 41.0109 7.18 41.0109 6.92C41.0109 6.65333 41.1042 6.43333 41.2909 6.26C41.4842 6.08 41.7309 5.99 42.0309 5.99C42.3242 5.99 42.5642 6.08 42.7509 6.26C42.9442 6.43333 43.0409 6.65333 43.0409 6.92C43.0409 7.18 42.9442 7.4 42.7509 7.58C42.5642 7.75333 42.3242 7.84 42.0309 7.84ZM42.8809 8.42V14H41.1709V8.42H42.8809ZM46.9201 9.84H46.0001V14H44.2901V9.84H43.6701V8.42H44.2901V8.26C44.2901 7.57333 44.4868 7.05333 44.8801 6.7C45.2734 6.34 45.8501 6.16 46.6101 6.16C46.7368 6.16 46.8301 6.16333 46.8901 6.17V7.62C46.5634 7.6 46.3334 7.64667 46.2001 7.76C46.0668 7.87333 46.0001 8.07667 46.0001 8.37V8.42H46.9201V9.84ZM48.5836 7.84C48.2836 7.84 48.0369 7.75333 47.8436 7.58C47.6569 7.4 47.5636 7.18 47.5636 6.92C47.5636 6.65333 47.6569 6.43333 47.8436 6.26C48.0369 6.08 48.2836 5.99 48.5836 5.99C48.8769 5.99 49.1169 6.08 49.3036 6.26C49.4969 6.43333 49.5936 6.65333 49.5936 6.92C49.5936 7.18 49.4969 7.4 49.3036 7.58C49.1169 7.75333 48.8769 7.84 48.5836 7.84ZM49.4336 8.42V14H47.7236V8.42H49.4336ZM55.9328 11.12C55.9328 11.28 55.9228 11.4467 55.9028 11.62H52.0328C52.0595 11.9667 52.1695 12.2333 52.3628 12.42C52.5628 12.6 52.8062 12.69 53.0928 12.69C53.5195 12.69 53.8162 12.51 53.9828 12.15H55.8028C55.7095 12.5167 55.5395 12.8467 55.2928 13.14C55.0528 13.4333 54.7495 13.6633 54.3828 13.83C54.0162 13.9967 53.6062 14.08 53.1528 14.08C52.6062 14.08 52.1195 13.9633 51.6928 13.73C51.2662 13.4967 50.9328 13.1633 50.6928 12.73C50.4528 12.2967 50.3328 11.79 50.3328 11.21C50.3328 10.63 50.4495 10.1233 50.6828 9.69C50.9228 9.25667 51.2562 8.92333 51.6828 8.69C52.1095 8.45667 52.5995 8.34 53.1528 8.34C53.6928 8.34 54.1728 8.45333 54.5928 8.68C55.0128 8.90667 55.3395 9.23 55.5728 9.65C55.8128 10.07 55.9328 10.56 55.9328 11.12ZM54.1828 10.67C54.1828 10.3767 54.0828 10.1433 53.8828 9.97C53.6828 9.79667 53.4328 9.71 53.1328 9.71C52.8462 9.71 52.6028 9.79333 52.4028 9.96C52.2095 10.1267 52.0895 10.3633 52.0428 10.67H54.1828ZM56.4949 11.2C56.4949 10.6267 56.6016 10.1233 56.8149 9.69C57.0349 9.25667 57.3316 8.92333 57.7049 8.69C58.0783 8.45667 58.4949 8.34 58.9549 8.34C59.3216 8.34 59.6549 8.41667 59.9549 8.57C60.2616 8.72333 60.5016 8.93 60.6749 9.19V6.6H62.3849V14H60.6749V13.2C60.5149 13.4667 60.2849 13.68 59.9849 13.84C59.6916 14 59.3483 14.08 58.9549 14.08C58.4949 14.08 58.0783 13.9633 57.7049 13.73C57.3316 13.49 57.0349 13.1533 56.8149 12.72C56.6016 12.28 56.4949 11.7733 56.4949 11.2ZM60.6749 11.21C60.6749 10.7833 60.5549 10.4467 60.3149 10.2C60.0816 9.95333 59.7949 9.83 59.4549 9.83C59.1149 9.83 58.8249 9.95333 58.5849 10.2C58.3516 10.44 58.2349 10.7733 58.2349 11.2C58.2349 11.6267 58.3516 11.9667 58.5849 12.22C58.8249 12.4667 59.1149 12.59 59.4549 12.59C59.7949 12.59 60.0816 12.4667 60.3149 12.22C60.5549 11.9733 60.6749 11.6367 60.6749 11.21ZM69.9912 10.4C70.3979 10.4867 70.7245 10.69 70.9712 11.01C71.2179 11.3233 71.3412 11.6833 71.3412 12.09C71.3412 12.6767 71.1345 13.1433 70.7212 13.49C70.3145 13.83 69.7445 14 69.0112 14H65.7412V6.98H68.9012C69.6145 6.98 70.1712 7.14333 70.5712 7.47C70.9779 7.79667 71.1812 8.24 71.1812 8.8C71.1812 9.21333 71.0712 9.55667 70.8512 9.83C70.6379 10.1033 70.3512 10.2933 69.9912 10.4ZM67.4512 9.82H68.5712C68.8512 9.82 69.0645 9.76 69.2112 9.64C69.3645 9.51333 69.4412 9.33 69.4412 9.09C69.4412 8.85 69.3645 8.66667 69.2112 8.54C69.0645 8.41333 68.8512 8.35 68.5712 8.35H67.4512V9.82ZM68.7112 12.62C68.9979 12.62 69.2179 12.5567 69.3712 12.43C69.5312 12.2967 69.6112 12.1067 69.6112 11.86C69.6112 11.6133 69.5279 11.42 69.3612 11.28C69.2012 11.14 68.9779 11.07 68.6912 11.07H67.4512V12.62H68.7112ZM77.843 8.42V14H76.133V13.24C75.9596 13.4867 75.723 13.6867 75.423 13.84C75.1296 13.9867 74.803 14.06 74.443 14.06C74.0163 14.06 73.6396 13.9667 73.313 13.78C72.9863 13.5867 72.733 13.31 72.553 12.95C72.373 12.59 72.283 12.1667 72.283 11.68V8.42H73.983V11.45C73.983 11.8233 74.0796 12.1133 74.273 12.32C74.4663 12.5267 74.7263 12.63 75.053 12.63C75.3863 12.63 75.6496 12.5267 75.843 12.32C76.0363 12.1133 76.133 11.8233 76.133 11.45V8.42H77.843ZM84.7713 8.42L81.2713 16.65H79.4313L80.7113 13.81L78.4413 8.42H80.3513L81.6413 11.91L82.9213 8.42H84.7713ZM90.6496 11.12C90.6496 11.28 90.6396 11.4467 90.6196 11.62H86.7496C86.7763 11.9667 86.8863 12.2333 87.0796 12.42C87.2796 12.6 87.523 12.69 87.8096 12.69C88.2363 12.69 88.533 12.51 88.6996 12.15H90.5196C90.4263 12.5167 90.2563 12.8467 90.0096 13.14C89.7696 13.4333 89.4663 13.6633 89.0996 13.83C88.733 13.9967 88.323 14.08 87.8696 14.08C87.323 14.08 86.8363 13.9633 86.4096 13.73C85.983 13.4967 85.6496 13.1633 85.4096 12.73C85.1696 12.2967 85.0496 11.79 85.0496 11.21C85.0496 10.63 85.1663 10.1233 85.3996 9.69C85.6396 9.25667 85.973 8.92333 86.3996 8.69C86.8263 8.45667 87.3163 8.34 87.8696 8.34C88.4096 8.34 88.8896 8.45333 89.3096 8.68C89.7296 8.90667 90.0563 9.23 90.2896 9.65C90.5296 10.07 90.6496 10.56 90.6496 11.12ZM88.8996 10.67C88.8996 10.3767 88.7996 10.1433 88.5996 9.97C88.3996 9.79667 88.1496 9.71 87.8496 9.71C87.563 9.71 87.3196 9.79333 87.1196 9.96C86.9263 10.1267 86.8063 10.3633 86.7596 10.67H88.8996ZM93.2617 9.35C93.4617 9.04333 93.7117 8.80333 94.0117 8.63C94.3117 8.45 94.6451 8.36 95.0117 8.36V10.17H94.5417C94.1151 10.17 93.7951 10.2633 93.5817 10.45C93.3684 10.63 93.2617 10.95 93.2617 11.41V14H91.5517V8.42H93.2617V9.35Z" fill="#FCF7EE"/>
</svg>
